<svg width="1737" height="1004" xmlns="http://www.w3.org/2000/svg" xmlns:xlink="http://www.w3.org/1999/xlink" xml:space="preserve" overflow="hidden"><defs><clipPath id="clip0"><rect x="238" y="146" width="1737" height="1004"/></clipPath><clipPath id="clip1"><rect x="238" y="146" width="1737" height="1004"/></clipPath><clipPath id="clip2"><rect x="331" y="328" width="1541" height="822"/></clipPath><clipPath id="clip3"><rect x="331" y="328" width="1541" height="822"/></clipPath><clipPath id="clip4"><rect x="331" y="328" width="1541" height="822"/></clipPath><clipPath id="clip5"><rect x="331" y="328" width="1541" height="822"/></clipPath></defs><g clip-path="url(#clip0)" transform="translate(-238 -146)"><g clip-path="url(#clip1)"><text fill="#000000" fill-opacity="1" font-family="TH SarabunPSK,TH SarabunPSK_MSFontService,sans-serif" font-style="normal" font-variant="normal" font-weight="700" font-stretch="normal" font-size="92" text-anchor="start" direction="ltr" writing-mode="lr-tb" unicode-bidi="normal" text-decoration="none" transform="matrix(1 0 0 1 353.429 259)">จำนวนลูกชิ้นปิ้ง (ไม้)</text><text fill="#000000" fill-opacity="1" font-family="TH SarabunPSK,TH SarabunPSK_MSFontService,sans-serif" font-style="normal" font-variant="normal" font-weight="700" font-stretch="normal" font-size="92" text-anchor="start" direction="ltr" writing-mode="lr-tb" unicode-bidi="normal" text-decoration="none" transform="matrix(1 0 0 1 1389.89 259)">ราคาขาย (บาท)</text><g clip-path="url(#clip2)"><g clip-path="url(#clip3)"><g clip-path="url(#clip4)"><g clip-path="url(#clip5)"><path d="M0 0 2894.79 0 2894.79 3693.94 0 3693.94Z" fill="#FFFFFF" fill-rule="nonzero" fill-opacity="1" transform="matrix(1 0 0 1.00033 -128.599 -525.31)"/><path d="M1.71492 2958.24 2889.64 2958.24" stroke="#252525" stroke-width="3.42984" stroke-linecap="butt" stroke-linejoin="miter" stroke-miterlimit="10" stroke-opacity="1" fill="none" fill-rule="nonzero" transform="matrix(1 0 0 1.00033 -128.599 -525.31)"/><path d="M2893.07 2958.24 2879.35 2944.52" stroke="#252525" stroke-width="3.42984" stroke-linecap="butt" stroke-linejoin="miter" stroke-miterlimit="10" stroke-opacity="1" fill="none" fill-rule="nonzero" transform="matrix(1 0 0 1.00033 -128.599 -525.31)"/><path d="M2893.07 2958.24 2879.35 2971.96" stroke="#252525" stroke-width="3.42984" stroke-linecap="butt" stroke-linejoin="miter" stroke-miterlimit="10" stroke-opacity="1" fill="none" fill-rule="nonzero" transform="matrix(1 0 0 1.00033 -128.599 -525.31)"/><text fill="#252525" fill-opacity="1" font-family="Arial,Arial_MSFontService,sans-serif" font-style="normal" font-variant="normal" font-weight="400" font-stretch="normal" font-size="12" text-anchor="start" direction="ltr" writing-mode="lr-tb" unicode-bidi="normal" text-decoration="none" transform="matrix(3.42984 0 0 3.43096 -80.5813 2487)">–16</text><path d="M77.1715 2958.24 77.1715 2968.53" stroke="#252525" stroke-width="3.42984" stroke-linecap="butt" stroke-linejoin="miter" stroke-miterlimit="10" stroke-opacity="1" fill="none" fill-rule="nonzero" transform="matrix(1 0 0 1.00033 -128.599 -525.31)"/><text fill="#252525" fill-opacity="1" font-family="Arial,Arial_MSFontService,sans-serif" font-style="normal" font-variant="normal" font-weight="400" font-stretch="normal" font-size="12" text-anchor="start" direction="ltr" writing-mode="lr-tb" unicode-bidi="normal" text-decoration="none" transform="matrix(3.42984 0 0 3.43096 108.06 2487)">–15</text><path d="M265.813 2958.24 265.813 2968.53" stroke="#252525" stroke-width="3.42984" stroke-linecap="butt" stroke-linejoin="miter" stroke-miterlimit="10" stroke-opacity="1" fill="none" fill-rule="nonzero" transform="matrix(1 0 0 1.00033 -128.599 -525.31)"/><text fill="#252525" fill-opacity="1" font-family="Arial,Arial_MSFontService,sans-serif" font-style="normal" font-variant="normal" font-weight="400" font-stretch="normal" font-size="12" text-anchor="start" direction="ltr" writing-mode="lr-tb" unicode-bidi="normal" text-decoration="none" transform="matrix(3.42984 0 0 3.43096 296.702 2487)">–14</text><path d="M454.454 2958.24 454.454 2968.53" stroke="#252525" stroke-width="3.42984" stroke-linecap="butt" stroke-linejoin="miter" stroke-miterlimit="10" stroke-opacity="1" fill="none" fill-rule="nonzero" transform="matrix(1 0 0 1.00033 -128.599 -525.31)"/><text fill="#252525" fill-opacity="1" font-family="Arial,Arial_MSFontService,sans-serif" font-style="normal" font-variant="normal" font-weight="400" font-stretch="normal" font-size="12" text-anchor="start" direction="ltr" writing-mode="lr-tb" unicode-bidi="normal" text-decoration="none" transform="matrix(3.42984 0 0 3.43096 485.343 2487)">–13</text><path d="M643.096 2958.24 643.096 2968.53" stroke="#252525" stroke-width="3.42984" stroke-linecap="butt" stroke-linejoin="miter" stroke-miterlimit="10" stroke-opacity="1" fill="none" fill-rule="nonzero" transform="matrix(1 0 0 1.00033 -128.599 -525.31)"/><text fill="#252525" fill-opacity="1" font-family="Arial,Arial_MSFontService,sans-serif" font-style="normal" font-variant="normal" font-weight="400" font-stretch="normal" font-size="12" text-anchor="start" direction="ltr" writing-mode="lr-tb" unicode-bidi="normal" text-decoration="none" transform="matrix(3.42984 0 0 3.43096 673.984 2487)">–12</text><path d="M831.737 2958.24 831.737 2968.53" stroke="#252525" stroke-width="3.42984" stroke-linecap="butt" stroke-linejoin="miter" stroke-miterlimit="10" stroke-opacity="1" fill="none" fill-rule="nonzero" transform="matrix(1 0 0 1.00033 -128.599 -525.31)"/><text fill="#252525" fill-opacity="1" font-family="Arial,Arial_MSFontService,sans-serif" font-style="normal" font-variant="normal" font-weight="400" font-stretch="normal" font-size="12" text-anchor="start" direction="ltr" writing-mode="lr-tb" unicode-bidi="normal" text-decoration="none" transform="matrix(3.42984 0 0 3.43096 862.626 2487)">–11</text><path d="M1020.38 2958.24 1020.38 2968.53" stroke="#252525" stroke-width="3.42984" stroke-linecap="butt" stroke-linejoin="miter" stroke-miterlimit="10" stroke-opacity="1" fill="none" fill-rule="nonzero" transform="matrix(1 0 0 1.00033 -128.599 -525.31)"/><text fill="#252525" fill-opacity="1" font-family="Arial,Arial_MSFontService,sans-serif" font-style="normal" font-variant="normal" font-weight="400" font-stretch="normal" font-size="12" text-anchor="start" direction="ltr" writing-mode="lr-tb" unicode-bidi="normal" text-decoration="none" transform="matrix(3.42984 0 0 3.43096 1051.27 2487)">–10</text><path d="M1209.02 2958.24 1209.02 2968.53" stroke="#252525" stroke-width="3.42984" stroke-linecap="butt" stroke-linejoin="miter" stroke-miterlimit="10" stroke-opacity="1" fill="none" fill-rule="nonzero" transform="matrix(1 0 0 1.00033 -128.599 -525.31)"/><text fill="#252525" fill-opacity="1" font-family="Arial,Arial_MSFontService,sans-serif" font-style="normal" font-variant="normal" font-weight="400" font-stretch="normal" font-size="12" text-anchor="start" direction="ltr" writing-mode="lr-tb" unicode-bidi="normal" text-decoration="none" transform="matrix(3.42984 0 0 3.43096 1250.2 2487)">–9</text><path d="M1397.66 2958.24 1397.66 2968.53" stroke="#252525" stroke-width="3.42984" stroke-linecap="butt" stroke-linejoin="miter" stroke-miterlimit="10" stroke-opacity="1" fill="none" fill-rule="nonzero" transform="matrix(1 0 0 1.00033 -128.599 -525.31)"/><text fill="#252525" fill-opacity="1" font-family="Arial,Arial_MSFontService,sans-serif" font-style="normal" font-variant="normal" font-weight="400" font-stretch="normal" font-size="12" text-anchor="start" direction="ltr" writing-mode="lr-tb" unicode-bidi="normal" text-decoration="none" transform="matrix(3.42984 0 0 3.43096 1438.84 2487)">–8</text><path d="M1586.3 2958.24 1586.3 2968.53" stroke="#252525" stroke-width="3.42984" stroke-linecap="butt" stroke-linejoin="miter" stroke-miterlimit="10" stroke-opacity="1" fill="none" fill-rule="nonzero" transform="matrix(1 0 0 1.00033 -128.599 -525.31)"/><text fill="#252525" fill-opacity="1" font-family="Arial,Arial_MSFontService,sans-serif" font-style="normal" font-variant="normal" font-weight="400" font-stretch="normal" font-size="12" text-anchor="start" direction="ltr" writing-mode="lr-tb" unicode-bidi="normal" text-decoration="none" transform="matrix(3.42984 0 0 3.43096 1627.48 2487)">–7</text><path d="M1774.94 2958.24 1774.94 2968.53" stroke="#252525" stroke-width="3.42984" stroke-linecap="butt" stroke-linejoin="miter" stroke-miterlimit="10" stroke-opacity="1" fill="none" fill-rule="nonzero" transform="matrix(1 0 0 1.00033 -128.599 -525.31)"/><text fill="#252525" fill-opacity="1" font-family="Arial,Arial_MSFontService,sans-serif" font-style="normal" font-variant="normal" font-weight="400" font-stretch="normal" font-size="12" text-anchor="start" direction="ltr" writing-mode="lr-tb" unicode-bidi="normal" text-decoration="none" transform="matrix(3.42984 0 0 3.43096 1816.12 2487)">–6</text><path d="M1963.59 2958.24 1963.59 2968.53" stroke="#252525" stroke-width="3.42984" stroke-linecap="butt" stroke-linejoin="miter" stroke-miterlimit="10" stroke-opacity="1" fill="none" fill-rule="nonzero" transform="matrix(1 0 0 1.00033 -128.599 -525.31)"/><text fill="#252525" fill-opacity="1" font-family="Arial,Arial_MSFontService,sans-serif" font-style="normal" font-variant="normal" font-weight="400" font-stretch="normal" font-size="12" text-anchor="start" direction="ltr" writing-mode="lr-tb" unicode-bidi="normal" text-decoration="none" transform="matrix(3.42984 0 0 3.43096 2004.76 2487)">–5</text><path d="M2152.23 2958.24 2152.23 2968.53" stroke="#252525" stroke-width="3.42984" stroke-linecap="butt" stroke-linejoin="miter" stroke-miterlimit="10" stroke-opacity="1" fill="none" fill-rule="nonzero" transform="matrix(1 0 0 1.00033 -128.599 -525.31)"/><text fill="#252525" fill-opacity="1" font-family="Arial,Arial_MSFontService,sans-serif" font-style="normal" font-variant="normal" font-weight="400" font-stretch="normal" font-size="12" text-anchor="start" direction="ltr" writing-mode="lr-tb" unicode-bidi="normal" text-decoration="none" transform="matrix(3.42984 0 0 3.43096 2193.41 2487)">–4</text><path d="M2340.87 2958.24 2340.87 2968.53" stroke="#252525" stroke-width="3.42984" stroke-linecap="butt" stroke-linejoin="miter" stroke-miterlimit="10" stroke-opacity="1" fill="none" fill-rule="nonzero" transform="matrix(1 0 0 1.00033 -128.599 -525.31)"/><text fill="#252525" fill-opacity="1" font-family="Arial,Arial_MSFontService,sans-serif" font-style="normal" font-variant="normal" font-weight="400" font-stretch="normal" font-size="12" text-anchor="start" direction="ltr" writing-mode="lr-tb" unicode-bidi="normal" text-decoration="none" transform="matrix(3.42984 0 0 3.43096 2382.05 2487)">–3</text><path d="M2529.51 2958.24 2529.51 2968.53" stroke="#252525" stroke-width="3.42984" stroke-linecap="butt" stroke-linejoin="miter" stroke-miterlimit="10" stroke-opacity="1" fill="none" fill-rule="nonzero" transform="matrix(1 0 0 1.00033 -128.599 -525.31)"/><text fill="#252525" fill-opacity="1" font-family="Arial,Arial_MSFontService,sans-serif" font-style="normal" font-variant="normal" font-weight="400" font-stretch="normal" font-size="12" text-anchor="start" direction="ltr" writing-mode="lr-tb" unicode-bidi="normal" text-decoration="none" transform="matrix(3.42984 0 0 3.43096 2570.69 2487)">–2</text><path d="M2718.15 2958.24 2718.15 2968.53" stroke="#252525" stroke-width="3.42984" stroke-linecap="butt" stroke-linejoin="miter" stroke-miterlimit="10" stroke-opacity="1" fill="none" fill-rule="nonzero" transform="matrix(1 0 0 1.00033 -128.599 -525.31)"/><path d="M3085.14 3524.16 3095.43 3524.16" stroke="#252525" stroke-width="3.42984" stroke-linecap="butt" stroke-linejoin="miter" stroke-miterlimit="10" stroke-opacity="1" fill="none" fill-rule="nonzero" transform="matrix(1 0 0 1.00033 -128.599 -525.31)"/><path d="M3085.14 3335.52 3095.43 3335.52" stroke="#252525" stroke-width="3.42984" stroke-linecap="butt" stroke-linejoin="miter" stroke-miterlimit="10" stroke-opacity="1" fill="none" fill-rule="nonzero" transform="matrix(1 0 0 1.00033 -128.599 -525.31)"/><path d="M3085.14 3146.88 3095.43 3146.88" stroke="#252525" stroke-width="3.42984" stroke-linecap="butt" stroke-linejoin="miter" stroke-miterlimit="10" stroke-opacity="1" fill="none" fill-rule="nonzero" transform="matrix(1 0 0 1.00033 -128.599 -525.31)"/><path d="M3085.14 2769.6 3095.43 2769.6" stroke="#252525" stroke-width="3.42984" stroke-linecap="butt" stroke-linejoin="miter" stroke-miterlimit="10" stroke-opacity="1" fill="none" fill-rule="nonzero" transform="matrix(1 0 0 1.00033 -128.599 -525.31)"/><path d="M3085.14 2580.96 3095.43 2580.96" stroke="#252525" stroke-width="3.42984" stroke-linecap="butt" stroke-linejoin="miter" stroke-miterlimit="10" stroke-opacity="1" fill="none" fill-rule="nonzero" transform="matrix(1 0 0 1.00033 -128.599 -525.31)"/><path d="M3085.14 2392.32 3095.43 2392.32" stroke="#252525" stroke-width="3.42984" stroke-linecap="butt" stroke-linejoin="miter" stroke-miterlimit="10" stroke-opacity="1" fill="none" fill-rule="nonzero" transform="matrix(1 0 0 1.00033 -128.599 -525.31)"/><path d="M3085.14 2203.67 3095.43 2203.67" stroke="#252525" stroke-width="3.42984" stroke-linecap="butt" stroke-linejoin="miter" stroke-miterlimit="10" stroke-opacity="1" fill="none" fill-rule="nonzero" transform="matrix(1 0 0 1.00033 -128.599 -525.31)"/><path d="M3085.14 2015.03 3095.43 2015.03" stroke="#252525" stroke-width="3.42984" stroke-linecap="butt" stroke-linejoin="miter" stroke-miterlimit="10" stroke-opacity="1" fill="none" fill-rule="nonzero" transform="matrix(1 0 0 1.00033 -128.599 -525.31)"/><path d="M3085.14 1826.39 3095.43 1826.39" stroke="#252525" stroke-width="3.42984" stroke-linecap="butt" stroke-linejoin="miter" stroke-miterlimit="10" stroke-opacity="1" fill="none" fill-rule="nonzero" transform="matrix(1 0 0 1.00033 -128.599 -525.31)"/><path d="M3085.14 1637.75 3095.43 1637.75" stroke="#252525" stroke-width="3.42984" stroke-linecap="butt" stroke-linejoin="miter" stroke-miterlimit="10" stroke-opacity="1" fill="none" fill-rule="nonzero" transform="matrix(1 0 0 1.00033 -128.599 -525.31)"/><path d="M3085.14 1449.11 3095.43 1449.11" stroke="#252525" stroke-width="3.42984" stroke-linecap="butt" stroke-linejoin="miter" stroke-miterlimit="10" stroke-opacity="1" fill="none" fill-rule="nonzero" transform="matrix(1 0 0 1.00033 -128.599 -525.31)"/><path d="M3085.14 1260.47 3095.43 1260.47" stroke="#252525" stroke-width="3.42984" stroke-linecap="butt" stroke-linejoin="miter" stroke-miterlimit="10" stroke-opacity="1" fill="none" fill-rule="nonzero" transform="matrix(1 0 0 1.00033 -128.599 -525.31)"/><path d="M3085.14 1071.83 3095.43 1071.83" stroke="#252525" stroke-width="3.42984" stroke-linecap="butt" stroke-linejoin="miter" stroke-miterlimit="10" stroke-opacity="1" fill="none" fill-rule="nonzero" transform="matrix(1 0 0 1.00033 -128.599 -525.31)"/><path d="M3085.14 883.185 3095.43 883.185" stroke="#252525" stroke-width="3.42984" stroke-linecap="butt" stroke-linejoin="miter" stroke-miterlimit="10" stroke-opacity="1" fill="none" fill-rule="nonzero" transform="matrix(1 0 0 1.00033 -128.599 -525.31)"/><path d="M3085.14 694.543 3095.43 694.543" stroke="#252525" stroke-width="3.42984" stroke-linecap="butt" stroke-linejoin="miter" stroke-miterlimit="10" stroke-opacity="1" fill="none" fill-rule="nonzero" transform="matrix(1 0 0 1.00033 -128.599 -525.31)"/><path d="M3085.14 505.902 3095.43 505.902" stroke="#252525" stroke-width="3.42984" stroke-linecap="butt" stroke-linejoin="miter" stroke-miterlimit="10" stroke-opacity="1" fill="none" fill-rule="nonzero" transform="matrix(1 0 0 1.00033 -128.599 -525.31)"/><path d="M3085.14 317.261 3095.43 317.261" stroke="#252525" stroke-width="3.42984" stroke-linecap="butt" stroke-linejoin="miter" stroke-miterlimit="10" stroke-opacity="1" fill="none" fill-rule="nonzero" transform="matrix(1 0 0 1.00033 -128.599 -525.31)"/><path d="M3085.14 128.619 3095.43 128.619" stroke="#252525" stroke-width="3.42984" stroke-linecap="butt" stroke-linejoin="miter" stroke-miterlimit="10" stroke-opacity="1" fill="none" fill-rule="nonzero" transform="matrix(1 0 0 1.00033 -128.599 -525.31)"/><text fill="#252525" fill-opacity="1" font-family="Arial,Arial_MSFontService,sans-serif" font-style="normal" font-variant="normal" font-weight="400" font-stretch="normal" font-size="12" text-anchor="start" direction="ltr" writing-mode="lr-tb" unicode-bidi="normal" text-decoration="none" transform="matrix(3.42984 0 0 3.43096 2697.59 3015)">–3</text><text fill="#252525" fill-opacity="1" font-family="Arial,Arial_MSFontService,sans-serif" font-style="normal" font-variant="normal" font-weight="400" font-stretch="normal" font-size="12" text-anchor="start" direction="ltr" writing-mode="lr-tb" unicode-bidi="normal" text-decoration="none" transform="matrix(3.42984 0 0 3.43096 2697.59 2827)">–2</text><text fill="#252525" fill-opacity="1" font-family="Arial,Arial_MSFontService,sans-serif" font-style="normal" font-variant="normal" font-weight="400" font-stretch="normal" font-size="12" text-anchor="start" direction="ltr" writing-mode="lr-tb" unicode-bidi="normal" text-decoration="none" transform="matrix(3.42984 0 0 3.43096 2697.59 2638)">–1</text><text fill="#252525" fill-opacity="1" font-family="Arial,Arial_MSFontService,sans-serif" font-style="normal" font-variant="normal" font-weight="400" font-stretch="normal" font-size="12" text-anchor="start" direction="ltr" writing-mode="lr-tb" unicode-bidi="normal" text-decoration="none" transform="matrix(3.42984 0 0 3.43096 2718.17 2261)">1</text><text fill="#252525" fill-opacity="1" font-family="Arial,Arial_MSFontService,sans-serif" font-style="normal" font-variant="normal" font-weight="400" font-stretch="normal" font-size="12" text-anchor="start" direction="ltr" writing-mode="lr-tb" unicode-bidi="normal" text-decoration="none" transform="matrix(3.42984 0 0 3.43096 2718.17 2072)">2</text><text fill="#252525" fill-opacity="1" font-family="Arial,Arial_MSFontService,sans-serif" font-style="normal" font-variant="normal" font-weight="400" font-stretch="normal" font-size="12" text-anchor="start" direction="ltr" writing-mode="lr-tb" unicode-bidi="normal" text-decoration="none" transform="matrix(3.42984 0 0 3.43096 2718.17 1883)">3</text><text fill="#252525" fill-opacity="1" font-family="Arial,Arial_MSFontService,sans-serif" font-style="normal" font-variant="normal" font-weight="400" font-stretch="normal" font-size="12" text-anchor="start" direction="ltr" writing-mode="lr-tb" unicode-bidi="normal" text-decoration="none" transform="matrix(3.42984 0 0 3.43096 2718.17 1695)">4</text><text fill="#252525" fill-opacity="1" font-family="Arial,Arial_MSFontService,sans-serif" font-style="normal" font-variant="normal" font-weight="400" font-stretch="normal" font-size="12" text-anchor="start" direction="ltr" writing-mode="lr-tb" unicode-bidi="normal" text-decoration="none" transform="matrix(3.42984 0 0 3.43096 2718.17 1506)">5</text><text fill="#252525" fill-opacity="1" font-family="Arial,Arial_MSFontService,sans-serif" font-style="normal" font-variant="normal" font-weight="400" font-stretch="normal" font-size="12" text-anchor="start" direction="ltr" writing-mode="lr-tb" unicode-bidi="normal" text-decoration="none" transform="matrix(3.42984 0 0 3.43096 2718.17 1317)">6</text><text fill="#252525" fill-opacity="1" font-family="Arial,Arial_MSFontService,sans-serif" font-style="normal" font-variant="normal" font-weight="400" font-stretch="normal" font-size="12" text-anchor="start" direction="ltr" writing-mode="lr-tb" unicode-bidi="normal" text-decoration="none" transform="matrix(3.42984 0 0 3.43096 2718.17 1128)">7</text><text fill="#252525" fill-opacity="1" font-family="Arial,Arial_MSFontService,sans-serif" font-style="normal" font-variant="normal" font-weight="400" font-stretch="normal" font-size="12" text-anchor="start" direction="ltr" writing-mode="lr-tb" unicode-bidi="normal" text-decoration="none" transform="matrix(3.42984 0 0 3.43096 2718.17 940)">8</text><text fill="#252525" fill-opacity="1" font-family="Arial,Arial_MSFontService,sans-serif" font-style="normal" font-variant="normal" font-weight="400" font-stretch="normal" font-size="12" text-anchor="start" direction="ltr" writing-mode="lr-tb" unicode-bidi="normal" text-decoration="none" transform="matrix(3.42984 0 0 3.43096 2718.17 751)">9</text><text fill="#252525" fill-opacity="1" font-family="Arial,Arial_MSFontService,sans-serif" font-style="normal" font-variant="normal" font-weight="400" font-stretch="normal" font-size="12" text-anchor="start" direction="ltr" writing-mode="lr-tb" unicode-bidi="normal" text-decoration="none" transform="matrix(3.42984 0 0 3.43096 2697.59 562)">10</text><text fill="#252525" fill-opacity="1" font-family="Arial,Arial_MSFontService,sans-serif" font-style="normal" font-variant="normal" font-weight="400" font-stretch="normal" font-size="12" text-anchor="start" direction="ltr" writing-mode="lr-tb" unicode-bidi="normal" text-decoration="none" transform="matrix(3.42984 0 0 3.43096 2701.02 374)">11</text><text fill="#252525" fill-opacity="1" font-family="Arial,Arial_MSFontService,sans-serif" font-style="normal" font-variant="normal" font-weight="400" font-stretch="normal" font-size="12" text-anchor="start" direction="ltr" writing-mode="lr-tb" unicode-bidi="normal" text-decoration="none" transform="matrix(3.42984 0 0 3.43096 2697.59 185)">12</text><text fill="#252525" fill-opacity="1" font-family="Arial,Arial_MSFontService,sans-serif" font-style="normal" font-variant="normal" font-weight="400" font-stretch="normal" font-size="12" text-anchor="start" direction="ltr" writing-mode="lr-tb" unicode-bidi="normal" text-decoration="none" transform="matrix(3.42984 0 0 3.43096 2697.59 -4)">13</text><text fill="#252525" fill-opacity="1" font-family="Arial,Arial_MSFontService,sans-serif" font-style="normal" font-variant="normal" font-weight="400" font-stretch="normal" font-size="12" text-anchor="start" direction="ltr" writing-mode="lr-tb" unicode-bidi="normal" text-decoration="none" transform="matrix(3.42984 0 0 3.43096 2697.59 -193)">14</text><text fill="#252525" fill-opacity="1" font-family="Arial,Arial_MSFontService,sans-serif" font-style="normal" font-variant="normal" font-weight="400" font-stretch="normal" font-size="12" text-anchor="start" direction="ltr" writing-mode="lr-tb" unicode-bidi="normal" text-decoration="none" transform="matrix(3.42984 0 0 3.43096 2697.59 -381)">15</text><path d="M744.88 1653.3C887.056 1652.44 1001.27 1480.47 999.994 1269.2 998.714 1057.92 882.419 887.352 740.243 888.214 598.067 889.076 483.848 1061.04 485.128 1272.32 486.409 1483.59 602.703 1654.16 744.88 1653.3Z" stroke="#0000FF" stroke-width="8.57461" stroke-linecap="round" stroke-linejoin="round" stroke-miterlimit="10" stroke-opacity="1" fill="none" fill-rule="nonzero" transform="matrix(1 0 0 1.00033 -128.599 -525.31)"/><path d="M1708.67 1649.87C1850.84 1649.01 1965.06 1477.04 1963.78 1265.77 1962.5 1054.49 1846.21 883.923 1704.03 884.784 1561.85 885.646 1447.63 1057.61 1448.91 1268.89 1450.19 1480.16 1566.49 1650.73 1708.67 1649.87Z" stroke="#0000FF" stroke-width="8.57461" stroke-linecap="round" stroke-linejoin="round" stroke-miterlimit="10" stroke-opacity="1" fill="none" fill-rule="nonzero" transform="matrix(1 0 0 1.00033 -128.599 -525.31)"/><path d="M1633.94 961.837C1634.2 962.467 1634.32 963.137 1634.32 963.807L1634.32 963.807C1634.32 963.11 1634.19 962.444 1633.94 961.837ZM1634.32 963.818C1634.32 964.485 1634.18 965.15 1633.92 965.775 1634.17 965.173 1634.32 964.512 1634.32 963.818ZM795.723 955.212C792.892 955.212 790.591 957.501 790.579 960.335 790.567 963.177 792.861 965.489 795.703 965.501L1603.43 968.825 1603.47 958.536 795.745 955.212C795.738 955.212 795.731 955.212 795.723 955.212Z" fill="#000000" fill-rule="nonzero" fill-opacity="1" transform="matrix(1 0 0 1.00033 -128.599 -525.31)"/><path d="M1608.68 937.978C1608.02 937.978 1607.36 938.103 1606.73 938.361 1604.81 939.15 1603.55 941.021 1603.54 943.101L1603.37 984.259C1603.36 986.34 1604.6 988.221 1606.52 989.025 1607.17 989.294 1607.84 989.425 1608.51 989.425 1609.84 989.425 1611.15 988.908 1612.14 987.933L1632.8 967.439C1634.82 965.438 1634.83 962.181 1632.83 960.163L1612.33 939.5C1611.35 938.506 1610.03 937.978 1608.68 937.978Z" fill="#000000" fill-rule="nonzero" fill-opacity="1" transform="matrix(1 0 0 1.00033 -128.599 -525.31)"/><path d="M25.2094-54.8775 25.2094-6.77394C25.2094-5.05902 25.5523-3.9729 26.2383-3.51559 27.2101-2.94395 29.5252-2.65813 33.1837-2.65813L35.9276-2.65813 35.9276 0C33.9269-0.171492 29.2966-0.257238 22.0367-0.257238 14.7769-0.257238 10.1466-0.171492 8.14588 0L8.14588-2.65813 10.8898-2.65813C15.2914-2.65813 17.8066-3.17261 18.4354-4.20156L18.5212-4.28731C18.7498-4.74462 18.8641-5.5735 18.8641-6.77394L18.8641-51.1904C15.8916-49.7042 12.1474-48.961 7.6314-48.961L7.6314-51.6192C14.4911-51.6192 19.693-53.4484 23.2372-57.1069 24.3233-57.1069 24.9521-56.9068 25.1236-56.5067L25.1236-56.4209C25.1808-56.2494 25.2094-55.735 25.2094-54.8775Z" fill="#000000" fill-rule="nonzero" fill-opacity="1" transform="matrix(1 0 0 1.00033 588.238 473.444)"/><path d="M38.5-14.9198 38.5-14.9198 36.0991 0 4.28731 0C4.28731-1.4291 4.4588-2.34373 4.80178-2.74388L5.23051-3.17261 21.6938-21.5223C27.696-28.2676 30.6971-34.5843 30.6971-40.4722 30.6971-45.5598 29.1537-49.4183 26.0668-52.0479L25.9811-52.1336 25.8953-52.1336C24.0661-53.6771 21.8367-54.4488 19.2071-54.4488 15.0913-54.4488 11.8044-52.6767 9.34632-49.1325 8.66036-48.1036 8.08872-46.9603 7.6314-45.7027 7.8029-45.7598 8.17446-45.7884 8.7461-45.7884 11.0327-45.7884 12.4903-44.7595 13.1192-42.7016L13.1192-42.6158C13.2335-42.2157 13.2906-41.7869 13.2906-41.3296 13.2906-39.0431 12.2045-37.5854 10.0323-36.9566 9.57498-36.8422 9.17483-36.7851 8.83185-36.7851 6.71678-36.7851 5.31626-37.6711 4.63029-39.4432 4.40163-40.072 4.28731-40.7866 4.28731-41.5869 4.28731-45.9885 5.97365-49.7613 9.34632-52.9053 12.376-55.7064 16.0345-57.1069 20.3218-57.1069 26.6099-57.1069 31.4974-54.9918 34.9844-50.7617 36.9852-48.3036 38.1284-45.3883 38.4143-42.0156 38.4714-41.5011 38.5-40.9866 38.5-40.4722 38.5-36.2992 36.928-32.3263 33.784-28.5535 32.1262-26.6099 29.5538-24.0375 26.0668-20.8363L20.8363-16.206 19.9788-15.4343 10.8898-6.60245 26.3241-6.60245C31.3545-6.60245 34.0698-6.83111 34.4699-7.28842 35.0416-8.08872 35.6704-10.6325 36.3563-14.9198L38.5-14.9198Z" fill="#000000" fill-rule="nonzero" fill-opacity="1" transform="matrix(1 0 0 1.00033 591.668 651.854)"/><path d="M24.8664-30.1826 24.8664-30.1826C30.5828-29.0393 34.6986-26.2383 37.2138-21.7795 38.5286-19.5501 39.186-17.1778 39.186-14.6626 39.186-9.80364 37.1852-5.71641 33.1837-2.40089 29.6967 0.457313 25.6095 1.88641 20.922 1.88641 15.2628 1.88641 10.7183 0.200074 7.28842-3.17261 4.83036-5.5735 3.60134-8.37454 3.60134-11.5757 3.60134-14.2624 4.80178-15.863 7.20267-16.3775 7.60282-16.4918 8.00297-16.549 8.40312-16.549 10.5754-16.549 12.033-15.6344 12.7762-13.8051 13.0048-13.062 13.1477-12.376 13.2049-11.7472 13.2049-9.46065 12.1759-7.97439 10.118-7.28842 9.31774-7.0026 8.46028-6.91685 7.54566-7.03118 9.66073-3.48701 13.3192-1.37194 18.5212-0.685969 19.2643-0.571641 19.9788-0.514477 20.6648-0.514477 24.3233-0.514477 27.01-2.31514 28.7249-5.91648 29.8111-8.20304 30.3541-11.1184 30.3541-14.6626 30.3541-22.2654 28.0676-26.8385 23.4944-28.382 22.4655-28.7249 21.3508-28.8964 20.1503-28.8964L16.3775-28.8964C15.1199-28.8964 14.4339-29.2108 14.3196-29.8396 14.3196-30.4113 14.7483-30.7543 15.6058-30.8686 16.4633-30.8686 17.578-30.9543 18.9499-31.1258 21.8653-31.2402 24.1518-32.3549 25.8096-34.4699L25.8096-34.5557 25.8953-34.6414 25.9811-34.7272 26.0668-34.7272 26.5813-35.5846C28.1819-38.2713 28.9822-41.5297 28.9822-45.3597 28.9822-50.6759 26.9243-53.7914 22.8085-54.706 22.1225-54.8775 21.4365-54.9632 20.7506-54.9632 16.7491-54.9632 13.4907-53.82 10.9755-51.5334 10.3467-50.9618 9.80364-50.333 9.34632-49.647 12.8905-49.647 14.6626-48.2179 14.6626-45.3597 14.6626-43.3018 13.7765-41.9298 12.0045-41.2439 11.49-41.0724 10.9183-40.9866 10.2895-40.9866 8.06013-40.9866 6.65961-41.987 6.08797-43.9878L6.08797-44.0735C5.97365-44.5308 5.91648-44.9881 5.91648-45.4454 5.91648-49.2754 7.8029-52.3337 11.5757-54.6203 14.3196-56.278 17.4922-57.1069 21.0935-57.1069 26.2955-57.1069 30.497-55.5635 33.6982-52.4766L33.8697-52.3051C35.8705-50.2472 36.8708-47.9035 36.8708-45.2739 36.8708-40.5293 34.8415-36.5564 30.7829-33.3552 29.0108-31.9833 27.0386-30.9258 24.8664-30.1826Z" fill="#000000" fill-rule="nonzero" fill-opacity="1" transform="matrix(1 0 0 1.00033 601.958 830.264)"/><path d="M2.40089-14.1481 2.40089-16.8062 28.7249-57.0212C29.1823-57.7071 29.7539-58.0501 30.4399-58.0501 31.2402-58.0501 31.6975-57.7357 31.8118-57.1069L31.8118-55.8207 31.8118-16.8062 40.3864-16.8062 40.3864-14.1481 31.8118-14.1481 31.8118-6.6882C31.8118-4.91611 32.1548-3.82999 32.8408-3.42984 33.6411-2.91537 35.4703-2.65813 38.3285-2.65813L40.1292-2.65813 40.1292 0C37.7854-0.171492 33.8983-0.257238 28.4677-0.257238 23.0943-0.257238 19.2357-0.171492 16.892 0L16.892-2.65813 18.6926-2.65813C22.2368-2.65813 24.2947-3.14402 24.8664-4.11581 25.095-4.51596 25.2094-5.37342 25.2094-6.6882L25.2094-14.1481 2.40089-14.1481M25.7238-16.8062 25.7238-48.7895 4.80178-16.8062 25.7238-16.8062Z" fill="#000000" fill-rule="nonzero" fill-opacity="1" transform="matrix(1 0 0 1.00033 605.388 1015.54)"/><path d="M25.2094-54.8775 25.2094-6.77394C25.2094-5.05902 25.5523-3.9729 26.2383-3.51559 27.2101-2.94395 29.5252-2.65813 33.1837-2.65813L35.9276-2.65813 35.9276 0C33.9269-0.171492 29.2966-0.257238 22.0367-0.257238 14.7769-0.257238 10.1466-0.171492 8.14588 0L8.14588-2.65813 10.8898-2.65813C15.2914-2.65813 17.8066-3.17261 18.4354-4.20156L18.5212-4.28731C18.7498-4.74462 18.8641-5.5735 18.8641-6.77394L18.8641-51.1904C15.8916-49.7042 12.1474-48.961 7.6314-48.961L7.6314-51.6192C14.4911-51.6192 19.693-53.4484 23.2372-57.1069 24.3233-57.1069 24.9521-56.9068 25.1236-56.5067L25.1236-56.4209C25.1808-56.2494 25.2094-55.735 25.2094-54.8775Z" fill="#000000" fill-rule="nonzero" fill-opacity="1" transform="matrix(1 0 0 1.00033 1538.31 473.444)"/><path d="M39.4432-27.4388C39.4432-19.0928 38.3857-12.6333 36.2706-8.06013 32.8979-1.65776 27.9246 1.65776 21.3508 1.88641 16.1488 1.88641 11.9759-0.171492 8.83185-4.28731 8.20304-5.03044 7.65999-5.85932 7.20267-6.77394 4.63029-11.5186 3.3441-18.4068 3.3441-27.4388 3.3441-35.8419 4.40163-42.33 6.5167-46.9031 9.37491-53.3055 14.0052-56.7068 20.4076-57.1069L21.4365-57.1069C26.5241-57.1069 30.6685-55.0776 33.8697-51.0189L33.8697-50.9332C34.67-49.9042 35.3846-48.7609 36.0134-47.5033 38.2999-42.6444 39.4432-35.9562 39.4432-27.4388M21.3508 0C24.9521 0 27.7246-1.7435 29.6681-5.23051 30.4684-6.77394 31.0401-8.60319 31.3831-10.7183 32.0119-14.3768 32.3263-20.2932 32.3263-28.4677 32.3263-36.4135 32.0405-41.987 31.4688-45.1882 30.4399-50.6188 27.8103-53.8771 23.5802-54.9632 22.837-55.1347 22.0939-55.2205 21.3508-55.2205 17.3493-55.2205 14.4339-53.2197 12.6047-49.2183 11.9759-47.8463 11.49-46.1886 11.147-44.245 10.6897-41.1581 10.461-35.899 10.461-28.4677 10.461-19.8359 10.7754-13.8051 11.4042-10.3753 12.4332-4.88753 14.9484-1.54343 18.9499-0.342984 19.7502-0.114328 20.5505 0 21.3508 0Z" fill="#000000" fill-rule="nonzero" fill-opacity="1" transform="matrix(1 0 0 1.00033 1581.18 473.444)"/><path d="M38.5-14.9198 38.5-14.9198 36.0991 0 4.28731 0C4.28731-1.4291 4.4588-2.34373 4.80178-2.74388L5.23051-3.17261 21.6938-21.5223C27.696-28.2676 30.6971-34.5843 30.6971-40.4722 30.6971-45.5598 29.1537-49.4183 26.0668-52.0479L25.9811-52.1336 25.8953-52.1336C24.0661-53.6771 21.8367-54.4488 19.2071-54.4488 15.0913-54.4488 11.8044-52.6767 9.34632-49.1325 8.66036-48.1036 8.08872-46.9603 7.6314-45.7027 7.8029-45.7598 8.17446-45.7884 8.7461-45.7884 11.0327-45.7884 12.4903-44.7595 13.1192-42.7016L13.1192-42.6158C13.2335-42.2157 13.2906-41.7869 13.2906-41.3296 13.2906-39.0431 12.2045-37.5854 10.0323-36.9566 9.57498-36.8422 9.17483-36.7851 8.83185-36.7851 6.71678-36.7851 5.31626-37.6711 4.63029-39.4432 4.40163-40.072 4.28731-40.7866 4.28731-41.5869 4.28731-45.9885 5.97365-49.7613 9.34632-52.9053 12.376-55.7064 16.0345-57.1069 20.3218-57.1069 26.6099-57.1069 31.4974-54.9918 34.9844-50.7617 36.9852-48.3036 38.1284-45.3883 38.4143-42.0156 38.4714-41.5011 38.5-40.9866 38.5-40.4722 38.5-36.2992 36.928-32.3263 33.784-28.5535 32.1262-26.6099 29.5538-24.0375 26.0668-20.8363L20.8363-16.206 19.9788-15.4343 10.8898-6.60245 26.3241-6.60245C31.3545-6.60245 34.0698-6.83111 34.4699-7.28842 35.0416-8.08872 35.6704-10.6325 36.3563-14.9198L38.5-14.9198Z" fill="#000000" fill-rule="nonzero" fill-opacity="1" transform="matrix(1 0 0 1.00033 1531.45 658.716)"/><path d="M39.4432-27.4388C39.4432-19.0928 38.3857-12.6333 36.2706-8.06013 32.8979-1.65776 27.9246 1.65776 21.3508 1.88641 16.1488 1.88641 11.9759-0.171492 8.83185-4.28731 8.20304-5.03044 7.65999-5.85932 7.20267-6.77394 4.63029-11.5186 3.3441-18.4068 3.3441-27.4388 3.3441-35.8419 4.40163-42.33 6.5167-46.9031 9.37491-53.3055 14.0052-56.7068 20.4076-57.1069L21.4365-57.1069C26.5241-57.1069 30.6685-55.0776 33.8697-51.0189L33.8697-50.9332C34.67-49.9042 35.3846-48.7609 36.0134-47.5033 38.2999-42.6444 39.4432-35.9562 39.4432-27.4388M21.3508 0C24.9521 0 27.7246-1.7435 29.6681-5.23051 30.4684-6.77394 31.0401-8.60319 31.3831-10.7183 32.0119-14.3768 32.3263-20.2932 32.3263-28.4677 32.3263-36.4135 32.0405-41.987 31.4688-45.1882 30.4399-50.6188 27.8103-53.8771 23.5802-54.9632 22.837-55.1347 22.0939-55.2205 21.3508-55.2205 17.3493-55.2205 14.4339-53.2197 12.6047-49.2183 11.9759-47.8463 11.49-46.1886 11.147-44.245 10.6897-41.1581 10.461-35.899 10.461-28.4677 10.461-19.8359 10.7754-13.8051 11.4042-10.3753 12.4332-4.88753 14.9484-1.54343 18.9499-0.342984 19.7502-0.114328 20.5505 0 21.3508 0Z" fill="#000000" fill-rule="nonzero" fill-opacity="1" transform="matrix(1 0 0 1.00033 1574.32 658.716)"/><path d="M24.8664-30.1826 24.8664-30.1826C30.5828-29.0393 34.6986-26.2383 37.2138-21.7795 38.5286-19.5501 39.186-17.1778 39.186-14.6626 39.186-9.80364 37.1852-5.71641 33.1837-2.40089 29.6967 0.457313 25.6095 1.88641 20.922 1.88641 15.2628 1.88641 10.7183 0.200074 7.28842-3.17261 4.83036-5.5735 3.60134-8.37454 3.60134-11.5757 3.60134-14.2624 4.80178-15.863 7.20267-16.3775 7.60282-16.4918 8.00297-16.549 8.40312-16.549 10.5754-16.549 12.033-15.6344 12.7762-13.8051 13.0048-13.062 13.1477-12.376 13.2049-11.7472 13.2049-9.46065 12.1759-7.97439 10.118-7.28842 9.31774-7.0026 8.46028-6.91685 7.54566-7.03118 9.66073-3.48701 13.3192-1.37194 18.5212-0.685969 19.2643-0.571641 19.9788-0.514477 20.6648-0.514477 24.3233-0.514477 27.01-2.31514 28.7249-5.91648 29.8111-8.20304 30.3541-11.1184 30.3541-14.6626 30.3541-22.2654 28.0676-26.8385 23.4944-28.382 22.4655-28.7249 21.3508-28.8964 20.1503-28.8964L16.3775-28.8964C15.1199-28.8964 14.4339-29.2108 14.3196-29.8396 14.3196-30.4113 14.7483-30.7543 15.6058-30.8686 16.4633-30.8686 17.578-30.9543 18.9499-31.1258 21.8653-31.2402 24.1518-32.3549 25.8096-34.4699L25.8096-34.5557 25.8953-34.6414 25.9811-34.7272 26.0668-34.7272 26.5813-35.5846C28.1819-38.2713 28.9822-41.5297 28.9822-45.3597 28.9822-50.6759 26.9243-53.7914 22.8085-54.706 22.1225-54.8775 21.4365-54.9632 20.7506-54.9632 16.7491-54.9632 13.4907-53.82 10.9755-51.5334 10.3467-50.9618 9.80364-50.333 9.34632-49.647 12.8905-49.647 14.6626-48.2179 14.6626-45.3597 14.6626-43.3018 13.7765-41.9298 12.0045-41.2439 11.49-41.0724 10.9183-40.9866 10.2895-40.9866 8.06013-40.9866 6.65961-41.987 6.08797-43.9878L6.08797-44.0735C5.97365-44.5308 5.91648-44.9881 5.91648-45.4454 5.91648-49.2754 7.8029-52.3337 11.5757-54.6203 14.3196-56.278 17.4922-57.1069 21.0935-57.1069 26.2955-57.1069 30.497-55.5635 33.6982-52.4766L33.8697-52.3051C35.8705-50.2472 36.8708-47.9035 36.8708-45.2739 36.8708-40.5293 34.8415-36.5564 30.7829-33.3552 29.0108-31.9833 27.0386-30.9258 24.8664-30.1826Z" fill="#000000" fill-rule="nonzero" fill-opacity="1" transform="matrix(1 0 0 1.00033 1541.73 837.126)"/><path d="M39.4432-27.4388C39.4432-19.0928 38.3857-12.6333 36.2706-8.06013 32.8979-1.65776 27.9246 1.65776 21.3508 1.88641 16.1488 1.88641 11.9759-0.171492 8.83185-4.28731 8.20304-5.03044 7.65999-5.85932 7.20267-6.77394 4.63029-11.5186 3.3441-18.4068 3.3441-27.4388 3.3441-35.8419 4.40163-42.33 6.5167-46.9031 9.37491-53.3055 14.0052-56.7068 20.4076-57.1069L21.4365-57.1069C26.5241-57.1069 30.6685-55.0776 33.8697-51.0189L33.8697-50.9332C34.67-49.9042 35.3846-48.7609 36.0134-47.5033 38.2999-42.6444 39.4432-35.9562 39.4432-27.4388M21.3508 0C24.9521 0 27.7246-1.7435 29.6681-5.23051 30.4684-6.77394 31.0401-8.60319 31.3831-10.7183 32.0119-14.3768 32.3263-20.2932 32.3263-28.4677 32.3263-36.4135 32.0405-41.987 31.4688-45.1882 30.4399-50.6188 27.8103-53.8771 23.5802-54.9632 22.837-55.1347 22.0939-55.2205 21.3508-55.2205 17.3493-55.2205 14.4339-53.2197 12.6047-49.2183 11.9759-47.8463 11.49-46.1886 11.147-44.245 10.6897-41.1581 10.461-35.899 10.461-28.4677 10.461-19.8359 10.7754-13.8051 11.4042-10.3753 12.4332-4.88753 14.9484-1.54343 18.9499-0.342984 19.7502-0.114328 20.5505 0 21.3508 0Z" fill="#000000" fill-rule="nonzero" fill-opacity="1" transform="matrix(1 0 0 1.00033 1584.61 837.126)"/><path d="M2.40089-14.1481 2.40089-16.8062 28.7249-57.0212C29.1823-57.7071 29.7539-58.0501 30.4399-58.0501 31.2402-58.0501 31.6975-57.7357 31.8118-57.1069L31.8118-55.8207 31.8118-16.8062 40.3864-16.8062 40.3864-14.1481 31.8118-14.1481 31.8118-6.6882C31.8118-4.91611 32.1548-3.82999 32.8408-3.42984 33.6411-2.91537 35.4703-2.65813 38.3285-2.65813L40.1292-2.65813 40.1292 0C37.7854-0.171492 33.8983-0.257238 28.4677-0.257238 23.0943-0.257238 19.2357-0.171492 16.892 0L16.892-2.65813 18.6926-2.65813C22.2368-2.65813 24.2947-3.14402 24.8664-4.11581 25.095-4.51596 25.2094-5.37342 25.2094-6.6882L25.2094-14.1481 2.40089-14.1481M25.7238-16.8062 25.7238-48.7895 4.80178-16.8062 25.7238-16.8062Z" fill="#000000" fill-rule="nonzero" fill-opacity="1" transform="matrix(1 0 0 1.00033 1538.31 1018.97)"/><path d="M39.4432-27.4388C39.4432-19.0928 38.3857-12.6333 36.2706-8.06013 32.8979-1.65776 27.9246 1.65776 21.3508 1.88641 16.1488 1.88641 11.9759-0.171492 8.83185-4.28731 8.20304-5.03044 7.65999-5.85932 7.20267-6.77394 4.63029-11.5186 3.3441-18.4068 3.3441-27.4388 3.3441-35.8419 4.40163-42.33 6.5167-46.9031 9.37491-53.3055 14.0052-56.7068 20.4076-57.1069L21.4365-57.1069C26.5241-57.1069 30.6685-55.0776 33.8697-51.0189L33.8697-50.9332C34.67-49.9042 35.3846-48.7609 36.0134-47.5033 38.2999-42.6444 39.4432-35.9562 39.4432-27.4388M21.3508 0C24.9521 0 27.7246-1.7435 29.6681-5.23051 30.4684-6.77394 31.0401-8.60319 31.3831-10.7183 32.0119-14.3768 32.3263-20.2932 32.3263-28.4677 32.3263-36.4135 32.0405-41.987 31.4688-45.1882 30.4399-50.6188 27.8103-53.8771 23.5802-54.9632 22.837-55.1347 22.0939-55.2205 21.3508-55.2205 17.3493-55.2205 14.4339-53.2197 12.6047-49.2183 11.9759-47.8463 11.49-46.1886 11.147-44.245 10.6897-41.1581 10.461-35.899 10.461-28.4677 10.461-19.8359 10.7754-13.8051 11.4042-10.3753 12.4332-4.88753 14.9484-1.54343 18.9499-0.342984 19.7502-0.114328 20.5505 0 21.3508 0Z" fill="#000000" fill-rule="nonzero" fill-opacity="1" transform="matrix(1 0 0 1.00033 1581.18 1018.97)"/></g></g></g></g></g></g></svg>