<svg version="1.1" xmlns="http://www.w3.org/2000/svg" xmlns:xlink="http://www.w3.org/1999/xlink" width="456" height="243"><defs><clipPath id="xDXbfgRsUlnz"><path fill="none" stroke="none" d=" M 0 0 L 456 0 L 456 243 L 0 243 L 0 0 Z"/></clipPath></defs><g transform="scale(1,1)" clip-path="url(#xDXbfgRsUlnz)"><g transform="translate(-128,-248)"><rect fill="rgb(255,255,255)" stroke="none" x="0" y="0" width="844" height="1077" fill-opacity="1"/><path fill="none" stroke="rgb(37,37,37)" paint-order="fill stroke markers" d=" M 0.5 862.5 L 842.5 862.5" stroke-opacity="1" stroke-miterlimit="10"/><path fill="none" stroke="rgb(37,37,37)" paint-order="fill stroke markers" d=" M 843.5 862.5 L 839.5 858.5" stroke-opacity="1" stroke-miterlimit="10"/><path fill="none" stroke="rgb(37,37,37)" paint-order="fill stroke markers" d=" M 843.5 862.5 L 839.5 866.5" stroke-opacity="1" stroke-miterlimit="10"/><text fill="rgb(37,37,37)" stroke="none" font-family="geogebra-sans-serif, sans-serif" font-size="12px" font-style="normal" font-weight="normal" text-decoration="normal" x="14" y="878" text-anchor="start" dominant-baseline="alphabetic" fill-opacity="1">–16</text><path fill="none" stroke="rgb(37,37,37)" paint-order="fill stroke markers" d=" M 22.5 862.5 L 22.5 865.5" stroke-opacity="1" stroke-miterlimit="10"/><text fill="rgb(37,37,37)" stroke="none" font-family="geogebra-sans-serif, sans-serif" font-size="12px" font-style="normal" font-weight="normal" text-decoration="normal" x="69" y="878" text-anchor="start" dominant-baseline="alphabetic" fill-opacity="1">–15</text><path fill="none" stroke="rgb(37,37,37)" paint-order="fill stroke markers" d=" M 77.5 862.5 L 77.5 865.5" stroke-opacity="1" stroke-miterlimit="10"/><text fill="rgb(37,37,37)" stroke="none" font-family="geogebra-sans-serif, sans-serif" font-size="12px" font-style="normal" font-weight="normal" text-decoration="normal" x="124" y="878" text-anchor="start" dominant-baseline="alphabetic" fill-opacity="1">–14</text><path fill="none" stroke="rgb(37,37,37)" paint-order="fill stroke markers" d=" M 132.5 862.5 L 132.5 865.5" stroke-opacity="1" stroke-miterlimit="10"/><text fill="rgb(37,37,37)" stroke="none" font-family="geogebra-sans-serif, sans-serif" font-size="12px" font-style="normal" font-weight="normal" text-decoration="normal" x="179" y="878" text-anchor="start" dominant-baseline="alphabetic" fill-opacity="1">–13</text><path fill="none" stroke="rgb(37,37,37)" paint-order="fill stroke markers" d=" M 187.5 862.5 L 187.5 865.5" stroke-opacity="1" stroke-miterlimit="10"/><text fill="rgb(37,37,37)" stroke="none" font-family="geogebra-sans-serif, sans-serif" font-size="12px" font-style="normal" font-weight="normal" text-decoration="normal" x="234" y="878" text-anchor="start" dominant-baseline="alphabetic" fill-opacity="1">–12</text><path fill="none" stroke="rgb(37,37,37)" paint-order="fill stroke markers" d=" M 242.5 862.5 L 242.5 865.5" stroke-opacity="1" stroke-miterlimit="10"/><text fill="rgb(37,37,37)" stroke="none" font-family="geogebra-sans-serif, sans-serif" font-size="12px" font-style="normal" font-weight="normal" text-decoration="normal" x="289" y="878" text-anchor="start" dominant-baseline="alphabetic" fill-opacity="1">–11</text><path fill="none" stroke="rgb(37,37,37)" paint-order="fill stroke markers" d=" M 297.5 862.5 L 297.5 865.5" stroke-opacity="1" stroke-miterlimit="10"/><text fill="rgb(37,37,37)" stroke="none" font-family="geogebra-sans-serif, sans-serif" font-size="12px" font-style="normal" font-weight="normal" text-decoration="normal" x="344" y="878" text-anchor="start" dominant-baseline="alphabetic" fill-opacity="1">–10</text><path fill="none" stroke="rgb(37,37,37)" paint-order="fill stroke markers" d=" M 352.5 862.5 L 352.5 865.5" stroke-opacity="1" stroke-miterlimit="10"/><text fill="rgb(37,37,37)" stroke="none" font-family="geogebra-sans-serif, sans-serif" font-size="12px" font-style="normal" font-weight="normal" text-decoration="normal" x="402" y="878" text-anchor="start" dominant-baseline="alphabetic" fill-opacity="1">–9</text><path fill="none" stroke="rgb(37,37,37)" paint-order="fill stroke markers" d=" M 407.5 862.5 L 407.5 865.5" stroke-opacity="1" stroke-miterlimit="10"/><text fill="rgb(37,37,37)" stroke="none" font-family="geogebra-sans-serif, sans-serif" font-size="12px" font-style="normal" font-weight="normal" text-decoration="normal" x="457" y="878" text-anchor="start" dominant-baseline="alphabetic" fill-opacity="1">–8</text><path fill="none" stroke="rgb(37,37,37)" paint-order="fill stroke markers" d=" M 462.5 862.5 L 462.5 865.5" stroke-opacity="1" stroke-miterlimit="10"/><text fill="rgb(37,37,37)" stroke="none" font-family="geogebra-sans-serif, sans-serif" font-size="12px" font-style="normal" font-weight="normal" text-decoration="normal" x="512" y="878" text-anchor="start" dominant-baseline="alphabetic" fill-opacity="1">–7</text><path fill="none" stroke="rgb(37,37,37)" paint-order="fill stroke markers" d=" M 517.5 862.5 L 517.5 865.5" stroke-opacity="1" stroke-miterlimit="10"/><text fill="rgb(37,37,37)" stroke="none" font-family="geogebra-sans-serif, sans-serif" font-size="12px" font-style="normal" font-weight="normal" text-decoration="normal" x="567" y="878" text-anchor="start" dominant-baseline="alphabetic" fill-opacity="1">–6</text><path fill="none" stroke="rgb(37,37,37)" paint-order="fill stroke markers" d=" M 572.5 862.5 L 572.5 865.5" stroke-opacity="1" stroke-miterlimit="10"/><text fill="rgb(37,37,37)" stroke="none" font-family="geogebra-sans-serif, sans-serif" font-size="12px" font-style="normal" font-weight="normal" text-decoration="normal" x="622" y="878" text-anchor="start" dominant-baseline="alphabetic" fill-opacity="1">–5</text><path fill="none" stroke="rgb(37,37,37)" paint-order="fill stroke markers" d=" M 627.5 862.5 L 627.5 865.5" stroke-opacity="1" stroke-miterlimit="10"/><text fill="rgb(37,37,37)" stroke="none" font-family="geogebra-sans-serif, sans-serif" font-size="12px" font-style="normal" font-weight="normal" text-decoration="normal" x="677" y="878" text-anchor="start" dominant-baseline="alphabetic" fill-opacity="1">–4</text><path fill="none" stroke="rgb(37,37,37)" paint-order="fill stroke markers" d=" M 682.5 862.5 L 682.5 865.5" stroke-opacity="1" stroke-miterlimit="10"/><text fill="rgb(37,37,37)" stroke="none" font-family="geogebra-sans-serif, sans-serif" font-size="12px" font-style="normal" font-weight="normal" text-decoration="normal" x="732" y="878" text-anchor="start" dominant-baseline="alphabetic" fill-opacity="1">–3</text><path fill="none" stroke="rgb(37,37,37)" paint-order="fill stroke markers" d=" M 737.5 862.5 L 737.5 865.5" stroke-opacity="1" stroke-miterlimit="10"/><text fill="rgb(37,37,37)" stroke="none" font-family="geogebra-sans-serif, sans-serif" font-size="12px" font-style="normal" font-weight="normal" text-decoration="normal" x="787" y="878" text-anchor="start" dominant-baseline="alphabetic" fill-opacity="1">–2</text><path fill="none" stroke="rgb(37,37,37)" paint-order="fill stroke markers" d=" M 792.5 862.5 L 792.5 865.5" stroke-opacity="1" stroke-miterlimit="10"/><path fill="none" stroke="rgb(37,37,37)" paint-order="fill stroke markers" d=" M 899.5 1027.5 L 902.5 1027.5" stroke-opacity="1" stroke-miterlimit="10"/><path fill="none" stroke="rgb(37,37,37)" paint-order="fill stroke markers" d=" M 899.5 972.5 L 902.5 972.5" stroke-opacity="1" stroke-miterlimit="10"/><path fill="none" stroke="rgb(37,37,37)" paint-order="fill stroke markers" d=" M 899.5 917.5 L 902.5 917.5" stroke-opacity="1" stroke-miterlimit="10"/><path fill="none" stroke="rgb(37,37,37)" paint-order="fill stroke markers" d=" M 899.5 807.5 L 902.5 807.5" stroke-opacity="1" stroke-miterlimit="10"/><path fill="none" stroke="rgb(37,37,37)" paint-order="fill stroke markers" d=" M 899.5 752.5 L 902.5 752.5" stroke-opacity="1" stroke-miterlimit="10"/><path fill="none" stroke="rgb(37,37,37)" paint-order="fill stroke markers" d=" M 899.5 697.5 L 902.5 697.5" stroke-opacity="1" stroke-miterlimit="10"/><path fill="none" stroke="rgb(37,37,37)" paint-order="fill stroke markers" d=" M 899.5 642.5 L 902.5 642.5" stroke-opacity="1" stroke-miterlimit="10"/><path fill="none" stroke="rgb(37,37,37)" paint-order="fill stroke markers" d=" M 899.5 587.5 L 902.5 587.5" stroke-opacity="1" stroke-miterlimit="10"/><path fill="none" stroke="rgb(37,37,37)" paint-order="fill stroke markers" d=" M 899.5 532.5 L 902.5 532.5" stroke-opacity="1" stroke-miterlimit="10"/><path fill="none" stroke="rgb(37,37,37)" paint-order="fill stroke markers" d=" M 899.5 477.5 L 902.5 477.5" stroke-opacity="1" stroke-miterlimit="10"/><path fill="none" stroke="rgb(37,37,37)" paint-order="fill stroke markers" d=" M 899.5 422.5 L 902.5 422.5" stroke-opacity="1" stroke-miterlimit="10"/><path fill="none" stroke="rgb(37,37,37)" paint-order="fill stroke markers" d=" M 899.5 367.5 L 902.5 367.5" stroke-opacity="1" stroke-miterlimit="10"/><path fill="none" stroke="rgb(37,37,37)" paint-order="fill stroke markers" d=" M 899.5 312.5 L 902.5 312.5" stroke-opacity="1" stroke-miterlimit="10"/><path fill="none" stroke="rgb(37,37,37)" paint-order="fill stroke markers" d=" M 899.5 257.5 L 902.5 257.5" stroke-opacity="1" stroke-miterlimit="10"/><path fill="none" stroke="rgb(37,37,37)" paint-order="fill stroke markers" d=" M 899.5 202.5 L 902.5 202.5" stroke-opacity="1" stroke-miterlimit="10"/><path fill="none" stroke="rgb(37,37,37)" paint-order="fill stroke markers" d=" M 899.5 147.5 L 902.5 147.5" stroke-opacity="1" stroke-miterlimit="10"/><path fill="none" stroke="rgb(37,37,37)" paint-order="fill stroke markers" d=" M 899.5 92.5 L 902.5 92.5" stroke-opacity="1" stroke-miterlimit="10"/><path fill="none" stroke="rgb(37,37,37)" paint-order="fill stroke markers" d=" M 899.5 37.5 L 902.5 37.5" stroke-opacity="1" stroke-miterlimit="10"/><text fill="rgb(37,37,37)" stroke="none" font-family="geogebra-sans-serif, sans-serif" font-size="12px" font-style="normal" font-weight="normal" text-decoration="normal" x="824" y="1032" text-anchor="start" dominant-baseline="alphabetic" fill-opacity="1">–3</text><text fill="rgb(37,37,37)" stroke="none" font-family="geogebra-sans-serif, sans-serif" font-size="12px" font-style="normal" font-weight="normal" text-decoration="normal" x="824" y="977" text-anchor="start" dominant-baseline="alphabetic" fill-opacity="1">–2</text><text fill="rgb(37,37,37)" stroke="none" font-family="geogebra-sans-serif, sans-serif" font-size="12px" font-style="normal" font-weight="normal" text-decoration="normal" x="824" y="922" text-anchor="start" dominant-baseline="alphabetic" fill-opacity="1">–1</text><text fill="rgb(37,37,37)" stroke="none" font-family="geogebra-sans-serif, sans-serif" font-size="12px" font-style="normal" font-weight="normal" text-decoration="normal" x="830" y="812" text-anchor="start" dominant-baseline="alphabetic" fill-opacity="1">1</text><text fill="rgb(37,37,37)" stroke="none" font-family="geogebra-sans-serif, sans-serif" font-size="12px" font-style="normal" font-weight="normal" text-decoration="normal" x="830" y="757" text-anchor="start" dominant-baseline="alphabetic" fill-opacity="1">2</text><text fill="rgb(37,37,37)" stroke="none" font-family="geogebra-sans-serif, sans-serif" font-size="12px" font-style="normal" font-weight="normal" text-decoration="normal" x="830" y="702" text-anchor="start" dominant-baseline="alphabetic" fill-opacity="1">3</text><text fill="rgb(37,37,37)" stroke="none" font-family="geogebra-sans-serif, sans-serif" font-size="12px" font-style="normal" font-weight="normal" text-decoration="normal" x="830" y="647" text-anchor="start" dominant-baseline="alphabetic" fill-opacity="1">4</text><text fill="rgb(37,37,37)" stroke="none" font-family="geogebra-sans-serif, sans-serif" font-size="12px" font-style="normal" font-weight="normal" text-decoration="normal" x="830" y="592" text-anchor="start" dominant-baseline="alphabetic" fill-opacity="1">5</text><text fill="rgb(37,37,37)" stroke="none" font-family="geogebra-sans-serif, sans-serif" font-size="12px" font-style="normal" font-weight="normal" text-decoration="normal" x="830" y="537" text-anchor="start" dominant-baseline="alphabetic" fill-opacity="1">6</text><text fill="rgb(37,37,37)" stroke="none" font-family="geogebra-sans-serif, sans-serif" font-size="12px" font-style="normal" font-weight="normal" text-decoration="normal" x="830" y="482" text-anchor="start" dominant-baseline="alphabetic" fill-opacity="1">7</text><text fill="rgb(37,37,37)" stroke="none" font-family="geogebra-sans-serif, sans-serif" font-size="12px" font-style="normal" font-weight="normal" text-decoration="normal" x="830" y="427" text-anchor="start" dominant-baseline="alphabetic" fill-opacity="1">8</text><text fill="rgb(37,37,37)" stroke="none" font-family="geogebra-sans-serif, sans-serif" font-size="12px" font-style="normal" font-weight="normal" text-decoration="normal" x="830" y="372" text-anchor="start" dominant-baseline="alphabetic" fill-opacity="1">9</text><text fill="rgb(37,37,37)" stroke="none" font-family="geogebra-sans-serif, sans-serif" font-size="12px" font-style="normal" font-weight="normal" text-decoration="normal" x="824" y="317" text-anchor="start" dominant-baseline="alphabetic" fill-opacity="1">10</text><text fill="rgb(37,37,37)" stroke="none" font-family="geogebra-sans-serif, sans-serif" font-size="12px" font-style="normal" font-weight="normal" text-decoration="normal" x="825" y="262" text-anchor="start" dominant-baseline="alphabetic" fill-opacity="1">11</text><text fill="rgb(37,37,37)" stroke="none" font-family="geogebra-sans-serif, sans-serif" font-size="12px" font-style="normal" font-weight="normal" text-decoration="normal" x="824" y="207" text-anchor="start" dominant-baseline="alphabetic" fill-opacity="1">12</text><text fill="rgb(37,37,37)" stroke="none" font-family="geogebra-sans-serif, sans-serif" font-size="12px" font-style="normal" font-weight="normal" text-decoration="normal" x="824" y="152" text-anchor="start" dominant-baseline="alphabetic" fill-opacity="1">13</text><text fill="rgb(37,37,37)" stroke="none" font-family="geogebra-sans-serif, sans-serif" font-size="12px" font-style="normal" font-weight="normal" text-decoration="normal" x="824" y="97" text-anchor="start" dominant-baseline="alphabetic" fill-opacity="1">14</text><text fill="rgb(37,37,37)" stroke="none" font-family="geogebra-sans-serif, sans-serif" font-size="12px" font-style="normal" font-weight="normal" text-decoration="normal" x="824" y="42" text-anchor="start" dominant-baseline="alphabetic" fill-opacity="1">15</text><path fill="none" stroke="rgb(0,0,255)" paint-order="fill stroke markers" d=" M 217.17596171003848 482.0336821549731 C 258.6286473568694 481.7824537571106 291.9300502579498 431.6434624926367 291.55672691402617 370.04511074596996 C 291.18340357010254 308.44675899930326 257.27672393679313 258.71508944716373 215.8240382899622 258.9663178450263 C 174.37135264313127 259.21754624288883 141.0699497420509 309.35653750736276 141.4432730859745 370.95488925402947 C 141.8165964298981 432.5532410006962 175.72327606320755 482.2849105528357 217.17596171003848 482.0336821549731 Z" stroke-opacity="1" stroke-linecap="round" stroke-linejoin="round" stroke-miterlimit="10" stroke-width="2.5"/><path fill="none" stroke="rgb(0,0,255)" paint-order="fill stroke markers" d=" M 498.1759617100311 481.0336821549732 C 539.628647356862 480.78245375711333 572.9300502579456 430.6434624926417 572.5567269140261 369.0451107459751 C 572.1834035701064 307.44675899930843 538.2767239368003 257.71508944716686 496.82403828996934 257.9663178450267 C 455.37135264313844 258.21754624288656 422.06994974205486 308.3565375073582 422.4432730859744 369.9548892540248 C 422.81659642989405 431.5532410006914 456.72327606320016 481.284910552833 498.1759617100311 481.0336821549732 Z" stroke-opacity="1" stroke-linecap="round" stroke-linejoin="round" stroke-miterlimit="10" stroke-width="2.5"/><path fill="rgb(0,0,0)" stroke="none" paint-order="stroke fill markers" d=" M 475.3885539802757 338.4315852977771 L 475.3885539802756 338.4315852977771 C 475.4636633088641 338.6152741517167 475.50079129488876 338.81080151503255 475.499987298876 339.00617277980894 L 475.4999872988759 339.00617277980894 C 475.50082418462114 338.802809304209 475.4611520872103 338.6087315799425 475.3885540278145 338.4315852977771 Z M 475.49997149320853 339.0092508759865 L 475.4999714932085 339.0092508759865 C 475.49877522785516 339.2036215152452 475.460034034285 339.3977752976322 475.3837965199491 339.57990061253713 L 475.383796495963 339.57990061253713 C 475.45749658873336 339.404228086861 475.4987328772335 339.21152081865205 475.4999715407585 339.0092508759865 Z M 230.99986765235272 336.4999997256718 C 230.17433380819352 336.4999997256718 229.50341318429417 337.1675098098398 229.50001270115456 337.99382721276197 C 229.49660356489903 338.8222473228542 230.16540710266972 339.4965781625899 230.99382721276194 339.49998729884544 L 466.4938907185301 340.4691233626553 L 466.4938907185346 340.4691233626553 L 466.5062362930107 337.4691487649645 L 466.50623629302 337.4691487649645 L 231.00617278723806 336.50001270115456 C 231.00407008006798 336.50000404803865 231.00196836562236 336.4999997256718 230.99986765235272 336.4999997256718 Z" fill-opacity="1"/><path fill="rgb(0,0,0)" stroke="none" paint-order="stroke fill markers" d=" M 468.02441378443854 331.4753144551976 C 467.83320245823455 331.4753144551976 467.6403504049428 331.5118905458821 467.45642457733186 331.58718986782833 C 466.89496230876586 331.81705278958617 466.52725131410784 332.3624986383508 466.52475465472486 332.96918686842804 L 466.47537235682046 344.96908525919173 C 466.4728756974374 345.57577348926895 466.8360850476502 346.1242272406874 467.3956364558519 346.35870338745246 C 467.5828807302109 346.43716680531185 467.77977178172347 346.4753005271689 467.97502724920736 346.4753005271689 C 468.3632634380837 346.4753005271689 468.7450332877382 346.3245375110269 469.0316460266584 346.04027405685196 L 475.05628637099244 340.0650160104223 C 475.64447847187427 339.48164515626905 475.6483868645754 338.53190572988944 475.06501601042214 337.9437136290077 L 469.08975796399244 331.9190732846736 C 468.80248287658765 331.6294240229927 468.41690484729264 331.4753144551976 468.02441378443854 331.4753144551976 Z" fill-opacity="1"/><path fill="rgb(0,0,0)" stroke="none" paint-order="stroke fill markers" d=" M 477.38855406862666 385.4315855138491 C 477.46366333798005 385.6152743050483 477.5007912945738 385.810801591637 477.4999872988763 386.0061727798087 L 477.4999872988762 386.0061727798087 C 477.50082418428116 385.8028093868922 477.4611521194703 385.6087317377584 477.38855411636547 385.4315855138491 Z M 477.4999714532055 386.0092573735031 C 477.4987743644777 386.20362584209545 477.4600331847809 386.39777732703703 477.38379651994137 386.579900612556 L 477.3837964959553 386.579900612556 C 477.45749579957436 386.4042299679184 477.4987319941408 386.21152494554934 477.49997150095544 386.0092573735031 Z M 232.99986765235317 383.4999997256716 C 232.17433380819398 383.4999997256716 231.50341318429463 384.1675098098396 231.50001270115501 384.99382721276174 C 231.4966035648995 385.82224732285397 232.16540710267017 386.49657816258974 232.9938272127624 386.49998729884527 L 468.49389071854375 387.4691233626551 L 468.4938907185349 387.4691233626551 L 468.506236293011 384.4691487649642 L 468.50623629300605 384.4691487649642 L 233.0061727872385 383.5000127011544 C 233.00407008006843 383.5000040480385 233.00196836562282 383.4999997256716 232.99986765235317 383.4999997256716 Z" fill-opacity="1"/><path fill="rgb(0,0,0)" stroke="none" paint-order="stroke fill markers" d=" M 470.0244137844389 378.4753144551974 C 469.8332024582349 378.4753144551974 469.64035040494315 378.51189054588195 469.4564245773322 378.58718986782816 C 468.89496230876614 378.81705278958594 468.5272513141082 379.36249863835064 468.52475465472514 379.9691868684278 L 468.47537235682074 391.96908525919156 C 468.4728756974377 392.5757734892688 468.8360850476505 393.12422724068716 469.3956364558523 393.3587033874523 C 469.5828807302113 393.4371668053116 469.77977178172387 393.47530052716866 469.97502724920776 393.47530052716866 C 470.36326343808406 393.47530052716866 470.7450332877385 393.32453751102673 471.0316460266587 393.0402740568518 L 477.0562863709927 387.0650160104221 C 477.64447847187455 386.4816451562689 477.6483868645757 385.5319057298892 477.0650160104224 384.9437136290074 L 471.0897579639928 378.9190732846734 C 470.802482876588 378.6294240229925 470.416904847293 378.4753144551974 470.0244137844389 378.4753144551974 Z" fill-opacity="1"/><path fill="rgb(0,0,0)" stroke="none" paint-order="stroke fill markers" d=" M 477.38855406862336 444.43158551384096 C 477.46366333797897 444.6152743050425 477.50079129457384 444.81080159163406 477.4999872988763 445.0061727798086 L 477.4999872988762 445.0061727798086 C 477.5008241842812 444.802809386889 477.46115211946915 444.60873173775235 477.38855411636223 444.43158551384096 Z M 477.4999714532034 445.00925737384443 C 477.49877436443234 445.2036258423222 477.4600331847365 445.3977773271426 477.383796519942 445.5799006125545 L 477.38379649595583 445.5799006125545 C 477.45749579953304 445.4042299680162 477.4987319940944 445.21152494576563 477.49997150095334 445.00925737384443 Z M 232.99986765235317 442.49999972567156 C 232.17433380819398 442.49999972567156 231.50341318429463 443.1675098098396 231.50001270115501 443.99382721276174 C 231.4966035648995 444.82224732285397 232.16540710267017 445.4965781625897 232.9938272127624 445.4999872988452 L 468.49389071852954 446.46912336265495 L 468.4938907185349 446.46912336265495 L 468.506236293011 443.46914876496413 L 468.5062362930194 443.46914876496413 L 233.0061727872385 442.50001270115433 C 233.00407008006843 442.5000040480384 233.00196836562282 442.49999972567156 232.99986765235317 442.49999972567156 Z" fill-opacity="1"/><path fill="rgb(0,0,0)" stroke="none" paint-order="stroke fill markers" d=" M 470.0244137844389 437.4753144551973 C 469.8332024582349 437.4753144551973 469.64035040494315 437.51189054588184 469.4564245773322 437.58718986782804 C 468.89496230876614 437.81705278958583 468.5272513141081 438.36249863835053 468.52475465472514 438.96918686842776 L 468.47537235682074 450.96908525919144 C 468.4728756974377 451.57577348926867 468.8360850476505 452.12422724068705 469.39563645585224 452.35870338745224 C 469.58288073021123 452.43716680531156 469.7797717817238 452.4753005271686 469.9750272492077 452.4753005271686 C 470.36326343808406 452.4753005271686 470.7450332877385 452.3245375110267 471.0316460266587 452.0402740568517 L 477.0562863709927 446.06501601042197 C 477.64447847187455 445.48164515626877 477.6483868645757 444.53190572988916 477.0650160104224 443.94371362900733 L 471.0897579639927 437.9190732846733 C 470.802482876588 437.6294240229924 470.416904847293 437.4753144551973 470.0244137844389 437.4753144551973 Z" fill-opacity="1"/><path fill="rgb(0,0,0)" stroke="none" paint-order="stroke fill markers" d=" M 476.38855402442783 280.4315854057565 C 476.46366332436634 280.61527423067065 476.50079129567246 280.81080155827146 476.49998729884544 281.00617278723803 L 476.4999872988454 281.00617278723803 C 476.50082418541734 280.8028093502556 476.4611521042158 280.6087316609662 476.3885540720667 280.4315854057565 Z M 476.4999714732097 281.009254124843 C 476.49877479615435 281.20362367874577 476.46003360951613 281.3977763123847 476.3837965199337 281.57990061257385 L 476.38379649594754 281.57990061257385 C 476.4574961941376 281.40422902743785 476.4987324356746 281.21152288217354 476.4999715208597 281.009254124843 Z M 231.99986765235272 278.4999997256718 C 231.17433380819352 278.4999997256718 230.50341318429417 279.1675098098398 230.50001270115456 279.99382721276197 C 230.49660356489903 280.8222473228542 231.16540710266972 281.4965781625899 231.99382721276194 281.49998729884544 L 467.49389071854307 282.46912336265524 L 467.49389071853454 282.46912336265524 L 467.50623629301066 279.4691487649643 L 467.5062362930053 279.4691487649643 L 232.00617278723806 278.50001270115456 C 232.00407008006798 278.50000404803865 232.00196836562236 278.4999997256718 231.99986765235272 278.4999997256718 Z" fill-opacity="1"/><path fill="rgb(0,0,0)" stroke="none" paint-order="stroke fill markers" d=" M 469.02441378443854 273.4753144551975 C 468.83320245823455 273.4753144551975 468.6403504049428 273.51189054588207 468.4564245773318 273.5871898678282 C 467.89496230876586 273.81705278958606 467.52725131410784 274.36249863835076 467.5247546547248 274.969186868428 L 467.4753723568204 286.9690852591917 C 467.47287569743736 287.5757734892689 467.83608504765016 288.1242272406873 468.3956364558519 288.35870338745235 C 468.5828807302109 288.43716680531173 468.7797717817235 288.4753005271688 468.9750272492074 288.4753005271688 C 469.3632634380837 288.4753005271688 469.7450332877382 288.32453751102685 470.03164602665834 288.0402740568519 L 476.05628637099244 282.0650160104222 C 476.6444784718742 281.48164515626894 476.64838686457534 280.53190572988933 476.0650160104221 279.94371362900756 L 470.08975796399244 273.9190732846735 C 469.8024828765876 273.6294240229926 469.4169048472926 273.4753144551975 469.02441378443854 273.4753144551975 Z" fill-opacity="1"/><g transform="scale(25,25)"><g transform="translate(8.36,11.644)"><path fill="rgb(0,0,0)" stroke="none" paint-order="stroke fill markers" d=" M 0.294 -0.64 L 0.294 -0.079 Q 0.294 -0.049 0.306 -0.041 Q 0.323 -0.031 0.387 -0.031 L 0.419 -0.031 L 0.419 0 Q 0.384 -0.003 0.257 -0.003 Q 0.13 -0.003 0.095 0 L 0.095 -0.031 L 0.127 -0.031 Q 0.20400000000000001 -0.031 0.215 -0.049 L 0.216 -0.05 Q 0.22 -0.058 0.22 -0.079 L 0.22 -0.597 Q 0.168 -0.5710000000000001 0.089 -0.5710000000000001 L 0.089 -0.602 Q 0.209 -0.602 0.271 -0.666 Q 0.29 -0.666 0.293 -0.659 L 0.293 -0.659 L 0.293 -0.658 Q 0.294 -0.655 0.294 -0.64 Z"/></g></g><g transform="scale(25,25)"><g transform="translate(8.4,13.724)"><path fill="rgb(0,0,0)" stroke="none" paint-order="stroke fill markers" d=" M 0.449 -0.17400000000000002 L 0.449 -0.17400000000000002 L 0.421 0 L 0.05 0 Q 0.05 -0.025 0.056 -0.032 L 0.061 -0.037 L 0.253 -0.251 Q 0.358 -0.369 0.358 -0.47200000000000003 Q 0.358 -0.561 0.304 -0.607 L 0.303 -0.608 L 0.302 -0.608 Q 0.27 -0.635 0.224 -0.635 Q 0.152 -0.635 0.109 -0.5730000000000001 Q 0.097 -0.555 0.089 -0.533 Q 0.092 -0.534 0.10200000000000001 -0.534 Q 0.14200000000000002 -0.534 0.153 -0.498 L 0.153 -0.497 Q 0.155 -0.49 0.155 -0.482 Q 0.155 -0.442 0.117 -0.431 Q 0.109 -0.429 0.10300000000000001 -0.429 Q 0.066 -0.429 0.054 -0.46 Q 0.05 -0.47100000000000003 0.05 -0.485 Q 0.05 -0.562 0.109 -0.617 Q 0.162 -0.666 0.23700000000000002 -0.666 Q 0.34700000000000003 -0.666 0.40800000000000003 -0.592 Q 0.443 -0.549 0.448 -0.49 Q 0.449 -0.481 0.449 -0.47200000000000003 Q 0.449 -0.399 0.394 -0.333 Q 0.365 -0.299 0.304 -0.243 L 0.243 -0.189 L 0.233 -0.18 L 0.127 -0.077 L 0.307 -0.077 Q 0.395 -0.077 0.402 -0.085 Q 0.41200000000000003 -0.099 0.424 -0.17400000000000002 L 0.449 -0.17400000000000002 Z"/></g></g><g transform="scale(25,25)"><g transform="translate(8.52,15.804)"><path fill="rgb(0,0,0)" stroke="none" paint-order="stroke fill markers" d=" M 0.29 -0.352 L 0.29 -0.352 Q 0.39 -0.332 0.434 -0.254 Q 0.457 -0.215 0.457 -0.171 Q 0.457 -0.08600000000000001 0.387 -0.028 Q 0.326 0.022 0.244 0.022 Q 0.145 0.022 0.085 -0.037 Q 0.042 -0.079 0.042 -0.135 Q 0.042 -0.182 0.084 -0.191 Q 0.091 -0.193 0.098 -0.193 Q 0.136 -0.193 0.149 -0.161 Q 0.153 -0.148 0.154 -0.137 Q 0.154 -0.097 0.11800000000000001 -0.085 Q 0.10400000000000001 -0.08 0.088 -0.082 Q 0.125 -0.02 0.216 -0.008 Q 0.229 -0.006 0.241 -0.006 Q 0.305 -0.006 0.335 -0.069 Q 0.354 -0.109 0.354 -0.171 Q 0.354 -0.304 0.274 -0.331 Q 0.256 -0.337 0.23500000000000001 -0.337 L 0.191 -0.337 Q 0.169 -0.337 0.167 -0.34800000000000003 Q 0.167 -0.358 0.182 -0.36 Q 0.197 -0.36 0.221 -0.363 Q 0.272 -0.365 0.301 -0.402 L 0.301 -0.403 L 0.302 -0.404 L 0.303 -0.405 L 0.304 -0.405 L 0.31 -0.41500000000000004 Q 0.338 -0.462 0.338 -0.529 Q 0.338 -0.622 0.266 -0.638 Q 0.254 -0.641 0.242 -0.641 Q 0.17200000000000001 -0.641 0.128 -0.601 Q 0.117 -0.591 0.109 -0.579 Q 0.171 -0.579 0.171 -0.529 Q 0.171 -0.493 0.14 -0.481 Q 0.131 -0.47800000000000004 0.12 -0.47800000000000004 Q 0.081 -0.47800000000000004 0.07100000000000001 -0.513 L 0.07100000000000001 -0.513 L 0.07100000000000001 -0.514 Q 0.069 -0.522 0.069 -0.53 Q 0.069 -0.597 0.135 -0.637 Q 0.183 -0.666 0.246 -0.666 Q 0.337 -0.666 0.393 -0.612 L 0.395 -0.61 Q 0.43 -0.5740000000000001 0.43 -0.528 Q 0.43 -0.445 0.359 -0.389 Q 0.328 -0.365 0.29 -0.352 Z"/></g></g><g transform="scale(25,25)"><g transform="translate(8.56,17.964)"><path fill="rgb(0,0,0)" stroke="none" paint-order="stroke fill markers" d=" M 0.028 -0.165 L 0.028 -0.196 L 0.335 -0.665 Q 0.343 -0.677 0.355 -0.677 Q 0.369 -0.677 0.371 -0.666 L 0.371 -0.651 L 0.371 -0.196 L 0.47100000000000003 -0.196 L 0.47100000000000003 -0.165 L 0.371 -0.165 L 0.371 -0.078 Q 0.371 -0.047 0.383 -0.04 Q 0.397 -0.031 0.447 -0.031 L 0.468 -0.031 L 0.468 0 Q 0.427 -0.003 0.332 -0.003 Q 0.23800000000000002 -0.003 0.197 0 L 0.197 -0.031 L 0.218 -0.031 Q 0.28 -0.031 0.29 -0.048 Q 0.294 -0.055 0.294 -0.078 L 0.294 -0.165 L 0.028 -0.165 M 0.3 -0.196 L 0.3 -0.5690000000000001 L 0.056 -0.196 L 0.3 -0.196 Z"/></g></g><g transform="scale(25,25)"><g transform="translate(19.44,11.644)"><path fill="rgb(0,0,0)" stroke="none" paint-order="stroke fill markers" d=" M 0.294 -0.64 L 0.294 -0.079 Q 0.294 -0.049 0.306 -0.041 Q 0.323 -0.031 0.387 -0.031 L 0.419 -0.031 L 0.419 0 Q 0.384 -0.003 0.257 -0.003 Q 0.13 -0.003 0.095 0 L 0.095 -0.031 L 0.127 -0.031 Q 0.20400000000000001 -0.031 0.215 -0.049 L 0.216 -0.05 Q 0.22 -0.058 0.22 -0.079 L 0.22 -0.597 Q 0.168 -0.5710000000000001 0.089 -0.5710000000000001 L 0.089 -0.602 Q 0.209 -0.602 0.271 -0.666 Q 0.29 -0.666 0.293 -0.659 L 0.293 -0.659 L 0.293 -0.658 Q 0.294 -0.655 0.294 -0.64 Z"/></g><g transform="translate(19.94,11.644)"><path fill="rgb(0,0,0)" stroke="none" paint-order="stroke fill markers" d=" M 0.46 -0.32 Q 0.46 -0.17400000000000002 0.423 -0.094 Q 0.364 0.018000000000000002 0.249 0.022 Q 0.158 0.022 0.10300000000000001 -0.05 Q 0.092 -0.063 0.084 -0.079 Q 0.039 -0.162 0.039 -0.32 Q 0.039 -0.467 0.076 -0.547 Q 0.126 -0.659 0.23800000000000002 -0.666 L 0.25 -0.666 Q 0.339 -0.666 0.395 -0.595 L 0.395 -0.594 Q 0.40900000000000003 -0.5760000000000001 0.42 -0.554 Q 0.46 -0.46900000000000003 0.46 -0.32 M 0.249 0 L 0.249 0 Q 0.312 0 0.34600000000000003 -0.061 Q 0.36 -0.088 0.366 -0.125 Q 0.377 -0.189 0.377 -0.332 Q 0.377 -0.47100000000000003 0.367 -0.527 Q 0.34900000000000003 -0.622 0.275 -0.641 Q 0.262 -0.644 0.249 -0.644 Q 0.179 -0.644 0.147 -0.5740000000000001 Q 0.136 -0.55 0.13 -0.516 Q 0.122 -0.462 0.122 -0.332 Q 0.122 -0.181 0.133 -0.121 Q 0.151 -0.025 0.221 -0.004 Q 0.23500000000000001 0 0.249 0 Z"/></g></g><g transform="scale(25,25)"><g transform="translate(19.36,13.804)"><path fill="rgb(0,0,0)" stroke="none" paint-order="stroke fill markers" d=" M 0.449 -0.17400000000000002 L 0.449 -0.17400000000000002 L 0.421 0 L 0.05 0 Q 0.05 -0.025 0.056 -0.032 L 0.061 -0.037 L 0.253 -0.251 Q 0.358 -0.369 0.358 -0.47200000000000003 Q 0.358 -0.561 0.304 -0.607 L 0.303 -0.608 L 0.302 -0.608 Q 0.27 -0.635 0.224 -0.635 Q 0.152 -0.635 0.109 -0.5730000000000001 Q 0.097 -0.555 0.089 -0.533 Q 0.092 -0.534 0.10200000000000001 -0.534 Q 0.14200000000000002 -0.534 0.153 -0.498 L 0.153 -0.497 Q 0.155 -0.49 0.155 -0.482 Q 0.155 -0.442 0.117 -0.431 Q 0.109 -0.429 0.10300000000000001 -0.429 Q 0.066 -0.429 0.054 -0.46 Q 0.05 -0.47100000000000003 0.05 -0.485 Q 0.05 -0.562 0.109 -0.617 Q 0.162 -0.666 0.23700000000000002 -0.666 Q 0.34700000000000003 -0.666 0.40800000000000003 -0.592 Q 0.443 -0.549 0.448 -0.49 Q 0.449 -0.481 0.449 -0.47200000000000003 Q 0.449 -0.399 0.394 -0.333 Q 0.365 -0.299 0.304 -0.243 L 0.243 -0.189 L 0.233 -0.18 L 0.127 -0.077 L 0.307 -0.077 Q 0.395 -0.077 0.402 -0.085 Q 0.41200000000000003 -0.099 0.424 -0.17400000000000002 L 0.449 -0.17400000000000002 Z"/></g><g transform="translate(19.86,13.804)"><path fill="rgb(0,0,0)" stroke="none" paint-order="stroke fill markers" d=" M 0.46 -0.32 Q 0.46 -0.17400000000000002 0.423 -0.094 Q 0.364 0.018000000000000002 0.249 0.022 Q 0.158 0.022 0.10300000000000001 -0.05 Q 0.092 -0.063 0.084 -0.079 Q 0.039 -0.162 0.039 -0.32 Q 0.039 -0.467 0.076 -0.547 Q 0.126 -0.659 0.23800000000000002 -0.666 L 0.25 -0.666 Q 0.339 -0.666 0.395 -0.595 L 0.395 -0.594 Q 0.40900000000000003 -0.5760000000000001 0.42 -0.554 Q 0.46 -0.46900000000000003 0.46 -0.32 M 0.249 0 L 0.249 0 Q 0.312 0 0.34600000000000003 -0.061 Q 0.36 -0.088 0.366 -0.125 Q 0.377 -0.189 0.377 -0.332 Q 0.377 -0.47100000000000003 0.367 -0.527 Q 0.34900000000000003 -0.622 0.275 -0.641 Q 0.262 -0.644 0.249 -0.644 Q 0.179 -0.644 0.147 -0.5740000000000001 Q 0.136 -0.55 0.13 -0.516 Q 0.122 -0.462 0.122 -0.332 Q 0.122 -0.181 0.133 -0.121 Q 0.151 -0.025 0.221 -0.004 Q 0.23500000000000001 0 0.249 0 Z"/></g></g><g transform="scale(25,25)"><g transform="translate(19.48,15.884)"><path fill="rgb(0,0,0)" stroke="none" paint-order="stroke fill markers" d=" M 0.29 -0.352 L 0.29 -0.352 Q 0.39 -0.332 0.434 -0.254 Q 0.457 -0.215 0.457 -0.171 Q 0.457 -0.08600000000000001 0.387 -0.028 Q 0.326 0.022 0.244 0.022 Q 0.145 0.022 0.085 -0.037 Q 0.042 -0.079 0.042 -0.135 Q 0.042 -0.182 0.084 -0.191 Q 0.091 -0.193 0.098 -0.193 Q 0.136 -0.193 0.149 -0.161 Q 0.153 -0.148 0.154 -0.137 Q 0.154 -0.097 0.11800000000000001 -0.085 Q 0.10400000000000001 -0.08 0.088 -0.082 Q 0.125 -0.02 0.216 -0.008 Q 0.229 -0.006 0.241 -0.006 Q 0.305 -0.006 0.335 -0.069 Q 0.354 -0.109 0.354 -0.171 Q 0.354 -0.304 0.274 -0.331 Q 0.256 -0.337 0.23500000000000001 -0.337 L 0.191 -0.337 Q 0.169 -0.337 0.167 -0.34800000000000003 Q 0.167 -0.358 0.182 -0.36 Q 0.197 -0.36 0.221 -0.363 Q 0.272 -0.365 0.301 -0.402 L 0.301 -0.403 L 0.302 -0.404 L 0.303 -0.405 L 0.304 -0.405 L 0.31 -0.41500000000000004 Q 0.338 -0.462 0.338 -0.529 Q 0.338 -0.622 0.266 -0.638 Q 0.254 -0.641 0.242 -0.641 Q 0.17200000000000001 -0.641 0.128 -0.601 Q 0.117 -0.591 0.109 -0.579 Q 0.171 -0.579 0.171 -0.529 Q 0.171 -0.493 0.14 -0.481 Q 0.131 -0.47800000000000004 0.12 -0.47800000000000004 Q 0.081 -0.47800000000000004 0.07100000000000001 -0.513 L 0.07100000000000001 -0.513 L 0.07100000000000001 -0.514 Q 0.069 -0.522 0.069 -0.53 Q 0.069 -0.597 0.135 -0.637 Q 0.183 -0.666 0.246 -0.666 Q 0.337 -0.666 0.393 -0.612 L 0.395 -0.61 Q 0.43 -0.5740000000000001 0.43 -0.528 Q 0.43 -0.445 0.359 -0.389 Q 0.328 -0.365 0.29 -0.352 Z"/></g><g transform="translate(19.98,15.884)"><path fill="rgb(0,0,0)" stroke="none" paint-order="stroke fill markers" d=" M 0.46 -0.32 Q 0.46 -0.17400000000000002 0.423 -0.094 Q 0.364 0.018000000000000002 0.249 0.022 Q 0.158 0.022 0.10300000000000001 -0.05 Q 0.092 -0.063 0.084 -0.079 Q 0.039 -0.162 0.039 -0.32 Q 0.039 -0.467 0.076 -0.547 Q 0.126 -0.659 0.23800000000000002 -0.666 L 0.25 -0.666 Q 0.339 -0.666 0.395 -0.595 L 0.395 -0.594 Q 0.40900000000000003 -0.5760000000000001 0.42 -0.554 Q 0.46 -0.46900000000000003 0.46 -0.32 M 0.249 0 L 0.249 0 Q 0.312 0 0.34600000000000003 -0.061 Q 0.36 -0.088 0.366 -0.125 Q 0.377 -0.189 0.377 -0.332 Q 0.377 -0.47100000000000003 0.367 -0.527 Q 0.34900000000000003 -0.622 0.275 -0.641 Q 0.262 -0.644 0.249 -0.644 Q 0.179 -0.644 0.147 -0.5740000000000001 Q 0.136 -0.55 0.13 -0.516 Q 0.122 -0.462 0.122 -0.332 Q 0.122 -0.181 0.133 -0.121 Q 0.151 -0.025 0.221 -0.004 Q 0.23500000000000001 0 0.249 0 Z"/></g></g><g transform="scale(25,25)"><g transform="translate(19.44,18.003999999999998)"><path fill="rgb(0,0,0)" stroke="none" paint-order="stroke fill markers" d=" M 0.028 -0.165 L 0.028 -0.196 L 0.335 -0.665 Q 0.343 -0.677 0.355 -0.677 Q 0.369 -0.677 0.371 -0.666 L 0.371 -0.651 L 0.371 -0.196 L 0.47100000000000003 -0.196 L 0.47100000000000003 -0.165 L 0.371 -0.165 L 0.371 -0.078 Q 0.371 -0.047 0.383 -0.04 Q 0.397 -0.031 0.447 -0.031 L 0.468 -0.031 L 0.468 0 Q 0.427 -0.003 0.332 -0.003 Q 0.23800000000000002 -0.003 0.197 0 L 0.197 -0.031 L 0.218 -0.031 Q 0.28 -0.031 0.29 -0.048 Q 0.294 -0.055 0.294 -0.078 L 0.294 -0.165 L 0.028 -0.165 M 0.3 -0.196 L 0.3 -0.5690000000000001 L 0.056 -0.196 L 0.3 -0.196 Z"/></g><g transform="translate(19.94,18.003999999999998)"><path fill="rgb(0,0,0)" stroke="none" paint-order="stroke fill markers" d=" M 0.46 -0.32 Q 0.46 -0.17400000000000002 0.423 -0.094 Q 0.364 0.018000000000000002 0.249 0.022 Q 0.158 0.022 0.10300000000000001 -0.05 Q 0.092 -0.063 0.084 -0.079 Q 0.039 -0.162 0.039 -0.32 Q 0.039 -0.467 0.076 -0.547 Q 0.126 -0.659 0.23800000000000002 -0.666 L 0.25 -0.666 Q 0.339 -0.666 0.395 -0.595 L 0.395 -0.594 Q 0.40900000000000003 -0.5760000000000001 0.42 -0.554 Q 0.46 -0.46900000000000003 0.46 -0.32 M 0.249 0 L 0.249 0 Q 0.312 0 0.34600000000000003 -0.061 Q 0.36 -0.088 0.366 -0.125 Q 0.377 -0.189 0.377 -0.332 Q 0.377 -0.47100000000000003 0.367 -0.527 Q 0.34900000000000003 -0.622 0.275 -0.641 Q 0.262 -0.644 0.249 -0.644 Q 0.179 -0.644 0.147 -0.5740000000000001 Q 0.136 -0.55 0.13 -0.516 Q 0.122 -0.462 0.122 -0.332 Q 0.122 -0.181 0.133 -0.121 Q 0.151 -0.025 0.221 -0.004 Q 0.23500000000000001 0 0.249 0 Z"/></g></g></g></g></svg>