<svg width="1737" height="990" xmlns="http://www.w3.org/2000/svg" xmlns:xlink="http://www.w3.org/1999/xlink" xml:space="preserve" overflow="hidden"><defs><clipPath id="clip0"><rect x="238" y="2323" width="1737" height="990"/></clipPath><clipPath id="clip1"><rect x="238" y="2323" width="1737" height="990"/></clipPath><clipPath id="clip2"><rect x="330" y="2500" width="1532" height="811"/></clipPath><clipPath id="clip3"><rect x="330" y="2500" width="1532" height="811"/></clipPath><clipPath id="clip4"><rect x="330" y="2500" width="1532" height="811"/></clipPath><clipPath id="clip5"><rect x="330" y="2500" width="1532" height="811"/></clipPath></defs><g clip-path="url(#clip0)" transform="translate(-238 -2323)"><g clip-path="url(#clip1)"><g clip-path="url(#clip2)"><g clip-path="url(#clip3)"><g clip-path="url(#clip4)"><g clip-path="url(#clip5)"><path d="M0 0 2888.12 0 2888.12 3685.43 0 3685.43Z" fill="#FFFFFF" fill-rule="nonzero" fill-opacity="1" transform="matrix(1.00315 0 0 1 -133.419 1637.67)"/><path d="M1.71097 2951.42 2882.98 2951.42" stroke="#252525" stroke-width="3.42194" stroke-linecap="butt" stroke-linejoin="miter" stroke-miterlimit="10" stroke-opacity="1" fill="none" fill-rule="nonzero" transform="matrix(1.00315 0 0 1 -133.419 1637.67)"/><path d="M2886.41 2951.42 2872.72 2937.74" stroke="#252525" stroke-width="3.42194" stroke-linecap="butt" stroke-linejoin="miter" stroke-miterlimit="10" stroke-opacity="1" fill="none" fill-rule="nonzero" transform="matrix(1.00315 0 0 1 -133.419 1637.67)"/><path d="M2886.41 2951.42 2872.72 2965.11" stroke="#252525" stroke-width="3.42194" stroke-linecap="butt" stroke-linejoin="miter" stroke-miterlimit="10" stroke-opacity="1" fill="none" fill-rule="nonzero" transform="matrix(1.00315 0 0 1 -133.419 1637.67)"/><text fill="#252525" fill-opacity="1" font-family="Arial,Arial_MSFontService,sans-serif" font-style="normal" font-variant="normal" font-weight="400" font-stretch="normal" font-size="12" text-anchor="start" direction="ltr" writing-mode="lr-tb" unicode-bidi="normal" text-decoration="none" transform="matrix(3.43274 0 0 3.42194 -85.361 4642)">–16</text><path d="M76.9937 2951.42 76.9937 2961.69" stroke="#252525" stroke-width="3.42194" stroke-linecap="butt" stroke-linejoin="miter" stroke-miterlimit="10" stroke-opacity="1" fill="none" fill-rule="nonzero" transform="matrix(1.00315 0 0 1 -133.419 1637.67)"/><text fill="#252525" fill-opacity="1" font-family="Arial,Arial_MSFontService,sans-serif" font-style="normal" font-variant="normal" font-weight="400" font-stretch="normal" font-size="12" text-anchor="start" direction="ltr" writing-mode="lr-tb" unicode-bidi="normal" text-decoration="none" transform="matrix(3.43274 0 0 3.42194 103.439 4642)">–15</text><path d="M265.2 2951.42 265.2 2961.69" stroke="#252525" stroke-width="3.42194" stroke-linecap="butt" stroke-linejoin="miter" stroke-miterlimit="10" stroke-opacity="1" fill="none" fill-rule="nonzero" transform="matrix(1.00315 0 0 1 -133.419 1637.67)"/><text fill="#252525" fill-opacity="1" font-family="Arial,Arial_MSFontService,sans-serif" font-style="normal" font-variant="normal" font-weight="400" font-stretch="normal" font-size="12" text-anchor="start" direction="ltr" writing-mode="lr-tb" unicode-bidi="normal" text-decoration="none" transform="matrix(3.43274 0 0 3.42194 292.24 4642)">–14</text><path d="M453.407 2951.42 453.407 2961.69" stroke="#252525" stroke-width="3.42194" stroke-linecap="butt" stroke-linejoin="miter" stroke-miterlimit="10" stroke-opacity="1" fill="none" fill-rule="nonzero" transform="matrix(1.00315 0 0 1 -133.419 1637.67)"/><text fill="#252525" fill-opacity="1" font-family="Arial,Arial_MSFontService,sans-serif" font-style="normal" font-variant="normal" font-weight="400" font-stretch="normal" font-size="12" text-anchor="start" direction="ltr" writing-mode="lr-tb" unicode-bidi="normal" text-decoration="none" transform="matrix(3.43274 0 0 3.42194 481.04 4642)">–13</text><path d="M641.614 2951.42 641.614 2961.69" stroke="#252525" stroke-width="3.42194" stroke-linecap="butt" stroke-linejoin="miter" stroke-miterlimit="10" stroke-opacity="1" fill="none" fill-rule="nonzero" transform="matrix(1.00315 0 0 1 -133.419 1637.67)"/><text fill="#252525" fill-opacity="1" font-family="Arial,Arial_MSFontService,sans-serif" font-style="normal" font-variant="normal" font-weight="400" font-stretch="normal" font-size="12" text-anchor="start" direction="ltr" writing-mode="lr-tb" unicode-bidi="normal" text-decoration="none" transform="matrix(3.43274 0 0 3.42194 669.841 4642)">–12</text><path d="M829.821 2951.42 829.821 2961.69" stroke="#252525" stroke-width="3.42194" stroke-linecap="butt" stroke-linejoin="miter" stroke-miterlimit="10" stroke-opacity="1" fill="none" fill-rule="nonzero" transform="matrix(1.00315 0 0 1 -133.419 1637.67)"/><text fill="#252525" fill-opacity="1" font-family="Arial,Arial_MSFontService,sans-serif" font-style="normal" font-variant="normal" font-weight="400" font-stretch="normal" font-size="12" text-anchor="start" direction="ltr" writing-mode="lr-tb" unicode-bidi="normal" text-decoration="none" transform="matrix(3.43274 0 0 3.42194 858.641 4642)">–11</text><path d="M1018.03 2951.42 1018.03 2961.69" stroke="#252525" stroke-width="3.42194" stroke-linecap="butt" stroke-linejoin="miter" stroke-miterlimit="10" stroke-opacity="1" fill="none" fill-rule="nonzero" transform="matrix(1.00315 0 0 1 -133.419 1637.67)"/><text fill="#252525" fill-opacity="1" font-family="Arial,Arial_MSFontService,sans-serif" font-style="normal" font-variant="normal" font-weight="400" font-stretch="normal" font-size="12" text-anchor="start" direction="ltr" writing-mode="lr-tb" unicode-bidi="normal" text-decoration="none" transform="matrix(3.43274 0 0 3.42194 1047.44 4642)">–10</text><path d="M1206.23 2951.42 1206.23 2961.69" stroke="#252525" stroke-width="3.42194" stroke-linecap="butt" stroke-linejoin="miter" stroke-miterlimit="10" stroke-opacity="1" fill="none" fill-rule="nonzero" transform="matrix(1.00315 0 0 1 -133.419 1637.67)"/><text fill="#252525" fill-opacity="1" font-family="Arial,Arial_MSFontService,sans-serif" font-style="normal" font-variant="normal" font-weight="400" font-stretch="normal" font-size="12" text-anchor="start" direction="ltr" writing-mode="lr-tb" unicode-bidi="normal" text-decoration="none" transform="matrix(3.43274 0 0 3.42194 1246.54 4642)">–9</text><path d="M1394.44 2951.42 1394.44 2961.69" stroke="#252525" stroke-width="3.42194" stroke-linecap="butt" stroke-linejoin="miter" stroke-miterlimit="10" stroke-opacity="1" fill="none" fill-rule="nonzero" transform="matrix(1.00315 0 0 1 -133.419 1637.67)"/><text fill="#252525" fill-opacity="1" font-family="Arial,Arial_MSFontService,sans-serif" font-style="normal" font-variant="normal" font-weight="400" font-stretch="normal" font-size="12" text-anchor="start" direction="ltr" writing-mode="lr-tb" unicode-bidi="normal" text-decoration="none" transform="matrix(3.43274 0 0 3.42194 1435.34 4642)">–8</text><path d="M1582.65 2951.42 1582.65 2961.69" stroke="#252525" stroke-width="3.42194" stroke-linecap="butt" stroke-linejoin="miter" stroke-miterlimit="10" stroke-opacity="1" fill="none" fill-rule="nonzero" transform="matrix(1.00315 0 0 1 -133.419 1637.67)"/><text fill="#252525" fill-opacity="1" font-family="Arial,Arial_MSFontService,sans-serif" font-style="normal" font-variant="normal" font-weight="400" font-stretch="normal" font-size="12" text-anchor="start" direction="ltr" writing-mode="lr-tb" unicode-bidi="normal" text-decoration="none" transform="matrix(3.43274 0 0 3.42194 1624.14 4642)">–7</text><path d="M1770.85 2951.42 1770.85 2961.69" stroke="#252525" stroke-width="3.42194" stroke-linecap="butt" stroke-linejoin="miter" stroke-miterlimit="10" stroke-opacity="1" fill="none" fill-rule="nonzero" transform="matrix(1.00315 0 0 1 -133.419 1637.67)"/><text fill="#252525" fill-opacity="1" font-family="Arial,Arial_MSFontService,sans-serif" font-style="normal" font-variant="normal" font-weight="400" font-stretch="normal" font-size="12" text-anchor="start" direction="ltr" writing-mode="lr-tb" unicode-bidi="normal" text-decoration="none" transform="matrix(3.43274 0 0 3.42194 1812.94 4642)">–6</text><path d="M1959.06 2951.42 1959.06 2961.69" stroke="#252525" stroke-width="3.42194" stroke-linecap="butt" stroke-linejoin="miter" stroke-miterlimit="10" stroke-opacity="1" fill="none" fill-rule="nonzero" transform="matrix(1.00315 0 0 1 -133.419 1637.67)"/><text fill="#252525" fill-opacity="1" font-family="Arial,Arial_MSFontService,sans-serif" font-style="normal" font-variant="normal" font-weight="400" font-stretch="normal" font-size="12" text-anchor="start" direction="ltr" writing-mode="lr-tb" unicode-bidi="normal" text-decoration="none" transform="matrix(3.43274 0 0 3.42194 2001.74 4642)">–5</text><path d="M2147.27 2951.42 2147.27 2961.69" stroke="#252525" stroke-width="3.42194" stroke-linecap="butt" stroke-linejoin="miter" stroke-miterlimit="10" stroke-opacity="1" fill="none" fill-rule="nonzero" transform="matrix(1.00315 0 0 1 -133.419 1637.67)"/><text fill="#252525" fill-opacity="1" font-family="Arial,Arial_MSFontService,sans-serif" font-style="normal" font-variant="normal" font-weight="400" font-stretch="normal" font-size="12" text-anchor="start" direction="ltr" writing-mode="lr-tb" unicode-bidi="normal" text-decoration="none" transform="matrix(3.43274 0 0 3.42194 2190.54 4642)">–4</text><path d="M2335.47 2951.42 2335.47 2961.69" stroke="#252525" stroke-width="3.42194" stroke-linecap="butt" stroke-linejoin="miter" stroke-miterlimit="10" stroke-opacity="1" fill="none" fill-rule="nonzero" transform="matrix(1.00315 0 0 1 -133.419 1637.67)"/><text fill="#252525" fill-opacity="1" font-family="Arial,Arial_MSFontService,sans-serif" font-style="normal" font-variant="normal" font-weight="400" font-stretch="normal" font-size="12" text-anchor="start" direction="ltr" writing-mode="lr-tb" unicode-bidi="normal" text-decoration="none" transform="matrix(3.43274 0 0 3.42194 2379.34 4642)">–3</text><path d="M2523.68 2951.42 2523.68 2961.69" stroke="#252525" stroke-width="3.42194" stroke-linecap="butt" stroke-linejoin="miter" stroke-miterlimit="10" stroke-opacity="1" fill="none" fill-rule="nonzero" transform="matrix(1.00315 0 0 1 -133.419 1637.67)"/><text fill="#252525" fill-opacity="1" font-family="Arial,Arial_MSFontService,sans-serif" font-style="normal" font-variant="normal" font-weight="400" font-stretch="normal" font-size="12" text-anchor="start" direction="ltr" writing-mode="lr-tb" unicode-bidi="normal" text-decoration="none" transform="matrix(3.43274 0 0 3.42194 2568.14 4642)">–2</text><path d="M2711.89 2951.42 2711.89 2961.69" stroke="#252525" stroke-width="3.42194" stroke-linecap="butt" stroke-linejoin="miter" stroke-miterlimit="10" stroke-opacity="1" fill="none" fill-rule="nonzero" transform="matrix(1.00315 0 0 1 -133.419 1637.67)"/><path d="M3078.04 3516.04 3088.3 3516.04" stroke="#252525" stroke-width="3.42194" stroke-linecap="butt" stroke-linejoin="miter" stroke-miterlimit="10" stroke-opacity="1" fill="none" fill-rule="nonzero" transform="matrix(1.00315 0 0 1 -133.419 1637.67)"/><path d="M3078.04 3327.84 3088.3 3327.84" stroke="#252525" stroke-width="3.42194" stroke-linecap="butt" stroke-linejoin="miter" stroke-miterlimit="10" stroke-opacity="1" fill="none" fill-rule="nonzero" transform="matrix(1.00315 0 0 1 -133.419 1637.67)"/><path d="M3078.04 3139.63 3088.3 3139.63" stroke="#252525" stroke-width="3.42194" stroke-linecap="butt" stroke-linejoin="miter" stroke-miterlimit="10" stroke-opacity="1" fill="none" fill-rule="nonzero" transform="matrix(1.00315 0 0 1 -133.419 1637.67)"/><path d="M3078.04 2763.22 3088.3 2763.22" stroke="#252525" stroke-width="3.42194" stroke-linecap="butt" stroke-linejoin="miter" stroke-miterlimit="10" stroke-opacity="1" fill="none" fill-rule="nonzero" transform="matrix(1.00315 0 0 1 -133.419 1637.67)"/><path d="M3078.04 2575.01 3088.3 2575.01" stroke="#252525" stroke-width="3.42194" stroke-linecap="butt" stroke-linejoin="miter" stroke-miterlimit="10" stroke-opacity="1" fill="none" fill-rule="nonzero" transform="matrix(1.00315 0 0 1 -133.419 1637.67)"/><path d="M3078.04 2386.8 3088.3 2386.8" stroke="#252525" stroke-width="3.42194" stroke-linecap="butt" stroke-linejoin="miter" stroke-miterlimit="10" stroke-opacity="1" fill="none" fill-rule="nonzero" transform="matrix(1.00315 0 0 1 -133.419 1637.67)"/><path d="M3078.04 2198.6 3088.3 2198.6" stroke="#252525" stroke-width="3.42194" stroke-linecap="butt" stroke-linejoin="miter" stroke-miterlimit="10" stroke-opacity="1" fill="none" fill-rule="nonzero" transform="matrix(1.00315 0 0 1 -133.419 1637.67)"/><path d="M3078.04 2010.39 3088.3 2010.39" stroke="#252525" stroke-width="3.42194" stroke-linecap="butt" stroke-linejoin="miter" stroke-miterlimit="10" stroke-opacity="1" fill="none" fill-rule="nonzero" transform="matrix(1.00315 0 0 1 -133.419 1637.67)"/><path d="M3078.04 1822.18 3088.3 1822.18" stroke="#252525" stroke-width="3.42194" stroke-linecap="butt" stroke-linejoin="miter" stroke-miterlimit="10" stroke-opacity="1" fill="none" fill-rule="nonzero" transform="matrix(1.00315 0 0 1 -133.419 1637.67)"/><path d="M3078.04 1633.98 3088.3 1633.98" stroke="#252525" stroke-width="3.42194" stroke-linecap="butt" stroke-linejoin="miter" stroke-miterlimit="10" stroke-opacity="1" fill="none" fill-rule="nonzero" transform="matrix(1.00315 0 0 1 -133.419 1637.67)"/><path d="M3078.04 1445.77 3088.3 1445.77" stroke="#252525" stroke-width="3.42194" stroke-linecap="butt" stroke-linejoin="miter" stroke-miterlimit="10" stroke-opacity="1" fill="none" fill-rule="nonzero" transform="matrix(1.00315 0 0 1 -133.419 1637.67)"/><path d="M3078.04 1257.56 3088.3 1257.56" stroke="#252525" stroke-width="3.42194" stroke-linecap="butt" stroke-linejoin="miter" stroke-miterlimit="10" stroke-opacity="1" fill="none" fill-rule="nonzero" transform="matrix(1.00315 0 0 1 -133.419 1637.67)"/><path d="M3078.04 1069.36 3088.3 1069.36" stroke="#252525" stroke-width="3.42194" stroke-linecap="butt" stroke-linejoin="miter" stroke-miterlimit="10" stroke-opacity="1" fill="none" fill-rule="nonzero" transform="matrix(1.00315 0 0 1 -133.419 1637.67)"/><path d="M3078.04 881.15 3088.3 881.15" stroke="#252525" stroke-width="3.42194" stroke-linecap="butt" stroke-linejoin="miter" stroke-miterlimit="10" stroke-opacity="1" fill="none" fill-rule="nonzero" transform="matrix(1.00315 0 0 1 -133.419 1637.67)"/><path d="M3078.04 692.943 3088.3 692.943" stroke="#252525" stroke-width="3.42194" stroke-linecap="butt" stroke-linejoin="miter" stroke-miterlimit="10" stroke-opacity="1" fill="none" fill-rule="nonzero" transform="matrix(1.00315 0 0 1 -133.419 1637.67)"/><path d="M3078.04 504.736 3088.3 504.736" stroke="#252525" stroke-width="3.42194" stroke-linecap="butt" stroke-linejoin="miter" stroke-miterlimit="10" stroke-opacity="1" fill="none" fill-rule="nonzero" transform="matrix(1.00315 0 0 1 -133.419 1637.67)"/><path d="M3078.04 316.53 3088.3 316.53" stroke="#252525" stroke-width="3.42194" stroke-linecap="butt" stroke-linejoin="miter" stroke-miterlimit="10" stroke-opacity="1" fill="none" fill-rule="nonzero" transform="matrix(1.00315 0 0 1 -133.419 1637.67)"/><path d="M3078.04 128.323 3088.3 128.323" stroke="#252525" stroke-width="3.42194" stroke-linecap="butt" stroke-linejoin="miter" stroke-miterlimit="10" stroke-opacity="1" fill="none" fill-rule="nonzero" transform="matrix(1.00315 0 0 1 -133.419 1637.67)"/><text fill="#252525" fill-opacity="1" font-family="Arial,Arial_MSFontService,sans-serif" font-style="normal" font-variant="normal" font-weight="400" font-stretch="normal" font-size="12" text-anchor="start" direction="ltr" writing-mode="lr-tb" unicode-bidi="normal" text-decoration="none" transform="matrix(3.43274 0 0 3.42194 2695.15 5169)">–3</text><text fill="#252525" fill-opacity="1" font-family="Arial,Arial_MSFontService,sans-serif" font-style="normal" font-variant="normal" font-weight="400" font-stretch="normal" font-size="12" text-anchor="start" direction="ltr" writing-mode="lr-tb" unicode-bidi="normal" text-decoration="none" transform="matrix(3.43274 0 0 3.42194 2695.15 4981)">–2</text><text fill="#252525" fill-opacity="1" font-family="Arial,Arial_MSFontService,sans-serif" font-style="normal" font-variant="normal" font-weight="400" font-stretch="normal" font-size="12" text-anchor="start" direction="ltr" writing-mode="lr-tb" unicode-bidi="normal" text-decoration="none" transform="matrix(3.43274 0 0 3.42194 2695.15 4793)">–1</text><text fill="#252525" fill-opacity="1" font-family="Arial,Arial_MSFontService,sans-serif" font-style="normal" font-variant="normal" font-weight="400" font-stretch="normal" font-size="12" text-anchor="start" direction="ltr" writing-mode="lr-tb" unicode-bidi="normal" text-decoration="none" transform="matrix(3.43274 0 0 3.42194 2715.75 4416)">1</text><text fill="#252525" fill-opacity="1" font-family="Arial,Arial_MSFontService,sans-serif" font-style="normal" font-variant="normal" font-weight="400" font-stretch="normal" font-size="12" text-anchor="start" direction="ltr" writing-mode="lr-tb" unicode-bidi="normal" text-decoration="none" transform="matrix(3.43274 0 0 3.42194 2715.75 4228)">2</text><text fill="#252525" fill-opacity="1" font-family="Arial,Arial_MSFontService,sans-serif" font-style="normal" font-variant="normal" font-weight="400" font-stretch="normal" font-size="12" text-anchor="start" direction="ltr" writing-mode="lr-tb" unicode-bidi="normal" text-decoration="none" transform="matrix(3.43274 0 0 3.42194 2715.75 4040)">3</text><text fill="#252525" fill-opacity="1" font-family="Arial,Arial_MSFontService,sans-serif" font-style="normal" font-variant="normal" font-weight="400" font-stretch="normal" font-size="12" text-anchor="start" direction="ltr" writing-mode="lr-tb" unicode-bidi="normal" text-decoration="none" transform="matrix(3.43274 0 0 3.42194 2715.75 3852)">4</text><text fill="#252525" fill-opacity="1" font-family="Arial,Arial_MSFontService,sans-serif" font-style="normal" font-variant="normal" font-weight="400" font-stretch="normal" font-size="12" text-anchor="start" direction="ltr" writing-mode="lr-tb" unicode-bidi="normal" text-decoration="none" transform="matrix(3.43274 0 0 3.42194 2715.75 3663)">5</text><text fill="#252525" fill-opacity="1" font-family="Arial,Arial_MSFontService,sans-serif" font-style="normal" font-variant="normal" font-weight="400" font-stretch="normal" font-size="12" text-anchor="start" direction="ltr" writing-mode="lr-tb" unicode-bidi="normal" text-decoration="none" transform="matrix(3.43274 0 0 3.42194 2715.75 3475)">6</text><text fill="#252525" fill-opacity="1" font-family="Arial,Arial_MSFontService,sans-serif" font-style="normal" font-variant="normal" font-weight="400" font-stretch="normal" font-size="12" text-anchor="start" direction="ltr" writing-mode="lr-tb" unicode-bidi="normal" text-decoration="none" transform="matrix(3.43274 0 0 3.42194 2715.75 3287)">7</text><text fill="#252525" fill-opacity="1" font-family="Arial,Arial_MSFontService,sans-serif" font-style="normal" font-variant="normal" font-weight="400" font-stretch="normal" font-size="12" text-anchor="start" direction="ltr" writing-mode="lr-tb" unicode-bidi="normal" text-decoration="none" transform="matrix(3.43274 0 0 3.42194 2715.75 3099)">8</text><text fill="#252525" fill-opacity="1" font-family="Arial,Arial_MSFontService,sans-serif" font-style="normal" font-variant="normal" font-weight="400" font-stretch="normal" font-size="12" text-anchor="start" direction="ltr" writing-mode="lr-tb" unicode-bidi="normal" text-decoration="none" transform="matrix(3.43274 0 0 3.42194 2715.75 2911)">9</text><text fill="#252525" fill-opacity="1" font-family="Arial,Arial_MSFontService,sans-serif" font-style="normal" font-variant="normal" font-weight="400" font-stretch="normal" font-size="12" text-anchor="start" direction="ltr" writing-mode="lr-tb" unicode-bidi="normal" text-decoration="none" transform="matrix(3.43274 0 0 3.42194 2695.15 2722)">10</text><text fill="#252525" fill-opacity="1" font-family="Arial,Arial_MSFontService,sans-serif" font-style="normal" font-variant="normal" font-weight="400" font-stretch="normal" font-size="12" text-anchor="start" direction="ltr" writing-mode="lr-tb" unicode-bidi="normal" text-decoration="none" transform="matrix(3.43274 0 0 3.42194 2698.59 2534)">11</text><text fill="#252525" fill-opacity="1" font-family="Arial,Arial_MSFontService,sans-serif" font-style="normal" font-variant="normal" font-weight="400" font-stretch="normal" font-size="12" text-anchor="start" direction="ltr" writing-mode="lr-tb" unicode-bidi="normal" text-decoration="none" transform="matrix(3.43274 0 0 3.42194 2695.15 2346)">12</text><text fill="#252525" fill-opacity="1" font-family="Arial,Arial_MSFontService,sans-serif" font-style="normal" font-variant="normal" font-weight="400" font-stretch="normal" font-size="12" text-anchor="start" direction="ltr" writing-mode="lr-tb" unicode-bidi="normal" text-decoration="none" transform="matrix(3.43274 0 0 3.42194 2695.15 2158)">13</text><text fill="#252525" fill-opacity="1" font-family="Arial,Arial_MSFontService,sans-serif" font-style="normal" font-variant="normal" font-weight="400" font-stretch="normal" font-size="12" text-anchor="start" direction="ltr" writing-mode="lr-tb" unicode-bidi="normal" text-decoration="none" transform="matrix(3.43274 0 0 3.42194 2695.15 1970)">14</text><text fill="#252525" fill-opacity="1" font-family="Arial,Arial_MSFontService,sans-serif" font-style="normal" font-variant="normal" font-weight="400" font-stretch="normal" font-size="12" text-anchor="start" direction="ltr" writing-mode="lr-tb" unicode-bidi="normal" text-decoration="none" transform="matrix(3.43274 0 0 3.42194 2695.15 1781)">15</text><path d="M743.163 1649.49C885.012 1648.63 998.967 1477.06 997.69 1266.27 996.412 1055.49 880.386 885.308 738.537 886.167 596.688 887.027 482.733 1058.6 484.01 1269.39 485.288 1480.17 601.315 1650.35 743.163 1649.49Z" stroke="#0000FF" stroke-width="8.55485" stroke-linecap="round" stroke-linejoin="round" stroke-miterlimit="10" stroke-opacity="1" fill="none" fill-rule="nonzero" transform="matrix(1.00315 0 0 1 -133.419 1637.67)"/><path d="M1704.73 1646.07C1846.58 1645.21 1960.53 1473.64 1959.26 1262.85 1957.98 1052.06 1841.95 881.886 1700.1 882.745 1558.25 883.605 1444.3 1055.18 1445.58 1265.96 1446.85 1476.75 1562.88 1646.93 1704.73 1646.07Z" stroke="#0000FF" stroke-width="8.55485" stroke-linecap="round" stroke-linejoin="round" stroke-miterlimit="10" stroke-opacity="1" fill="none" fill-rule="nonzero" transform="matrix(1.00315 0 0 1 -133.419 1637.67)"/><path d="M1626.75 1158.09 1626.75 1158.09C1627.01 1158.72 1627.14 1159.39 1627.13 1160.06 1627.14 1159.36 1627 1158.7 1626.75 1158.09ZM1627.13 1160.07C1627.13 1160.73 1627 1161.4 1626.74 1162.02 1626.99 1161.42 1627.13 1160.76 1627.13 1160.07ZM790.468 1151.48C787.643 1151.48 785.347 1153.77 785.335 1156.59 785.324 1159.43 787.612 1161.74 790.447 1161.75L1596.31 1165.07 1596.36 1154.8 790.489 1151.48C790.482 1151.48 790.475 1151.48 790.468 1151.48Z" fill="#000000" fill-rule="nonzero" fill-opacity="1" transform="matrix(1.00315 0 0 1 -133.419 1637.67)"/><path d="M1601.55 1134.29C1600.9 1134.29 1600.24 1134.41 1599.61 1134.67 1597.69 1135.46 1596.43 1137.32 1596.42 1139.4L1596.25 1180.46C1596.24 1182.54 1597.49 1184.42 1599.4 1185.22 1600.04 1185.49 1600.71 1185.62 1601.38 1185.62 1602.71 1185.62 1604.02 1185.1 1605 1184.13L1625.61 1163.68C1627.63 1161.69 1627.64 1158.44 1625.64 1156.42L1605.2 1135.81C1604.21 1134.82 1602.89 1134.29 1601.55 1134.29Z" fill="#000000" fill-rule="nonzero" fill-opacity="1" transform="matrix(1.00315 0 0 1 -133.419 1637.67)"/><path d="M1630.17 959.62C1630.43 960.249 1630.56 960.918 1630.55 961.586L1630.55 961.586C1630.56 960.891 1630.42 960.226 1630.17 959.62ZM1630.55 961.597C1630.55 962.262 1630.42 962.926 1630.16 963.55 1630.41 962.949 1630.55 962.289 1630.55 961.597ZM793.89 953.01C791.065 953.01 788.769 955.295 788.757 958.122 788.746 960.957 791.034 963.265 793.869 963.276L1599.74 966.593 1599.78 956.327 793.911 953.01C793.904 953.01 793.897 953.01 793.89 953.01Z" fill="#000000" fill-rule="nonzero" fill-opacity="1" transform="matrix(1.00315 0 0 1 -133.419 1637.67)"/><path d="M1604.97 935.816C1604.32 935.816 1603.66 935.941 1603.03 936.199 1601.11 936.986 1599.85 938.852 1599.84 940.928L1599.67 981.991C1599.66 984.067 1600.91 985.944 1602.82 986.746 1603.46 987.015 1604.14 987.145 1604.8 987.145 1606.13 987.145 1607.44 986.629 1608.42 985.657L1629.04 965.21C1631.05 963.214 1631.06 959.963 1629.07 957.951L1608.62 937.335C1607.64 936.344 1606.32 935.816 1604.97 935.816Z" fill="#000000" fill-rule="nonzero" fill-opacity="1" transform="matrix(1.00315 0 0 1 -133.419 1637.67)"/><path d="M25.1513-54.751 25.1513-6.75833C25.1513-5.04736 25.4935-3.96375 26.1778-3.50749 27.1474-2.93717 29.4572-2.652 33.1073-2.652L35.8448-2.652 35.8448 0C33.8487-0.171097 29.2291-0.256646 21.986-0.256646 14.7429-0.256646 10.1232-0.171097 8.12711 0L8.12711-2.652 10.8647-2.652C15.2562-2.652 17.7656-3.1653 18.3929-4.19188L18.4785-4.27743C18.7066-4.73368 18.8207-5.56065 18.8207-6.75833L18.8207-51.0725C15.855-49.5896 12.1194-48.8482 7.61382-48.8482L7.61382-51.5002C14.4577-51.5002 19.6476-53.3252 23.1836-56.9753 24.2673-56.9753 24.8946-56.7757 25.0657-56.3765L25.0657-56.2909C25.1227-56.1198 25.1513-55.6065 25.1513-54.751Z" fill="#000000" fill-rule="nonzero" fill-opacity="1" transform="matrix(1.00315 0 0 1 584.022 2633.8)"/><path d="M38.4113-14.8854 38.4113-14.8854 36.0159 0 4.27743 0C4.27743-1.42581 4.44852-2.33833 4.79072-2.73755L5.21846-3.1653 21.6438-21.4727C27.6322-28.2025 30.6264-34.5046 30.6264-40.3789 30.6264-45.4548 29.0865-49.3045 26.0067-51.9279L25.9212-52.0135 25.8356-52.0135C24.0106-53.5534 21.7864-54.3233 19.1629-54.3233 15.0565-54.3233 11.7772-52.5553 9.32479-49.0193 8.6404-47.9927 8.07008-46.8521 7.61382-45.5974 7.78491-45.6544 8.15563-45.6829 8.72595-45.6829 11.0072-45.6829 12.4616-44.6563 13.0889-42.6032L13.0889-42.5176C13.203-42.1184 13.26-41.6906 13.26-41.2344 13.26-38.9531 12.1764-37.4988 10.0092-36.8714 9.55292-36.7573 9.15369-36.7003 8.8115-36.7003 6.7013-36.7003 5.30401-37.5843 4.61962-39.3523 4.39149-39.9797 4.27743-40.6926 4.27743-41.491 4.27743-45.8825 5.95988-49.6467 9.32479-52.7834 12.3475-55.578 15.9976-56.9753 20.275-56.9753 26.5486-56.9753 31.4248-54.8651 34.9038-50.6447 36.8999-48.1923 38.0406-45.2837 38.3257-41.9188 38.3828-41.4055 38.4113-40.8922 38.4113-40.3789 38.4113-36.2155 36.8429-32.2518 33.7061-28.4877 32.0522-26.5486 29.4857-23.9821 26.0067-20.7883L20.7883-16.1687 19.9328-15.3987 10.8647-6.58724 26.2634-6.58724C31.2822-6.58724 33.9913-6.81536 34.3905-7.27162 34.9608-8.07008 35.5882-10.608 36.2726-14.8854L38.4113-14.8854Z" fill="#000000" fill-rule="nonzero" fill-opacity="1" transform="matrix(1.00315 0 0 1 587.455 2811.74)"/><path d="M24.8091-30.1131 24.8091-30.1131C30.5123-28.9724 34.6186-26.1778 37.1281-21.7293 38.4398-19.5051 39.0957-17.1382 39.0957-14.6288 39.0957-9.78105 37.0995-5.70323 33.1073-2.39536 29.6283 0.456259 25.5505 1.88207 20.8738 1.88207 15.2276 1.88207 10.6936 0.199613 7.27162-3.1653 4.81923-5.56065 3.59304-8.35524 3.59304-11.5491 3.59304-14.2296 4.79072-15.8265 7.18608-16.3398 7.5853-16.4538 7.98453-16.5109 8.38375-16.5109 10.551-16.5109 12.0053-15.5983 12.7467-13.7733 12.9749-13.0319 13.1174-12.3475 13.1745-11.7201 13.1745-9.43885 12.1479-7.95601 10.0947-7.27162 9.29627-6.98646 8.44079-6.90091 7.52827-7.01498 9.63847-3.47897 13.2885-1.36878 18.4785-0.684388 19.2199-0.570323 19.9328-0.513291 20.6172-0.513291 24.2673-0.513291 26.9478-2.30981 28.6588-5.90285 29.7424-8.18414 30.2842-11.0928 30.2842-14.6288 30.2842-22.2141 28.0029-26.7767 23.4403-28.3166 22.4137-28.6588 21.3016-28.8299 20.1039-28.8299L16.3398-28.8299C15.0851-28.8299 14.4007-29.1435 14.2866-29.7709 14.2866-30.3412 14.7143-30.6834 15.5698-30.7975 16.4253-30.7975 17.5374-30.883 18.9062-31.0541 21.8149-31.1682 24.0962-32.2803 25.7501-34.3905L25.7501-34.4761 25.8356-34.5616 25.9212-34.6471 26.0067-34.6471 26.52-35.5026C28.1169-38.1832 28.9154-41.434 28.9154-45.2552 28.9154-50.5592 26.8622-53.6674 22.7559-54.58 22.0715-54.751 21.3871-54.8366 20.7027-54.8366 16.7105-54.8366 13.4596-53.6959 10.9502-51.4147 10.3229-50.8443 9.78105-50.217 9.32479-49.5326 12.8608-49.5326 14.6288-48.1068 14.6288-45.2552 14.6288-43.202 13.7448-41.8332 11.9768-41.1488 11.4635-40.9777 10.8932-40.8922 10.2658-40.8922 8.04156-40.8922 6.64427-41.8903 6.07394-43.8864L6.07394-43.9719C5.95988-44.4282 5.90285-44.8845 5.90285-45.3407 5.90285-49.1619 7.78491-52.2131 11.5491-54.4944 14.2866-56.1483 17.4519-56.9753 21.0449-56.9753 26.2349-56.9753 30.4268-55.4354 33.6206-52.3557L33.7917-52.1846C35.7878-50.1314 36.7859-47.7931 36.7859-45.1696 36.7859-40.4359 34.7612-36.4722 30.7119-33.2784 28.9439-31.9096 26.9763-30.8545 24.8091-30.1131Z" fill="#000000" fill-rule="nonzero" fill-opacity="1" transform="matrix(1.00315 0 0 1 597.753 2989.68)"/><path d="M2.39536-14.1155 2.39536-16.7675 28.6588-56.8898C29.115-57.5742 29.6853-57.9163 30.3697-57.9163 31.1682-57.9163 31.6244-57.6027 31.7385-56.9753L31.7385-55.6921 31.7385-16.7675 40.2934-16.7675 40.2934-14.1155 31.7385-14.1155 31.7385-6.67278C31.7385-4.90478 32.0807-3.82117 32.7651-3.42194 33.5635-2.90865 35.3886-2.652 38.2402-2.652L40.0367-2.652 40.0367 0C37.6984-0.171097 33.8202-0.256646 28.4021-0.256646 23.0411-0.256646 19.1914-0.171097 16.8531 0L16.8531-2.652 18.6496-2.652C22.1856-2.652 24.2387-3.13678 24.8091-4.10633 25.0372-4.50556 25.1513-5.36104 25.1513-6.67278L25.1513-14.1155 2.39536-14.1155M25.6646-16.7675 25.6646-48.6771 4.79072-16.7675 25.6646-16.7675Z" fill="#000000" fill-rule="nonzero" fill-opacity="1" transform="matrix(1.00315 0 0 1 601.186 3174.46)"/><path d="M25.1513-54.751 25.1513-6.75833C25.1513-5.04736 25.4935-3.96375 26.1778-3.50749 27.1474-2.93717 29.4572-2.652 33.1073-2.652L35.8448-2.652 35.8448 0C33.8487-0.171097 29.2291-0.256646 21.986-0.256646 14.7429-0.256646 10.1232-0.171097 8.12711 0L8.12711-2.652 10.8647-2.652C15.2562-2.652 17.7656-3.1653 18.3929-4.19188L18.4785-4.27743C18.7066-4.73368 18.8207-5.56065 18.8207-6.75833L18.8207-51.0725C15.855-49.5896 12.1194-48.8482 7.61382-48.8482L7.61382-51.5002C14.4577-51.5002 19.6476-53.3252 23.1836-56.9753 24.2673-56.9753 24.8946-56.7757 25.0657-56.3765L25.0657-56.2909C25.1227-56.1198 25.1513-55.6065 25.1513-54.751Z" fill="#000000" fill-rule="nonzero" fill-opacity="1" transform="matrix(1.00315 0 0 1 1534.89 2633.8)"/><path d="M39.3523-27.3755C39.3523-19.0488 38.2972-12.6041 36.187-8.04156 32.8221-1.65394 27.8603 1.65394 21.3016 1.88207 16.1116 1.88207 11.9483-0.171097 8.8115-4.27743 8.18414-5.01885 7.64233-5.84582 7.18608-6.75833 4.61962-11.492 3.33639-18.3644 3.33639-27.3755 3.33639-35.7593 4.39149-42.2325 6.50169-46.795 9.3533-53.1827 13.9729-56.5761 20.3605-56.9753L21.3871-56.9753C26.463-56.9753 30.5979-54.9507 33.7917-50.9014L33.7917-50.8158C34.5901-49.7892 35.303-48.6486 35.9304-47.3939 38.2117-42.5461 39.3523-35.8733 39.3523-27.3755M21.3016 0C24.8946 0 27.6607-1.73949 29.5998-5.21846 30.3982-6.75833 30.9686-8.58337 31.3108-10.6936 31.9381-14.3436 32.2518-20.2465 32.2518-28.4021 32.2518-36.3296 31.9666-41.8903 31.3963-45.0841 30.3697-50.5021 27.7462-53.753 23.5258-54.8366 22.7844-55.0077 22.043-55.0932 21.3016-55.0932 17.3093-55.0932 14.4007-53.0971 12.5756-49.1048 11.9483-47.7361 11.4635-46.0821 11.1213-44.143 10.665-41.0633 10.4369-35.8163 10.4369-28.4021 10.4369-19.7902 10.7506-13.7733 11.378-10.3514 12.4045-4.87627 14.914-1.53987 18.9062-0.342194 19.7047-0.114065 20.5031 0 21.3016 0Z" fill="#000000" fill-rule="nonzero" fill-opacity="1" transform="matrix(1.00315 0 0 1 1577.8 2633.8)"/><path d="M38.4113-14.8854 38.4113-14.8854 36.0159 0 4.27743 0C4.27743-1.42581 4.44852-2.33833 4.79072-2.73755L5.21846-3.1653 21.6438-21.4727C27.6322-28.2025 30.6264-34.5046 30.6264-40.3789 30.6264-45.4548 29.0865-49.3045 26.0067-51.9279L25.9212-52.0135 25.8356-52.0135C24.0106-53.5534 21.7864-54.3233 19.1629-54.3233 15.0565-54.3233 11.7772-52.5553 9.32479-49.0193 8.6404-47.9927 8.07008-46.8521 7.61382-45.5974 7.78491-45.6544 8.15563-45.6829 8.72595-45.6829 11.0072-45.6829 12.4616-44.6563 13.0889-42.6032L13.0889-42.5176C13.203-42.1184 13.26-41.6906 13.26-41.2344 13.26-38.9531 12.1764-37.4988 10.0092-36.8714 9.55292-36.7573 9.15369-36.7003 8.8115-36.7003 6.7013-36.7003 5.30401-37.5843 4.61962-39.3523 4.39149-39.9797 4.27743-40.6926 4.27743-41.491 4.27743-45.8825 5.95988-49.6467 9.32479-52.7834 12.3475-55.578 15.9976-56.9753 20.275-56.9753 26.5486-56.9753 31.4248-54.8651 34.9038-50.6447 36.8999-48.1923 38.0406-45.2837 38.3257-41.9188 38.3828-41.4055 38.4113-40.8922 38.4113-40.3789 38.4113-36.2155 36.8429-32.2518 33.7061-28.4877 32.0522-26.5486 29.4857-23.9821 26.0067-20.7883L20.7883-16.1687 19.9328-15.3987 10.8647-6.58724 26.2634-6.58724C31.2822-6.58724 33.9913-6.81536 34.3905-7.27162 34.9608-8.07008 35.5882-10.608 36.2726-14.8854L38.4113-14.8854Z" fill="#000000" fill-rule="nonzero" fill-opacity="1" transform="matrix(1.00315 0 0 1 1528.02 2818.58)"/><path d="M39.3523-27.3755C39.3523-19.0488 38.2972-12.6041 36.187-8.04156 32.8221-1.65394 27.8603 1.65394 21.3016 1.88207 16.1116 1.88207 11.9483-0.171097 8.8115-4.27743 8.18414-5.01885 7.64233-5.84582 7.18608-6.75833 4.61962-11.492 3.33639-18.3644 3.33639-27.3755 3.33639-35.7593 4.39149-42.2325 6.50169-46.795 9.3533-53.1827 13.9729-56.5761 20.3605-56.9753L21.3871-56.9753C26.463-56.9753 30.5979-54.9507 33.7917-50.9014L33.7917-50.8158C34.5901-49.7892 35.303-48.6486 35.9304-47.3939 38.2117-42.5461 39.3523-35.8733 39.3523-27.3755M21.3016 0C24.8946 0 27.6607-1.73949 29.5998-5.21846 30.3982-6.75833 30.9686-8.58337 31.3108-10.6936 31.9381-14.3436 32.2518-20.2465 32.2518-28.4021 32.2518-36.3296 31.9666-41.8903 31.3963-45.0841 30.3697-50.5021 27.7462-53.753 23.5258-54.8366 22.7844-55.0077 22.043-55.0932 21.3016-55.0932 17.3093-55.0932 14.4007-53.0971 12.5756-49.1048 11.9483-47.7361 11.4635-46.0821 11.1213-44.143 10.665-41.0633 10.4369-35.8163 10.4369-28.4021 10.4369-19.7902 10.7506-13.7733 11.378-10.3514 12.4045-4.87627 14.914-1.53987 18.9062-0.342194 19.7047-0.114065 20.5031 0 21.3016 0Z" fill="#000000" fill-rule="nonzero" fill-opacity="1" transform="matrix(1.00315 0 0 1 1570.93 2818.58)"/><path d="M24.8091-30.1131 24.8091-30.1131C30.5123-28.9724 34.6186-26.1778 37.1281-21.7293 38.4398-19.5051 39.0957-17.1382 39.0957-14.6288 39.0957-9.78105 37.0995-5.70323 33.1073-2.39536 29.6283 0.456259 25.5505 1.88207 20.8738 1.88207 15.2276 1.88207 10.6936 0.199613 7.27162-3.1653 4.81923-5.56065 3.59304-8.35524 3.59304-11.5491 3.59304-14.2296 4.79072-15.8265 7.18608-16.3398 7.5853-16.4538 7.98453-16.5109 8.38375-16.5109 10.551-16.5109 12.0053-15.5983 12.7467-13.7733 12.9749-13.0319 13.1174-12.3475 13.1745-11.7201 13.1745-9.43885 12.1479-7.95601 10.0947-7.27162 9.29627-6.98646 8.44079-6.90091 7.52827-7.01498 9.63847-3.47897 13.2885-1.36878 18.4785-0.684388 19.2199-0.570323 19.9328-0.513291 20.6172-0.513291 24.2673-0.513291 26.9478-2.30981 28.6588-5.90285 29.7424-8.18414 30.2842-11.0928 30.2842-14.6288 30.2842-22.2141 28.0029-26.7767 23.4403-28.3166 22.4137-28.6588 21.3016-28.8299 20.1039-28.8299L16.3398-28.8299C15.0851-28.8299 14.4007-29.1435 14.2866-29.7709 14.2866-30.3412 14.7143-30.6834 15.5698-30.7975 16.4253-30.7975 17.5374-30.883 18.9062-31.0541 21.8149-31.1682 24.0962-32.2803 25.7501-34.3905L25.7501-34.4761 25.8356-34.5616 25.9212-34.6471 26.0067-34.6471 26.52-35.5026C28.1169-38.1832 28.9154-41.434 28.9154-45.2552 28.9154-50.5592 26.8622-53.6674 22.7559-54.58 22.0715-54.751 21.3871-54.8366 20.7027-54.8366 16.7105-54.8366 13.4596-53.6959 10.9502-51.4147 10.3229-50.8443 9.78105-50.217 9.32479-49.5326 12.8608-49.5326 14.6288-48.1068 14.6288-45.2552 14.6288-43.202 13.7448-41.8332 11.9768-41.1488 11.4635-40.9777 10.8932-40.8922 10.2658-40.8922 8.04156-40.8922 6.64427-41.8903 6.07394-43.8864L6.07394-43.9719C5.95988-44.4282 5.90285-44.8845 5.90285-45.3407 5.90285-49.1619 7.78491-52.2131 11.5491-54.4944 14.2866-56.1483 17.4519-56.9753 21.0449-56.9753 26.2349-56.9753 30.4268-55.4354 33.6206-52.3557L33.7917-52.1846C35.7878-50.1314 36.7859-47.7931 36.7859-45.1696 36.7859-40.4359 34.7612-36.4722 30.7119-33.2784 28.9439-31.9096 26.9763-30.8545 24.8091-30.1131Z" fill="#000000" fill-rule="nonzero" fill-opacity="1" transform="matrix(1.00315 0 0 1 1538.32 2996.52)"/><path d="M39.3523-27.3755C39.3523-19.0488 38.2972-12.6041 36.187-8.04156 32.8221-1.65394 27.8603 1.65394 21.3016 1.88207 16.1116 1.88207 11.9483-0.171097 8.8115-4.27743 8.18414-5.01885 7.64233-5.84582 7.18608-6.75833 4.61962-11.492 3.33639-18.3644 3.33639-27.3755 3.33639-35.7593 4.39149-42.2325 6.50169-46.795 9.3533-53.1827 13.9729-56.5761 20.3605-56.9753L21.3871-56.9753C26.463-56.9753 30.5979-54.9507 33.7917-50.9014L33.7917-50.8158C34.5901-49.7892 35.303-48.6486 35.9304-47.3939 38.2117-42.5461 39.3523-35.8733 39.3523-27.3755M21.3016 0C24.8946 0 27.6607-1.73949 29.5998-5.21846 30.3982-6.75833 30.9686-8.58337 31.3108-10.6936 31.9381-14.3436 32.2518-20.2465 32.2518-28.4021 32.2518-36.3296 31.9666-41.8903 31.3963-45.0841 30.3697-50.5021 27.7462-53.753 23.5258-54.8366 22.7844-55.0077 22.043-55.0932 21.3016-55.0932 17.3093-55.0932 14.4007-53.0971 12.5756-49.1048 11.9483-47.7361 11.4635-46.0821 11.1213-44.143 10.665-41.0633 10.4369-35.8163 10.4369-28.4021 10.4369-19.7902 10.7506-13.7733 11.378-10.3514 12.4045-4.87627 14.914-1.53987 18.9062-0.342194 19.7047-0.114065 20.5031 0 21.3016 0Z" fill="#000000" fill-rule="nonzero" fill-opacity="1" transform="matrix(1.00315 0 0 1 1581.23 2996.52)"/><path d="M2.39536-14.1155 2.39536-16.7675 28.6588-56.8898C29.115-57.5742 29.6853-57.9163 30.3697-57.9163 31.1682-57.9163 31.6244-57.6027 31.7385-56.9753L31.7385-55.6921 31.7385-16.7675 40.2934-16.7675 40.2934-14.1155 31.7385-14.1155 31.7385-6.67278C31.7385-4.90478 32.0807-3.82117 32.7651-3.42194 33.5635-2.90865 35.3886-2.652 38.2402-2.652L40.0367-2.652 40.0367 0C37.6984-0.171097 33.8202-0.256646 28.4021-0.256646 23.0411-0.256646 19.1914-0.171097 16.8531 0L16.8531-2.652 18.6496-2.652C22.1856-2.652 24.2387-3.13678 24.8091-4.10633 25.0372-4.50556 25.1513-5.36104 25.1513-6.67278L25.1513-14.1155 2.39536-14.1155M25.6646-16.7675 25.6646-48.6771 4.79072-16.7675 25.6646-16.7675Z" fill="#000000" fill-rule="nonzero" fill-opacity="1" transform="matrix(1.00315 0 0 1 1534.89 3177.89)"/><path d="M39.3523-27.3755C39.3523-19.0488 38.2972-12.6041 36.187-8.04156 32.8221-1.65394 27.8603 1.65394 21.3016 1.88207 16.1116 1.88207 11.9483-0.171097 8.8115-4.27743 8.18414-5.01885 7.64233-5.84582 7.18608-6.75833 4.61962-11.492 3.33639-18.3644 3.33639-27.3755 3.33639-35.7593 4.39149-42.2325 6.50169-46.795 9.3533-53.1827 13.9729-56.5761 20.3605-56.9753L21.3871-56.9753C26.463-56.9753 30.5979-54.9507 33.7917-50.9014L33.7917-50.8158C34.5901-49.7892 35.303-48.6486 35.9304-47.3939 38.2117-42.5461 39.3523-35.8733 39.3523-27.3755M21.3016 0C24.8946 0 27.6607-1.73949 29.5998-5.21846 30.3982-6.75833 30.9686-8.58337 31.3108-10.6936 31.9381-14.3436 32.2518-20.2465 32.2518-28.4021 32.2518-36.3296 31.9666-41.8903 31.3963-45.0841 30.3697-50.5021 27.7462-53.753 23.5258-54.8366 22.7844-55.0077 22.043-55.0932 21.3016-55.0932 17.3093-55.0932 14.4007-53.0971 12.5756-49.1048 11.9483-47.7361 11.4635-46.0821 11.1213-44.143 10.665-41.0633 10.4369-35.8163 10.4369-28.4021 10.4369-19.7902 10.7506-13.7733 11.378-10.3514 12.4045-4.87627 14.914-1.53987 18.9062-0.342194 19.7047-0.114065 20.5031 0 21.3016 0Z" fill="#000000" fill-rule="nonzero" fill-opacity="1" transform="matrix(1.00315 0 0 1 1577.8 3177.89)"/></g></g></g></g><text fill="#000000" fill-opacity="1" font-family="TH SarabunPSK,TH SarabunPSK_MSFontService,sans-serif" font-style="normal" font-variant="normal" font-weight="700" font-stretch="normal" font-size="92" text-anchor="start" direction="ltr" writing-mode="lr-tb" unicode-bidi="normal" text-decoration="none" transform="matrix(1 0 0 1 353.351 2433)">จำนวนลูกชิ้นปิ้ง (ไม้)</text><text fill="#000000" fill-opacity="1" font-family="TH SarabunPSK,TH SarabunPSK_MSFontService,sans-serif" font-style="normal" font-variant="normal" font-weight="700" font-stretch="normal" font-size="92" text-anchor="start" direction="ltr" writing-mode="lr-tb" unicode-bidi="normal" text-decoration="none" transform="matrix(1 0 0 1 1389.68 2433)">ราคาขาย (บาท)</text></g></g></svg>