<svg width="1737" height="999" xmlns="http://www.w3.org/2000/svg" xmlns:xlink="http://www.w3.org/1999/xlink" xml:space="preserve" overflow="hidden"><defs><clipPath id="clip0"><rect x="238" y="550" width="1737" height="999"/></clipPath><clipPath id="clip1"><rect x="238" y="550" width="1737" height="999"/></clipPath><clipPath id="clip2"><rect x="330" y="751" width="1558" height="797"/></clipPath><clipPath id="clip3"><rect x="330" y="751" width="1558" height="797"/></clipPath><clipPath id="clip4"><rect x="330" y="751" width="1558" height="797"/></clipPath><clipPath id="clip5"><rect x="330" y="751" width="1558" height="797"/></clipPath></defs><g clip-path="url(#clip0)" transform="translate(-238 -550)"><g clip-path="url(#clip1)"><g clip-path="url(#clip2)"><g clip-path="url(#clip3)"><g clip-path="url(#clip4)"><g clip-path="url(#clip5)"><path d="M0 0 2886.99 0 2886.99 3683.99 0 3683.99Z" fill="#FFFFFF" fill-rule="nonzero" fill-opacity="1" transform="matrix(1.00325 0 0 1 -112.692 -117.832)"/><path d="M1.7103 2950.27 2881.86 2950.27" stroke="#252525" stroke-width="3.4206" stroke-linecap="butt" stroke-linejoin="miter" stroke-miterlimit="10" stroke-opacity="1" fill="none" fill-rule="nonzero" transform="matrix(1.00325 0 0 1 -112.692 -117.832)"/><path d="M2885.28 2950.27 2871.59 2936.58" stroke="#252525" stroke-width="3.4206" stroke-linecap="butt" stroke-linejoin="miter" stroke-miterlimit="10" stroke-opacity="1" fill="none" fill-rule="nonzero" transform="matrix(1.00325 0 0 1 -112.692 -117.832)"/><path d="M2885.28 2950.27 2871.59 2963.95" stroke="#252525" stroke-width="3.4206" stroke-linecap="butt" stroke-linejoin="miter" stroke-miterlimit="10" stroke-opacity="1" fill="none" fill-rule="nonzero" transform="matrix(1.00325 0 0 1 -112.692 -117.832)"/><text fill="#252525" fill-opacity="1" font-family="Arial,Arial_MSFontService,sans-serif" font-style="normal" font-variant="normal" font-weight="400" font-stretch="normal" font-size="12" text-anchor="start" direction="ltr" writing-mode="lr-tb" unicode-bidi="normal" text-decoration="none" transform="matrix(3.43172 0 0 3.4206 -64.6475 2885)">–16</text><path d="M76.9635 2950.27 76.9635 2960.53" stroke="#252525" stroke-width="3.4206" stroke-linecap="butt" stroke-linejoin="miter" stroke-miterlimit="10" stroke-opacity="1" fill="none" fill-rule="nonzero" transform="matrix(1.00325 0 0 1 -112.692 -117.832)"/><text fill="#252525" fill-opacity="1" font-family="Arial,Arial_MSFontService,sans-serif" font-style="normal" font-variant="normal" font-weight="400" font-stretch="normal" font-size="12" text-anchor="start" direction="ltr" writing-mode="lr-tb" unicode-bidi="normal" text-decoration="none" transform="matrix(3.43172 0 0 3.4206 124.097 2885)">–15</text><path d="M265.096 2950.27 265.096 2960.53" stroke="#252525" stroke-width="3.4206" stroke-linecap="butt" stroke-linejoin="miter" stroke-miterlimit="10" stroke-opacity="1" fill="none" fill-rule="nonzero" transform="matrix(1.00325 0 0 1 -112.692 -117.832)"/><text fill="#252525" fill-opacity="1" font-family="Arial,Arial_MSFontService,sans-serif" font-style="normal" font-variant="normal" font-weight="400" font-stretch="normal" font-size="12" text-anchor="start" direction="ltr" writing-mode="lr-tb" unicode-bidi="normal" text-decoration="none" transform="matrix(3.43172 0 0 3.4206 312.841 2885)">–14</text><path d="M453.229 2950.27 453.229 2960.53" stroke="#252525" stroke-width="3.4206" stroke-linecap="butt" stroke-linejoin="miter" stroke-miterlimit="10" stroke-opacity="1" fill="none" fill-rule="nonzero" transform="matrix(1.00325 0 0 1 -112.692 -117.832)"/><text fill="#252525" fill-opacity="1" font-family="Arial,Arial_MSFontService,sans-serif" font-style="normal" font-variant="normal" font-weight="400" font-stretch="normal" font-size="12" text-anchor="start" direction="ltr" writing-mode="lr-tb" unicode-bidi="normal" text-decoration="none" transform="matrix(3.43172 0 0 3.4206 501.586 2885)">–13</text><path d="M641.362 2950.27 641.362 2960.53" stroke="#252525" stroke-width="3.4206" stroke-linecap="butt" stroke-linejoin="miter" stroke-miterlimit="10" stroke-opacity="1" fill="none" fill-rule="nonzero" transform="matrix(1.00325 0 0 1 -112.692 -117.832)"/><text fill="#252525" fill-opacity="1" font-family="Arial,Arial_MSFontService,sans-serif" font-style="normal" font-variant="normal" font-weight="400" font-stretch="normal" font-size="12" text-anchor="start" direction="ltr" writing-mode="lr-tb" unicode-bidi="normal" text-decoration="none" transform="matrix(3.43172 0 0 3.4206 690.33 2885)">–12</text><path d="M829.495 2950.27 829.495 2960.53" stroke="#252525" stroke-width="3.4206" stroke-linecap="butt" stroke-linejoin="miter" stroke-miterlimit="10" stroke-opacity="1" fill="none" fill-rule="nonzero" transform="matrix(1.00325 0 0 1 -112.692 -117.832)"/><text fill="#252525" fill-opacity="1" font-family="Arial,Arial_MSFontService,sans-serif" font-style="normal" font-variant="normal" font-weight="400" font-stretch="normal" font-size="12" text-anchor="start" direction="ltr" writing-mode="lr-tb" unicode-bidi="normal" text-decoration="none" transform="matrix(3.43172 0 0 3.4206 879.075 2885)">–11</text><path d="M1017.63 2950.27 1017.63 2960.53" stroke="#252525" stroke-width="3.4206" stroke-linecap="butt" stroke-linejoin="miter" stroke-miterlimit="10" stroke-opacity="1" fill="none" fill-rule="nonzero" transform="matrix(1.00325 0 0 1 -112.692 -117.832)"/><text fill="#252525" fill-opacity="1" font-family="Arial,Arial_MSFontService,sans-serif" font-style="normal" font-variant="normal" font-weight="400" font-stretch="normal" font-size="12" text-anchor="start" direction="ltr" writing-mode="lr-tb" unicode-bidi="normal" text-decoration="none" transform="matrix(3.43172 0 0 3.4206 1067.82 2885)">–10</text><path d="M1205.76 2950.27 1205.76 2960.53" stroke="#252525" stroke-width="3.4206" stroke-linecap="butt" stroke-linejoin="miter" stroke-miterlimit="10" stroke-opacity="1" fill="none" fill-rule="nonzero" transform="matrix(1.00325 0 0 1 -112.692 -117.832)"/><text fill="#252525" fill-opacity="1" font-family="Arial,Arial_MSFontService,sans-serif" font-style="normal" font-variant="normal" font-weight="400" font-stretch="normal" font-size="12" text-anchor="start" direction="ltr" writing-mode="lr-tb" unicode-bidi="normal" text-decoration="none" transform="matrix(3.43172 0 0 3.4206 1266.86 2885)">–9</text><path d="M1393.89 2950.27 1393.89 2960.53" stroke="#252525" stroke-width="3.4206" stroke-linecap="butt" stroke-linejoin="miter" stroke-miterlimit="10" stroke-opacity="1" fill="none" fill-rule="nonzero" transform="matrix(1.00325 0 0 1 -112.692 -117.832)"/><text fill="#252525" fill-opacity="1" font-family="Arial,Arial_MSFontService,sans-serif" font-style="normal" font-variant="normal" font-weight="400" font-stretch="normal" font-size="12" text-anchor="start" direction="ltr" writing-mode="lr-tb" unicode-bidi="normal" text-decoration="none" transform="matrix(3.43172 0 0 3.4206 1455.6 2885)">–8</text><path d="M1582.03 2950.27 1582.03 2960.53" stroke="#252525" stroke-width="3.4206" stroke-linecap="butt" stroke-linejoin="miter" stroke-miterlimit="10" stroke-opacity="1" fill="none" fill-rule="nonzero" transform="matrix(1.00325 0 0 1 -112.692 -117.832)"/><text fill="#252525" fill-opacity="1" font-family="Arial,Arial_MSFontService,sans-serif" font-style="normal" font-variant="normal" font-weight="400" font-stretch="normal" font-size="12" text-anchor="start" direction="ltr" writing-mode="lr-tb" unicode-bidi="normal" text-decoration="none" transform="matrix(3.43172 0 0 3.4206 1644.35 2885)">–7</text><path d="M1770.16 2950.27 1770.16 2960.53" stroke="#252525" stroke-width="3.4206" stroke-linecap="butt" stroke-linejoin="miter" stroke-miterlimit="10" stroke-opacity="1" fill="none" fill-rule="nonzero" transform="matrix(1.00325 0 0 1 -112.692 -117.832)"/><text fill="#252525" fill-opacity="1" font-family="Arial,Arial_MSFontService,sans-serif" font-style="normal" font-variant="normal" font-weight="400" font-stretch="normal" font-size="12" text-anchor="start" direction="ltr" writing-mode="lr-tb" unicode-bidi="normal" text-decoration="none" transform="matrix(3.43172 0 0 3.4206 1833.09 2885)">–6</text><path d="M1958.29 2950.27 1958.29 2960.53" stroke="#252525" stroke-width="3.4206" stroke-linecap="butt" stroke-linejoin="miter" stroke-miterlimit="10" stroke-opacity="1" fill="none" fill-rule="nonzero" transform="matrix(1.00325 0 0 1 -112.692 -117.832)"/><text fill="#252525" fill-opacity="1" font-family="Arial,Arial_MSFontService,sans-serif" font-style="normal" font-variant="normal" font-weight="400" font-stretch="normal" font-size="12" text-anchor="start" direction="ltr" writing-mode="lr-tb" unicode-bidi="normal" text-decoration="none" transform="matrix(3.43172 0 0 3.4206 2021.84 2885)">–5</text><path d="M2146.43 2950.27 2146.43 2960.53" stroke="#252525" stroke-width="3.4206" stroke-linecap="butt" stroke-linejoin="miter" stroke-miterlimit="10" stroke-opacity="1" fill="none" fill-rule="nonzero" transform="matrix(1.00325 0 0 1 -112.692 -117.832)"/><text fill="#252525" fill-opacity="1" font-family="Arial,Arial_MSFontService,sans-serif" font-style="normal" font-variant="normal" font-weight="400" font-stretch="normal" font-size="12" text-anchor="start" direction="ltr" writing-mode="lr-tb" unicode-bidi="normal" text-decoration="none" transform="matrix(3.43172 0 0 3.4206 2210.58 2885)">–4</text><path d="M2334.56 2950.27 2334.56 2960.53" stroke="#252525" stroke-width="3.4206" stroke-linecap="butt" stroke-linejoin="miter" stroke-miterlimit="10" stroke-opacity="1" fill="none" fill-rule="nonzero" transform="matrix(1.00325 0 0 1 -112.692 -117.832)"/><text fill="#252525" fill-opacity="1" font-family="Arial,Arial_MSFontService,sans-serif" font-style="normal" font-variant="normal" font-weight="400" font-stretch="normal" font-size="12" text-anchor="start" direction="ltr" writing-mode="lr-tb" unicode-bidi="normal" text-decoration="none" transform="matrix(3.43172 0 0 3.4206 2399.33 2885)">–3</text><path d="M2522.69 2950.27 2522.69 2960.53" stroke="#252525" stroke-width="3.4206" stroke-linecap="butt" stroke-linejoin="miter" stroke-miterlimit="10" stroke-opacity="1" fill="none" fill-rule="nonzero" transform="matrix(1.00325 0 0 1 -112.692 -117.832)"/><text fill="#252525" fill-opacity="1" font-family="Arial,Arial_MSFontService,sans-serif" font-style="normal" font-variant="normal" font-weight="400" font-stretch="normal" font-size="12" text-anchor="start" direction="ltr" writing-mode="lr-tb" unicode-bidi="normal" text-decoration="none" transform="matrix(3.43172 0 0 3.4206 2588.07 2885)">–2</text><path d="M2710.83 2950.27 2710.83 2960.53" stroke="#252525" stroke-width="3.4206" stroke-linecap="butt" stroke-linejoin="miter" stroke-miterlimit="10" stroke-opacity="1" fill="none" fill-rule="nonzero" transform="matrix(1.00325 0 0 1 -112.692 -117.832)"/><path d="M3076.83 3514.67 3087.09 3514.67" stroke="#252525" stroke-width="3.4206" stroke-linecap="butt" stroke-linejoin="miter" stroke-miterlimit="10" stroke-opacity="1" fill="none" fill-rule="nonzero" transform="matrix(1.00325 0 0 1 -112.692 -117.832)"/><path d="M3076.83 3326.53 3087.09 3326.53" stroke="#252525" stroke-width="3.4206" stroke-linecap="butt" stroke-linejoin="miter" stroke-miterlimit="10" stroke-opacity="1" fill="none" fill-rule="nonzero" transform="matrix(1.00325 0 0 1 -112.692 -117.832)"/><path d="M3076.83 3138.4 3087.09 3138.4" stroke="#252525" stroke-width="3.4206" stroke-linecap="butt" stroke-linejoin="miter" stroke-miterlimit="10" stroke-opacity="1" fill="none" fill-rule="nonzero" transform="matrix(1.00325 0 0 1 -112.692 -117.832)"/><path d="M3076.83 2762.13 3087.09 2762.13" stroke="#252525" stroke-width="3.4206" stroke-linecap="butt" stroke-linejoin="miter" stroke-miterlimit="10" stroke-opacity="1" fill="none" fill-rule="nonzero" transform="matrix(1.00325 0 0 1 -112.692 -117.832)"/><path d="M3076.83 2574 3087.09 2574" stroke="#252525" stroke-width="3.4206" stroke-linecap="butt" stroke-linejoin="miter" stroke-miterlimit="10" stroke-opacity="1" fill="none" fill-rule="nonzero" transform="matrix(1.00325 0 0 1 -112.692 -117.832)"/><path d="M3076.83 2385.87 3087.09 2385.87" stroke="#252525" stroke-width="3.4206" stroke-linecap="butt" stroke-linejoin="miter" stroke-miterlimit="10" stroke-opacity="1" fill="none" fill-rule="nonzero" transform="matrix(1.00325 0 0 1 -112.692 -117.832)"/><path d="M3076.83 2197.74 3087.09 2197.74" stroke="#252525" stroke-width="3.4206" stroke-linecap="butt" stroke-linejoin="miter" stroke-miterlimit="10" stroke-opacity="1" fill="none" fill-rule="nonzero" transform="matrix(1.00325 0 0 1 -112.692 -117.832)"/><path d="M3076.83 2009.6 3087.09 2009.6" stroke="#252525" stroke-width="3.4206" stroke-linecap="butt" stroke-linejoin="miter" stroke-miterlimit="10" stroke-opacity="1" fill="none" fill-rule="nonzero" transform="matrix(1.00325 0 0 1 -112.692 -117.832)"/><path d="M3076.83 1821.47 3087.09 1821.47" stroke="#252525" stroke-width="3.4206" stroke-linecap="butt" stroke-linejoin="miter" stroke-miterlimit="10" stroke-opacity="1" fill="none" fill-rule="nonzero" transform="matrix(1.00325 0 0 1 -112.692 -117.832)"/><path d="M3076.83 1633.34 3087.09 1633.34" stroke="#252525" stroke-width="3.4206" stroke-linecap="butt" stroke-linejoin="miter" stroke-miterlimit="10" stroke-opacity="1" fill="none" fill-rule="nonzero" transform="matrix(1.00325 0 0 1 -112.692 -117.832)"/><path d="M3076.83 1445.2 3087.09 1445.2" stroke="#252525" stroke-width="3.4206" stroke-linecap="butt" stroke-linejoin="miter" stroke-miterlimit="10" stroke-opacity="1" fill="none" fill-rule="nonzero" transform="matrix(1.00325 0 0 1 -112.692 -117.832)"/><path d="M3076.83 1257.07 3087.09 1257.07" stroke="#252525" stroke-width="3.4206" stroke-linecap="butt" stroke-linejoin="miter" stroke-miterlimit="10" stroke-opacity="1" fill="none" fill-rule="nonzero" transform="matrix(1.00325 0 0 1 -112.692 -117.832)"/><path d="M3076.83 1068.94 3087.09 1068.94" stroke="#252525" stroke-width="3.4206" stroke-linecap="butt" stroke-linejoin="miter" stroke-miterlimit="10" stroke-opacity="1" fill="none" fill-rule="nonzero" transform="matrix(1.00325 0 0 1 -112.692 -117.832)"/><path d="M3076.83 880.805 3087.09 880.805" stroke="#252525" stroke-width="3.4206" stroke-linecap="butt" stroke-linejoin="miter" stroke-miterlimit="10" stroke-opacity="1" fill="none" fill-rule="nonzero" transform="matrix(1.00325 0 0 1 -112.692 -117.832)"/><path d="M3076.83 692.672 3087.09 692.672" stroke="#252525" stroke-width="3.4206" stroke-linecap="butt" stroke-linejoin="miter" stroke-miterlimit="10" stroke-opacity="1" fill="none" fill-rule="nonzero" transform="matrix(1.00325 0 0 1 -112.692 -117.832)"/><path d="M3076.83 504.538 3087.09 504.538" stroke="#252525" stroke-width="3.4206" stroke-linecap="butt" stroke-linejoin="miter" stroke-miterlimit="10" stroke-opacity="1" fill="none" fill-rule="nonzero" transform="matrix(1.00325 0 0 1 -112.692 -117.832)"/><path d="M3076.83 316.405 3087.09 316.405" stroke="#252525" stroke-width="3.4206" stroke-linecap="butt" stroke-linejoin="miter" stroke-miterlimit="10" stroke-opacity="1" fill="none" fill-rule="nonzero" transform="matrix(1.00325 0 0 1 -112.692 -117.832)"/><path d="M3076.83 128.272 3087.09 128.272" stroke="#252525" stroke-width="3.4206" stroke-linecap="butt" stroke-linejoin="miter" stroke-miterlimit="10" stroke-opacity="1" fill="none" fill-rule="nonzero" transform="matrix(1.00325 0 0 1 -112.692 -117.832)"/><text fill="#252525" fill-opacity="1" font-family="Arial,Arial_MSFontService,sans-serif" font-style="normal" font-variant="normal" font-weight="400" font-stretch="normal" font-size="12" text-anchor="start" direction="ltr" writing-mode="lr-tb" unicode-bidi="normal" text-decoration="none" transform="matrix(3.43172 0 0 3.4206 2715.04 3412)">–3</text><text fill="#252525" fill-opacity="1" font-family="Arial,Arial_MSFontService,sans-serif" font-style="normal" font-variant="normal" font-weight="400" font-stretch="normal" font-size="12" text-anchor="start" direction="ltr" writing-mode="lr-tb" unicode-bidi="normal" text-decoration="none" transform="matrix(3.43172 0 0 3.4206 2715.04 3224)">–2</text><text fill="#252525" fill-opacity="1" font-family="Arial,Arial_MSFontService,sans-serif" font-style="normal" font-variant="normal" font-weight="400" font-stretch="normal" font-size="12" text-anchor="start" direction="ltr" writing-mode="lr-tb" unicode-bidi="normal" text-decoration="none" transform="matrix(3.43172 0 0 3.4206 2715.04 3036)">–1</text><text fill="#252525" fill-opacity="1" font-family="Arial,Arial_MSFontService,sans-serif" font-style="normal" font-variant="normal" font-weight="400" font-stretch="normal" font-size="12" text-anchor="start" direction="ltr" writing-mode="lr-tb" unicode-bidi="normal" text-decoration="none" transform="matrix(3.43172 0 0 3.4206 2735.63 2660)">1</text><text fill="#252525" fill-opacity="1" font-family="Arial,Arial_MSFontService,sans-serif" font-style="normal" font-variant="normal" font-weight="400" font-stretch="normal" font-size="12" text-anchor="start" direction="ltr" writing-mode="lr-tb" unicode-bidi="normal" text-decoration="none" transform="matrix(3.43172 0 0 3.4206 2735.63 2472)">2</text><text fill="#252525" fill-opacity="1" font-family="Arial,Arial_MSFontService,sans-serif" font-style="normal" font-variant="normal" font-weight="400" font-stretch="normal" font-size="12" text-anchor="start" direction="ltr" writing-mode="lr-tb" unicode-bidi="normal" text-decoration="none" transform="matrix(3.43172 0 0 3.4206 2735.63 2283)">3</text><text fill="#252525" fill-opacity="1" font-family="Arial,Arial_MSFontService,sans-serif" font-style="normal" font-variant="normal" font-weight="400" font-stretch="normal" font-size="12" text-anchor="start" direction="ltr" writing-mode="lr-tb" unicode-bidi="normal" text-decoration="none" transform="matrix(3.43172 0 0 3.4206 2735.63 2095)">4</text><text fill="#252525" fill-opacity="1" font-family="Arial,Arial_MSFontService,sans-serif" font-style="normal" font-variant="normal" font-weight="400" font-stretch="normal" font-size="12" text-anchor="start" direction="ltr" writing-mode="lr-tb" unicode-bidi="normal" text-decoration="none" transform="matrix(3.43172 0 0 3.4206 2735.63 1907)">5</text><text fill="#252525" fill-opacity="1" font-family="Arial,Arial_MSFontService,sans-serif" font-style="normal" font-variant="normal" font-weight="400" font-stretch="normal" font-size="12" text-anchor="start" direction="ltr" writing-mode="lr-tb" unicode-bidi="normal" text-decoration="none" transform="matrix(3.43172 0 0 3.4206 2735.63 1719)">6</text><text fill="#252525" fill-opacity="1" font-family="Arial,Arial_MSFontService,sans-serif" font-style="normal" font-variant="normal" font-weight="400" font-stretch="normal" font-size="12" text-anchor="start" direction="ltr" writing-mode="lr-tb" unicode-bidi="normal" text-decoration="none" transform="matrix(3.43172 0 0 3.4206 2735.63 1531)">7</text><text fill="#252525" fill-opacity="1" font-family="Arial,Arial_MSFontService,sans-serif" font-style="normal" font-variant="normal" font-weight="400" font-stretch="normal" font-size="12" text-anchor="start" direction="ltr" writing-mode="lr-tb" unicode-bidi="normal" text-decoration="none" transform="matrix(3.43172 0 0 3.4206 2735.63 1343)">8</text><text fill="#252525" fill-opacity="1" font-family="Arial,Arial_MSFontService,sans-serif" font-style="normal" font-variant="normal" font-weight="400" font-stretch="normal" font-size="12" text-anchor="start" direction="ltr" writing-mode="lr-tb" unicode-bidi="normal" text-decoration="none" transform="matrix(3.43172 0 0 3.4206 2735.63 1155)">9</text><text fill="#252525" fill-opacity="1" font-family="Arial,Arial_MSFontService,sans-serif" font-style="normal" font-variant="normal" font-weight="400" font-stretch="normal" font-size="12" text-anchor="start" direction="ltr" writing-mode="lr-tb" unicode-bidi="normal" text-decoration="none" transform="matrix(3.43172 0 0 3.4206 2715.04 966)">10</text><text fill="#252525" fill-opacity="1" font-family="Arial,Arial_MSFontService,sans-serif" font-style="normal" font-variant="normal" font-weight="400" font-stretch="normal" font-size="12" text-anchor="start" direction="ltr" writing-mode="lr-tb" unicode-bidi="normal" text-decoration="none" transform="matrix(3.43172 0 0 3.4206 2718.48 778)">11</text><text fill="#252525" fill-opacity="1" font-family="Arial,Arial_MSFontService,sans-serif" font-style="normal" font-variant="normal" font-weight="400" font-stretch="normal" font-size="12" text-anchor="start" direction="ltr" writing-mode="lr-tb" unicode-bidi="normal" text-decoration="none" transform="matrix(3.43172 0 0 3.4206 2715.04 590)">12</text><text fill="#252525" fill-opacity="1" font-family="Arial,Arial_MSFontService,sans-serif" font-style="normal" font-variant="normal" font-weight="400" font-stretch="normal" font-size="12" text-anchor="start" direction="ltr" writing-mode="lr-tb" unicode-bidi="normal" text-decoration="none" transform="matrix(3.43172 0 0 3.4206 2715.04 402)">13</text><text fill="#252525" fill-opacity="1" font-family="Arial,Arial_MSFontService,sans-serif" font-style="normal" font-variant="normal" font-weight="400" font-stretch="normal" font-size="12" text-anchor="start" direction="ltr" writing-mode="lr-tb" unicode-bidi="normal" text-decoration="none" transform="matrix(3.43172 0 0 3.4206 2715.04 214)">14</text><text fill="#252525" fill-opacity="1" font-family="Arial,Arial_MSFontService,sans-serif" font-style="normal" font-variant="normal" font-weight="400" font-stretch="normal" font-size="12" text-anchor="start" direction="ltr" writing-mode="lr-tb" unicode-bidi="normal" text-decoration="none" transform="matrix(3.43172 0 0 3.4206 2715.04 26)">15</text><path d="M742.872 1648.84C884.665 1647.98 998.576 1476.48 997.299 1265.78 996.022 1055.07 880.041 884.961 738.248 885.82 596.455 886.68 482.544 1058.18 483.821 1268.89 485.098 1479.59 601.079 1649.7 742.872 1648.84Z" stroke="#0000FF" stroke-width="8.5515" stroke-linecap="round" stroke-linejoin="round" stroke-miterlimit="10" stroke-opacity="1" fill="none" fill-rule="nonzero" transform="matrix(1.00325 0 0 1 -112.692 -117.832)"/><path d="M1704.06 1645.42C1845.85 1644.56 1959.76 1473.06 1958.49 1262.36 1957.21 1051.65 1841.23 881.54 1699.44 882.4 1557.64 883.259 1443.73 1054.76 1445.01 1265.47 1446.29 1476.17 1562.27 1646.28 1704.06 1645.42Z" stroke="#0000FF" stroke-width="8.5515" stroke-linecap="round" stroke-linejoin="round" stroke-miterlimit="10" stroke-opacity="1" fill="none" fill-rule="nonzero" transform="matrix(1.00325 0 0 1 -112.692 -117.832)"/><path d="M1626.11 1157.64 1626.11 1157.64C1626.37 1158.27 1626.5 1158.94 1626.5 1159.6 1626.5 1158.91 1626.36 1158.24 1626.11 1157.64ZM1626.5 1159.61C1626.49 1160.28 1626.36 1160.94 1626.1 1161.57 1626.35 1160.97 1626.49 1160.31 1626.5 1159.61ZM790.158 1151.03C787.334 1151.03 785.039 1153.32 785.028 1156.14 785.016 1158.98 787.304 1161.28 790.137 1161.29L1595.69 1164.61 1595.73 1154.35 790.18 1151.03C790.173 1151.03 790.165 1151.03 790.158 1151.03Z" fill="#000000" fill-rule="nonzero" fill-opacity="1" transform="matrix(1.00325 0 0 1 -112.692 -117.832)"/><path d="M1600.92 1133.84C1600.27 1133.84 1599.61 1133.97 1598.98 1134.23 1597.06 1135.01 1595.8 1136.88 1595.79 1138.95L1595.63 1180C1595.62 1182.08 1596.86 1183.95 1598.77 1184.75 1599.41 1185.02 1600.09 1185.15 1600.76 1185.15 1602.08 1185.15 1603.39 1184.64 1604.37 1183.67L1624.98 1163.23C1626.99 1161.23 1627 1157.98 1625.01 1155.97L1604.57 1135.36C1603.59 1134.37 1602.27 1133.84 1600.92 1133.84Z" fill="#000000" fill-rule="nonzero" fill-opacity="1" transform="matrix(1.00325 0 0 1 -112.692 -117.832)"/><path d="M1632.96 1318.41C1633.21 1319.04 1633.34 1319.7 1633.34 1320.37L1633.34 1320.37C1633.34 1319.68 1633.2 1319.01 1632.96 1318.41ZM1633.34 1320.38C1633.33 1321.05 1633.2 1321.71 1632.94 1322.34 1633.19 1321.73 1633.33 1321.08 1633.34 1320.38ZM796.999 1311.8C794.175 1311.8 791.881 1314.08 791.869 1316.91 791.857 1319.74 794.145 1322.05 796.979 1322.06L1602.53 1325.38 1602.57 1315.12 797.021 1311.8C797.014 1311.8 797.007 1311.8 796.999 1311.8Z" fill="#000000" fill-rule="nonzero" fill-opacity="1" transform="matrix(1.00325 0 0 1 -112.692 -117.832)"/><path d="M1607.77 1294.61C1607.11 1294.61 1606.45 1294.74 1605.82 1295 1603.9 1295.78 1602.64 1297.65 1602.64 1299.72L1602.47 1340.77C1602.46 1342.84 1603.7 1344.72 1605.61 1345.52 1606.26 1345.79 1606.93 1345.92 1607.6 1345.92 1608.92 1345.92 1610.23 1345.41 1611.21 1344.43L1631.82 1323.99C1633.83 1322 1633.84 1318.75 1631.85 1316.74L1611.41 1296.13C1610.43 1295.14 1609.11 1294.61 1607.77 1294.61Z" fill="#000000" fill-rule="nonzero" fill-opacity="1" transform="matrix(1.00325 0 0 1 -112.692 -117.832)"/><path d="M1629.53 959.244C1629.79 959.873 1629.92 960.541 1629.92 961.21L1629.92 961.21C1629.92 960.514 1629.78 959.85 1629.53 959.244ZM1629.92 961.22C1629.91 961.885 1629.78 962.549 1629.52 963.172 1629.77 962.571 1629.91 961.912 1629.92 961.22ZM793.579 952.637C790.755 952.637 788.46 954.92 788.448 957.747 788.437 960.581 790.724 962.887 793.558 962.899L1599.11 966.214 1599.15 955.952 793.6 952.637C793.593 952.637 793.586 952.637 793.579 952.637Z" fill="#000000" fill-rule="nonzero" fill-opacity="1" transform="matrix(1.00325 0 0 1 -112.692 -117.832)"/><path d="M1604.34 935.45C1603.69 935.45 1603.03 935.575 1602.4 935.832 1600.48 936.619 1599.22 938.484 1599.22 940.56L1599.05 981.606C1599.04 983.682 1600.28 985.558 1602.19 986.36 1602.83 986.628 1603.51 986.759 1604.18 986.759 1605.5 986.759 1606.81 986.243 1607.79 985.271L1628.4 964.832C1630.41 962.836 1630.42 959.587 1628.43 957.576L1607.99 936.968C1607.01 935.977 1605.69 935.45 1604.34 935.45Z" fill="#000000" fill-rule="nonzero" fill-opacity="1" transform="matrix(1.00325 0 0 1 -112.692 -117.832)"/><path d="M25.1414-54.7296 25.1414-6.75569C25.1414-5.04538 25.4835-3.96219 26.1676-3.50611 27.1368-2.93601 29.4457-2.65096 33.0943-2.65096L35.8308-2.65096 35.8308 0C33.8354-0.17103 29.2176-0.256545 21.9774-0.256545 14.7371-0.256545 10.1193-0.17103 8.12393 0L8.12393-2.65096 10.8604-2.65096C15.2502-2.65096 17.7586-3.16406 18.3857-4.19023L18.4712-4.27575C18.6993-4.73183 18.8133-5.55847 18.8133-6.75569L18.8133-51.0525C15.8488-49.5702 12.1146-48.8291 7.61084-48.8291L7.61084-51.48C14.452-51.48 19.6399-53.3043 23.1746-56.953 24.2578-56.953 24.8849-56.7535 25.0559-56.3544L25.0559-56.2689C25.1129-56.0978 25.1414-55.5847 25.1414-54.7296Z" fill="#000000" fill-rule="nonzero" fill-opacity="1" transform="matrix(1.00325 0 0 1 604.537 877.904)"/><path d="M38.3962-14.8796 38.3962-14.8796 36.0018 0 4.27575 0C4.27575-1.42525 4.44678-2.33741 4.78884-2.73648L5.21641-3.16406 21.6353-21.4643C27.6213-28.1914 30.6144-34.4911 30.6144-40.3631 30.6144-45.437 29.0751-49.2851 25.9966-51.9076L25.911-51.9931 25.8255-51.9931C24.0012-53.5324 21.7778-54.302 19.1554-54.302 15.0506-54.302 11.7726-52.5347 9.32113-49.0001 8.63701-47.9739 8.06692-46.8337 7.61084-45.5795 7.78186-45.6365 8.15243-45.665 8.72253-45.665 11.0029-45.665 12.4567-44.6388 13.0838-42.5865L13.0838-42.501C13.1978-42.1019 13.2548-41.6743 13.2548-41.2182 13.2548-38.9378 12.1716-37.4841 10.0053-36.857 9.54917-36.7429 9.15011-36.6859 8.80805-36.6859 6.69868-36.6859 5.30193-37.5696 4.61781-39.3369 4.38977-39.964 4.27575-40.6766 4.27575-41.4748 4.27575-45.8645 5.95755-49.6272 9.32113-52.7628 12.3427-55.5562 15.9913-56.953 20.2671-56.953 26.5382-56.953 31.4125-54.8436 34.8901-50.6249 36.8855-48.1735 38.0257-45.2659 38.3107-41.9024 38.3677-41.3893 38.3962-40.8762 38.3962-40.3631 38.3962-36.2014 36.8285-32.2392 33.6929-28.4765 32.0396-26.5382 29.4742-23.9727 25.9966-20.7801L20.7801-16.1623 19.925-15.3927 10.8604-6.58465 26.2531-6.58465C31.27-6.58465 33.978-6.8127 34.377-7.26877 34.9471-8.06692 35.5742-10.6039 36.2584-14.8796L38.3962-14.8796Z" fill="#000000" fill-rule="nonzero" fill-opacity="1" transform="matrix(1.00325 0 0 1 607.969 1055.78)"/><path d="M24.7993-30.1013 24.7993-30.1013C30.5003-28.9611 34.6051-26.1676 37.1135-21.7208 38.4247-19.4974 39.0804-17.1315 39.0804-14.6231 39.0804-9.77722 37.085-5.701 33.0943-2.39442 29.6167 0.45608 25.5405 1.88133 20.8657 1.88133 15.2217 1.88133 10.6894 0.199535 7.26877-3.16406 4.81735-5.55847 3.59163-8.35196 3.59163-11.5445 3.59163-14.224 4.78884-15.8203 7.18326-16.3334 7.58233-16.4474 7.9814-16.5044 8.38047-16.5044 10.5469-16.5044 12.0006-15.5922 12.7417-13.7679 12.9698-13.0268 13.1123-12.3427 13.1693-11.7156 13.1693-9.43515 12.1431-7.9529 10.0908-7.26877 9.29263-6.98372 8.43748-6.89821 7.52532-7.01223 9.63469-3.47761 13.2833-1.36824 18.4712-0.68412 19.2124-0.5701 19.925-0.51309 20.6091-0.51309 24.2578-0.51309 26.9372-2.30891 28.6475-5.90053 29.7307-8.18093 30.2723-11.0884 30.2723-14.6231 30.2723-22.2054 27.9919-26.7662 23.4311-28.3055 22.4049-28.6475 21.2932-28.8186 20.096-28.8186L16.3334-28.8186C15.0791-28.8186 14.395-29.1321 14.281-29.7592 14.281-30.3293 14.7086-30.6714 15.5637-30.7854 16.4189-30.7854 17.5306-30.8709 18.8988-31.0419 21.8063-31.156 24.0867-32.2677 25.74-34.377L25.74-34.4625 25.8255-34.5481 25.911-34.6336 25.9966-34.6336 26.5096-35.4887C28.1059-38.1682 28.9041-41.4178 28.9041-45.2374 28.9041-50.5394 26.8517-53.6464 22.747-54.5586 22.0629-54.7296 21.3787-54.8151 20.6946-54.8151 16.7039-54.8151 13.4544-53.6749 10.9459-51.3945 10.3188-50.8244 9.77722-50.1973 9.32113-49.5132 12.8558-49.5132 14.6231-48.0879 14.6231-45.2374 14.6231-43.1851 13.7394-41.8168 11.9721-41.1327 11.459-40.9617 10.8889-40.8762 10.2618-40.8762 8.03841-40.8762 6.64167-41.8738 6.07157-43.8692L6.07157-43.9547C5.95755-44.4108 5.90053-44.8669 5.90053-45.3229 5.90053-49.1426 7.78186-52.1927 11.5445-54.4731 14.281-56.1263 17.4451-56.953 21.0367-56.953 26.2246-56.953 30.4148-55.4137 33.6074-52.3352L33.7784-52.1642C35.7738-50.1118 36.7715-47.7744 36.7715-45.1519 36.7715-40.4201 34.7476-36.4579 30.6999-33.2653 28.9326-31.8971 26.9657-30.8424 24.7993-30.1013Z" fill="#000000" fill-rule="nonzero" fill-opacity="1" transform="matrix(1.00325 0 0 1 618.264 1233.65)"/><path d="M2.39442-14.11 2.39442-16.7609 28.6475-56.8675C29.1036-57.5516 29.6737-57.8937 30.3578-57.8937 31.156-57.8937 31.612-57.5801 31.7261-56.953L31.7261-55.6703 31.7261-16.7609 40.2776-16.7609 40.2776-14.11 31.7261-14.11 31.7261-6.67017C31.7261-4.90286 32.0681-3.81967 32.7522-3.4206 33.5504-2.90751 35.3747-2.65096 38.2252-2.65096L40.021-2.65096 40.021 0C37.6836-0.17103 33.8069-0.256545 28.391-0.256545 23.032-0.256545 19.1839-0.17103 16.8465 0L16.8465-2.65096 18.6423-2.65096C22.1769-2.65096 24.2292-3.13555 24.7993-4.10472 25.0274-4.50379 25.1414-5.35894 25.1414-6.67017L25.1414-14.11 2.39442-14.11M25.6545-16.7609 25.6545-48.658 4.78884-16.7609 25.6545-16.7609Z" fill="#000000" fill-rule="nonzero" fill-opacity="1" transform="matrix(1.00325 0 0 1 621.696 1418.36)"/><path d="M25.1414-54.7296 25.1414-6.75569C25.1414-5.04538 25.4835-3.96219 26.1676-3.50611 27.1368-2.93601 29.4457-2.65096 33.0943-2.65096L35.8308-2.65096 35.8308 0C33.8354-0.17103 29.2176-0.256545 21.9774-0.256545 14.7371-0.256545 10.1193-0.17103 8.12393 0L8.12393-2.65096 10.8604-2.65096C15.2502-2.65096 17.7586-3.16406 18.3857-4.19023L18.4712-4.27575C18.6993-4.73183 18.8133-5.55847 18.8133-6.75569L18.8133-51.0525C15.8488-49.5702 12.1146-48.8291 7.61084-48.8291L7.61084-51.48C14.452-51.48 19.6399-53.3043 23.1746-56.953 24.2578-56.953 24.8849-56.7535 25.0559-56.3544L25.0559-56.2689C25.1129-56.0978 25.1414-55.5847 25.1414-54.7296Z" fill="#000000" fill-rule="nonzero" fill-opacity="1" transform="matrix(1.00325 0 0 1 1555.12 877.904)"/><path d="M39.3369-27.3648C39.3369-19.0413 38.2822-12.5992 36.1728-8.03841 32.8093-1.65329 27.8494 1.65329 21.2932 1.88133 16.1053 1.88133 11.9436-0.17103 8.80805-4.27575 8.18093-5.01688 7.63934-5.84352 7.18326-6.75569 4.61781-11.4875 3.33509-18.3572 3.33509-27.3648 3.33509-35.7453 4.38977-42.2159 6.49914-46.7767 9.34964-53.1618 13.9674-56.5539 20.3526-56.953L21.3787-56.953C26.4526-56.953 30.5859-54.9291 33.7784-50.8814L33.7784-50.7959C34.5766-49.7697 35.2892-48.6295 35.9163-47.3753 38.1967-42.5295 39.3369-35.8593 39.3369-27.3648M21.2932 0C24.8849 0 27.6498-1.7388 29.5882-5.21641 30.3863-6.75569 30.9564-8.58 31.2985-10.6894 31.9256-14.338 32.2392-20.2386 32.2392-28.391 32.2392-36.3154 31.9541-41.8738 31.384-45.0664 30.3578-50.4824 27.7354-53.7319 23.5166-54.8151 22.7755-54.9861 22.0344-55.0717 21.2932-55.0717 17.3025-55.0717 14.395-53.0763 12.5707-49.0856 11.9436-47.7174 11.459-46.0641 11.1169-44.1257 10.6609-41.0472 10.4328-35.8023 10.4328-28.391 10.4328-19.7825 10.7464-13.7679 11.3735-10.3473 12.3997-4.87435 14.9081-1.53927 18.8988-0.34206 19.697-0.11402 20.4951 0 21.2932 0Z" fill="#000000" fill-rule="nonzero" fill-opacity="1" transform="matrix(1.00325 0 0 1 1598.02 877.904)"/><path d="M38.3962-14.8796 38.3962-14.8796 36.0018 0 4.27575 0C4.27575-1.42525 4.44678-2.33741 4.78884-2.73648L5.21641-3.16406 21.6353-21.4643C27.6213-28.1914 30.6144-34.4911 30.6144-40.3631 30.6144-45.437 29.0751-49.2851 25.9966-51.9076L25.911-51.9931 25.8255-51.9931C24.0012-53.5324 21.7778-54.302 19.1554-54.302 15.0506-54.302 11.7726-52.5347 9.32113-49.0001 8.63701-47.9739 8.06692-46.8337 7.61084-45.5795 7.78186-45.6365 8.15243-45.665 8.72253-45.665 11.0029-45.665 12.4567-44.6388 13.0838-42.5865L13.0838-42.501C13.1978-42.1019 13.2548-41.6743 13.2548-41.2182 13.2548-38.9378 12.1716-37.4841 10.0053-36.857 9.54917-36.7429 9.15011-36.6859 8.80805-36.6859 6.69868-36.6859 5.30193-37.5696 4.61781-39.3369 4.38977-39.964 4.27575-40.6766 4.27575-41.4748 4.27575-45.8645 5.95755-49.6272 9.32113-52.7628 12.3427-55.5562 15.9913-56.953 20.2671-56.953 26.5382-56.953 31.4125-54.8436 34.8901-50.6249 36.8855-48.1735 38.0257-45.2659 38.3107-41.9024 38.3677-41.3893 38.3962-40.8762 38.3962-40.3631 38.3962-36.2014 36.8285-32.2392 33.6929-28.4765 32.0396-26.5382 29.4742-23.9727 25.9966-20.7801L20.7801-16.1623 19.925-15.3927 10.8604-6.58465 26.2531-6.58465C31.27-6.58465 33.978-6.8127 34.377-7.26877 34.9471-8.06692 35.5742-10.6039 36.2584-14.8796L38.3962-14.8796Z" fill="#000000" fill-rule="nonzero" fill-opacity="1" transform="matrix(1.00325 0 0 1 1548.26 1062.62)"/><path d="M39.3369-27.3648C39.3369-19.0413 38.2822-12.5992 36.1728-8.03841 32.8093-1.65329 27.8494 1.65329 21.2932 1.88133 16.1053 1.88133 11.9436-0.17103 8.80805-4.27575 8.18093-5.01688 7.63934-5.84352 7.18326-6.75569 4.61781-11.4875 3.33509-18.3572 3.33509-27.3648 3.33509-35.7453 4.38977-42.2159 6.49914-46.7767 9.34964-53.1618 13.9674-56.5539 20.3526-56.953L21.3787-56.953C26.4526-56.953 30.5859-54.9291 33.7784-50.8814L33.7784-50.7959C34.5766-49.7697 35.2892-48.6295 35.9163-47.3753 38.1967-42.5295 39.3369-35.8593 39.3369-27.3648M21.2932 0C24.8849 0 27.6498-1.7388 29.5882-5.21641 30.3863-6.75569 30.9564-8.58 31.2985-10.6894 31.9256-14.338 32.2392-20.2386 32.2392-28.391 32.2392-36.3154 31.9541-41.8738 31.384-45.0664 30.3578-50.4824 27.7354-53.7319 23.5166-54.8151 22.7755-54.9861 22.0344-55.0717 21.2932-55.0717 17.3025-55.0717 14.395-53.0763 12.5707-49.0856 11.9436-47.7174 11.459-46.0641 11.1169-44.1257 10.6609-41.0472 10.4328-35.8023 10.4328-28.391 10.4328-19.7825 10.7464-13.7679 11.3735-10.3473 12.3997-4.87435 14.9081-1.53927 18.8988-0.34206 19.697-0.11402 20.4951 0 21.2932 0Z" fill="#000000" fill-rule="nonzero" fill-opacity="1" transform="matrix(1.00325 0 0 1 1591.16 1062.62)"/><path d="M24.7993-30.1013 24.7993-30.1013C30.5003-28.9611 34.6051-26.1676 37.1135-21.7208 38.4247-19.4974 39.0804-17.1315 39.0804-14.6231 39.0804-9.77722 37.085-5.701 33.0943-2.39442 29.6167 0.45608 25.5405 1.88133 20.8657 1.88133 15.2217 1.88133 10.6894 0.199535 7.26877-3.16406 4.81735-5.55847 3.59163-8.35196 3.59163-11.5445 3.59163-14.224 4.78884-15.8203 7.18326-16.3334 7.58233-16.4474 7.9814-16.5044 8.38047-16.5044 10.5469-16.5044 12.0006-15.5922 12.7417-13.7679 12.9698-13.0268 13.1123-12.3427 13.1693-11.7156 13.1693-9.43515 12.1431-7.9529 10.0908-7.26877 9.29263-6.98372 8.43748-6.89821 7.52532-7.01223 9.63469-3.47761 13.2833-1.36824 18.4712-0.68412 19.2124-0.5701 19.925-0.51309 20.6091-0.51309 24.2578-0.51309 26.9372-2.30891 28.6475-5.90053 29.7307-8.18093 30.2723-11.0884 30.2723-14.6231 30.2723-22.2054 27.9919-26.7662 23.4311-28.3055 22.4049-28.6475 21.2932-28.8186 20.096-28.8186L16.3334-28.8186C15.0791-28.8186 14.395-29.1321 14.281-29.7592 14.281-30.3293 14.7086-30.6714 15.5637-30.7854 16.4189-30.7854 17.5306-30.8709 18.8988-31.0419 21.8063-31.156 24.0867-32.2677 25.74-34.377L25.74-34.4625 25.8255-34.5481 25.911-34.6336 25.9966-34.6336 26.5096-35.4887C28.1059-38.1682 28.9041-41.4178 28.9041-45.2374 28.9041-50.5394 26.8517-53.6464 22.747-54.5586 22.0629-54.7296 21.3787-54.8151 20.6946-54.8151 16.7039-54.8151 13.4544-53.6749 10.9459-51.3945 10.3188-50.8244 9.77722-50.1973 9.32113-49.5132 12.8558-49.5132 14.6231-48.0879 14.6231-45.2374 14.6231-43.1851 13.7394-41.8168 11.9721-41.1327 11.459-40.9617 10.8889-40.8762 10.2618-40.8762 8.03841-40.8762 6.64167-41.8738 6.07157-43.8692L6.07157-43.9547C5.95755-44.4108 5.90053-44.8669 5.90053-45.3229 5.90053-49.1426 7.78186-52.1927 11.5445-54.4731 14.281-56.1263 17.4451-56.953 21.0367-56.953 26.2246-56.953 30.4148-55.4137 33.6074-52.3352L33.7784-52.1642C35.7738-50.1118 36.7715-47.7744 36.7715-45.1519 36.7715-40.4201 34.7476-36.4579 30.6999-33.2653 28.9326-31.8971 26.9657-30.8424 24.7993-30.1013Z" fill="#000000" fill-rule="nonzero" fill-opacity="1" transform="matrix(1.00325 0 0 1 1558.55 1240.49)"/><path d="M39.3369-27.3648C39.3369-19.0413 38.2822-12.5992 36.1728-8.03841 32.8093-1.65329 27.8494 1.65329 21.2932 1.88133 16.1053 1.88133 11.9436-0.17103 8.80805-4.27575 8.18093-5.01688 7.63934-5.84352 7.18326-6.75569 4.61781-11.4875 3.33509-18.3572 3.33509-27.3648 3.33509-35.7453 4.38977-42.2159 6.49914-46.7767 9.34964-53.1618 13.9674-56.5539 20.3526-56.953L21.3787-56.953C26.4526-56.953 30.5859-54.9291 33.7784-50.8814L33.7784-50.7959C34.5766-49.7697 35.2892-48.6295 35.9163-47.3753 38.1967-42.5295 39.3369-35.8593 39.3369-27.3648M21.2932 0C24.8849 0 27.6498-1.7388 29.5882-5.21641 30.3863-6.75569 30.9564-8.58 31.2985-10.6894 31.9256-14.338 32.2392-20.2386 32.2392-28.391 32.2392-36.3154 31.9541-41.8738 31.384-45.0664 30.3578-50.4824 27.7354-53.7319 23.5166-54.8151 22.7755-54.9861 22.0344-55.0717 21.2932-55.0717 17.3025-55.0717 14.395-53.0763 12.5707-49.0856 11.9436-47.7174 11.459-46.0641 11.1169-44.1257 10.6609-41.0472 10.4328-35.8023 10.4328-28.391 10.4328-19.7825 10.7464-13.7679 11.3735-10.3473 12.3997-4.87435 14.9081-1.53927 18.8988-0.34206 19.697-0.11402 20.4951 0 21.2932 0Z" fill="#000000" fill-rule="nonzero" fill-opacity="1" transform="matrix(1.00325 0 0 1 1601.45 1240.49)"/><path d="M2.39442-14.11 2.39442-16.7609 28.6475-56.8675C29.1036-57.5516 29.6737-57.8937 30.3578-57.8937 31.156-57.8937 31.612-57.5801 31.7261-56.953L31.7261-55.6703 31.7261-16.7609 40.2776-16.7609 40.2776-14.11 31.7261-14.11 31.7261-6.67017C31.7261-4.90286 32.0681-3.81967 32.7522-3.4206 33.5504-2.90751 35.3747-2.65096 38.2252-2.65096L40.021-2.65096 40.021 0C37.6836-0.17103 33.8069-0.256545 28.391-0.256545 23.032-0.256545 19.1839-0.17103 16.8465 0L16.8465-2.65096 18.6423-2.65096C22.1769-2.65096 24.2292-3.13555 24.7993-4.10472 25.0274-4.50379 25.1414-5.35894 25.1414-6.67017L25.1414-14.11 2.39442-14.11M25.6545-16.7609 25.6545-48.658 4.78884-16.7609 25.6545-16.7609Z" fill="#000000" fill-rule="nonzero" fill-opacity="1" transform="matrix(1.00325 0 0 1 1555.12 1421.78)"/><path d="M39.3369-27.3648C39.3369-19.0413 38.2822-12.5992 36.1728-8.03841 32.8093-1.65329 27.8494 1.65329 21.2932 1.88133 16.1053 1.88133 11.9436-0.17103 8.80805-4.27575 8.18093-5.01688 7.63934-5.84352 7.18326-6.75569 4.61781-11.4875 3.33509-18.3572 3.33509-27.3648 3.33509-35.7453 4.38977-42.2159 6.49914-46.7767 9.34964-53.1618 13.9674-56.5539 20.3526-56.953L21.3787-56.953C26.4526-56.953 30.5859-54.9291 33.7784-50.8814L33.7784-50.7959C34.5766-49.7697 35.2892-48.6295 35.9163-47.3753 38.1967-42.5295 39.3369-35.8593 39.3369-27.3648M21.2932 0C24.8849 0 27.6498-1.7388 29.5882-5.21641 30.3863-6.75569 30.9564-8.58 31.2985-10.6894 31.9256-14.338 32.2392-20.2386 32.2392-28.391 32.2392-36.3154 31.9541-41.8738 31.384-45.0664 30.3578-50.4824 27.7354-53.7319 23.5166-54.8151 22.7755-54.9861 22.0344-55.0717 21.2932-55.0717 17.3025-55.0717 14.395-53.0763 12.5707-49.0856 11.9436-47.7174 11.459-46.0641 11.1169-44.1257 10.6609-41.0472 10.4328-35.8023 10.4328-28.391 10.4328-19.7825 10.7464-13.7679 11.3735-10.3473 12.3997-4.87435 14.9081-1.53927 18.8988-0.34206 19.697-0.11402 20.4951 0 21.2932 0Z" fill="#000000" fill-rule="nonzero" fill-opacity="1" transform="matrix(1.00325 0 0 1 1598.02 1421.78)"/></g></g></g></g><text fill="#000000" fill-opacity="1" font-family="TH SarabunPSK,TH SarabunPSK_MSFontService,sans-serif" font-style="normal" font-variant="normal" font-weight="700" font-stretch="normal" font-size="92" text-anchor="start" direction="ltr" writing-mode="lr-tb" unicode-bidi="normal" text-decoration="none" transform="matrix(1 0 0 1 353.429 659)">จำนวนลูกชิ้นปิ้ง (ไม้)</text><text fill="#000000" fill-opacity="1" font-family="TH SarabunPSK,TH SarabunPSK_MSFontService,sans-serif" font-style="normal" font-variant="normal" font-weight="700" font-stretch="normal" font-size="92" text-anchor="start" direction="ltr" writing-mode="lr-tb" unicode-bidi="normal" text-decoration="none" transform="matrix(1 0 0 1 1389.71 659)">ราคาขาย (บาท)</text></g></g></svg>