<svg width="1737" height="1013" xmlns="http://www.w3.org/2000/svg" xmlns:xlink="http://www.w3.org/1999/xlink" xml:space="preserve" overflow="hidden"><defs><clipPath id="clip0"><rect x="238" y="1416" width="1737" height="1013"/></clipPath><clipPath id="clip1"><rect x="238" y="1416" width="1737" height="1013"/></clipPath><clipPath id="clip2"><rect x="330" y="1591" width="1568" height="835"/></clipPath><clipPath id="clip3"><rect x="330" y="1591" width="1568" height="835"/></clipPath><clipPath id="clip4"><rect x="330" y="1591" width="1568" height="835"/></clipPath><clipPath id="clip5"><rect x="330" y="1591" width="1568" height="835"/></clipPath></defs><g clip-path="url(#clip0)" transform="translate(-238 -1416)"><g clip-path="url(#clip1)"><g clip-path="url(#clip2)"><g clip-path="url(#clip3)"><g clip-path="url(#clip4)"><g clip-path="url(#clip5)"><path d="M0 0 2896.69 0 2896.69 3696.37 0 3696.37Z" fill="#FFFFFF" fill-rule="nonzero" fill-opacity="1" transform="matrix(1.00189 0 0 1 -110.14 740.839)"/><path d="M1.71605 2960.18 2891.54 2960.18" stroke="#252525" stroke-width="3.4321" stroke-linecap="butt" stroke-linejoin="miter" stroke-miterlimit="10" stroke-opacity="1" fill="none" fill-rule="nonzero" transform="matrix(1.00189 0 0 1 -110.14 740.839)"/><path d="M2894.98 2960.18 2881.25 2946.46" stroke="#252525" stroke-width="3.4321" stroke-linecap="butt" stroke-linejoin="miter" stroke-miterlimit="10" stroke-opacity="1" fill="none" fill-rule="nonzero" transform="matrix(1.00189 0 0 1 -110.14 740.839)"/><path d="M2894.98 2960.18 2881.25 2973.91" stroke="#252525" stroke-width="3.4321" stroke-linecap="butt" stroke-linejoin="miter" stroke-miterlimit="10" stroke-opacity="1" fill="none" fill-rule="nonzero" transform="matrix(1.00189 0 0 1 -110.14 740.839)"/><text fill="#252525" fill-opacity="1" font-family="Arial,Arial_MSFontService,sans-serif" font-style="normal" font-variant="normal" font-weight="400" font-stretch="normal" font-size="12" text-anchor="start" direction="ltr" writing-mode="lr-tb" unicode-bidi="normal" text-decoration="none" transform="matrix(3.4386 0 0 3.4321 -62 3754)">–16</text><path d="M77.2222 2960.18 77.2222 2970.48" stroke="#252525" stroke-width="3.4321" stroke-linecap="butt" stroke-linejoin="miter" stroke-miterlimit="10" stroke-opacity="1" fill="none" fill-rule="nonzero" transform="matrix(1.00189 0 0 1 -110.14 740.839)"/><text fill="#252525" fill-opacity="1" font-family="Arial,Arial_MSFontService,sans-serif" font-style="normal" font-variant="normal" font-weight="400" font-stretch="normal" font-size="12" text-anchor="start" direction="ltr" writing-mode="lr-tb" unicode-bidi="normal" text-decoration="none" transform="matrix(3.4386 0 0 3.4321 127.123 3754)">–15</text><path d="M265.988 2960.18 265.988 2970.48" stroke="#252525" stroke-width="3.4321" stroke-linecap="butt" stroke-linejoin="miter" stroke-miterlimit="10" stroke-opacity="1" fill="none" fill-rule="nonzero" transform="matrix(1.00189 0 0 1 -110.14 740.839)"/><text fill="#252525" fill-opacity="1" font-family="Arial,Arial_MSFontService,sans-serif" font-style="normal" font-variant="normal" font-weight="400" font-stretch="normal" font-size="12" text-anchor="start" direction="ltr" writing-mode="lr-tb" unicode-bidi="normal" text-decoration="none" transform="matrix(3.4386 0 0 3.4321 316.246 3754)">–14</text><path d="M454.753 2960.18 454.753 2970.48" stroke="#252525" stroke-width="3.4321" stroke-linecap="butt" stroke-linejoin="miter" stroke-miterlimit="10" stroke-opacity="1" fill="none" fill-rule="nonzero" transform="matrix(1.00189 0 0 1 -110.14 740.839)"/><text fill="#252525" fill-opacity="1" font-family="Arial,Arial_MSFontService,sans-serif" font-style="normal" font-variant="normal" font-weight="400" font-stretch="normal" font-size="12" text-anchor="start" direction="ltr" writing-mode="lr-tb" unicode-bidi="normal" text-decoration="none" transform="matrix(3.4386 0 0 3.4321 505.368 3754)">–13</text><path d="M643.518 2960.18 643.518 2970.48" stroke="#252525" stroke-width="3.4321" stroke-linecap="butt" stroke-linejoin="miter" stroke-miterlimit="10" stroke-opacity="1" fill="none" fill-rule="nonzero" transform="matrix(1.00189 0 0 1 -110.14 740.839)"/><text fill="#252525" fill-opacity="1" font-family="Arial,Arial_MSFontService,sans-serif" font-style="normal" font-variant="normal" font-weight="400" font-stretch="normal" font-size="12" text-anchor="start" direction="ltr" writing-mode="lr-tb" unicode-bidi="normal" text-decoration="none" transform="matrix(3.4386 0 0 3.4321 694.491 3754)">–12</text><path d="M832.284 2960.18 832.284 2970.48" stroke="#252525" stroke-width="3.4321" stroke-linecap="butt" stroke-linejoin="miter" stroke-miterlimit="10" stroke-opacity="1" fill="none" fill-rule="nonzero" transform="matrix(1.00189 0 0 1 -110.14 740.839)"/><text fill="#252525" fill-opacity="1" font-family="Arial,Arial_MSFontService,sans-serif" font-style="normal" font-variant="normal" font-weight="400" font-stretch="normal" font-size="12" text-anchor="start" direction="ltr" writing-mode="lr-tb" unicode-bidi="normal" text-decoration="none" transform="matrix(3.4386 0 0 3.4321 883.614 3754)">–11</text><path d="M1021.05 2960.18 1021.05 2970.48" stroke="#252525" stroke-width="3.4321" stroke-linecap="butt" stroke-linejoin="miter" stroke-miterlimit="10" stroke-opacity="1" fill="none" fill-rule="nonzero" transform="matrix(1.00189 0 0 1 -110.14 740.839)"/><text fill="#252525" fill-opacity="1" font-family="Arial,Arial_MSFontService,sans-serif" font-style="normal" font-variant="normal" font-weight="400" font-stretch="normal" font-size="12" text-anchor="start" direction="ltr" writing-mode="lr-tb" unicode-bidi="normal" text-decoration="none" transform="matrix(3.4386 0 0 3.4321 1072.74 3754)">–10</text><path d="M1209.81 2960.18 1209.81 2970.48" stroke="#252525" stroke-width="3.4321" stroke-linecap="butt" stroke-linejoin="miter" stroke-miterlimit="10" stroke-opacity="1" fill="none" fill-rule="nonzero" transform="matrix(1.00189 0 0 1 -110.14 740.839)"/><text fill="#252525" fill-opacity="1" font-family="Arial,Arial_MSFontService,sans-serif" font-style="normal" font-variant="normal" font-weight="400" font-stretch="normal" font-size="12" text-anchor="start" direction="ltr" writing-mode="lr-tb" unicode-bidi="normal" text-decoration="none" transform="matrix(3.4386 0 0 3.4321 1272.18 3754)">–9</text><path d="M1398.58 2960.18 1398.58 2970.48" stroke="#252525" stroke-width="3.4321" stroke-linecap="butt" stroke-linejoin="miter" stroke-miterlimit="10" stroke-opacity="1" fill="none" fill-rule="nonzero" transform="matrix(1.00189 0 0 1 -110.14 740.839)"/><text fill="#252525" fill-opacity="1" font-family="Arial,Arial_MSFontService,sans-serif" font-style="normal" font-variant="normal" font-weight="400" font-stretch="normal" font-size="12" text-anchor="start" direction="ltr" writing-mode="lr-tb" unicode-bidi="normal" text-decoration="none" transform="matrix(3.4386 0 0 3.4321 1461.3 3754)">–8</text><path d="M1587.35 2960.18 1587.35 2970.48" stroke="#252525" stroke-width="3.4321" stroke-linecap="butt" stroke-linejoin="miter" stroke-miterlimit="10" stroke-opacity="1" fill="none" fill-rule="nonzero" transform="matrix(1.00189 0 0 1 -110.14 740.839)"/><text fill="#252525" fill-opacity="1" font-family="Arial,Arial_MSFontService,sans-serif" font-style="normal" font-variant="normal" font-weight="400" font-stretch="normal" font-size="12" text-anchor="start" direction="ltr" writing-mode="lr-tb" unicode-bidi="normal" text-decoration="none" transform="matrix(3.4386 0 0 3.4321 1650.42 3754)">–7</text><path d="M1776.11 2960.18 1776.11 2970.48" stroke="#252525" stroke-width="3.4321" stroke-linecap="butt" stroke-linejoin="miter" stroke-miterlimit="10" stroke-opacity="1" fill="none" fill-rule="nonzero" transform="matrix(1.00189 0 0 1 -110.14 740.839)"/><text fill="#252525" fill-opacity="1" font-family="Arial,Arial_MSFontService,sans-serif" font-style="normal" font-variant="normal" font-weight="400" font-stretch="normal" font-size="12" text-anchor="start" direction="ltr" writing-mode="lr-tb" unicode-bidi="normal" text-decoration="none" transform="matrix(3.4386 0 0 3.4321 1839.54 3754)">–6</text><path d="M1964.88 2960.18 1964.88 2970.48" stroke="#252525" stroke-width="3.4321" stroke-linecap="butt" stroke-linejoin="miter" stroke-miterlimit="10" stroke-opacity="1" fill="none" fill-rule="nonzero" transform="matrix(1.00189 0 0 1 -110.14 740.839)"/><text fill="#252525" fill-opacity="1" font-family="Arial,Arial_MSFontService,sans-serif" font-style="normal" font-variant="normal" font-weight="400" font-stretch="normal" font-size="12" text-anchor="start" direction="ltr" writing-mode="lr-tb" unicode-bidi="normal" text-decoration="none" transform="matrix(3.4386 0 0 3.4321 2028.67 3754)">–5</text><path d="M2153.64 2960.18 2153.64 2970.48" stroke="#252525" stroke-width="3.4321" stroke-linecap="butt" stroke-linejoin="miter" stroke-miterlimit="10" stroke-opacity="1" fill="none" fill-rule="nonzero" transform="matrix(1.00189 0 0 1 -110.14 740.839)"/><text fill="#252525" fill-opacity="1" font-family="Arial,Arial_MSFontService,sans-serif" font-style="normal" font-variant="normal" font-weight="400" font-stretch="normal" font-size="12" text-anchor="start" direction="ltr" writing-mode="lr-tb" unicode-bidi="normal" text-decoration="none" transform="matrix(3.4386 0 0 3.4321 2217.79 3754)">–4</text><path d="M2342.41 2960.18 2342.41 2970.48" stroke="#252525" stroke-width="3.4321" stroke-linecap="butt" stroke-linejoin="miter" stroke-miterlimit="10" stroke-opacity="1" fill="none" fill-rule="nonzero" transform="matrix(1.00189 0 0 1 -110.14 740.839)"/><text fill="#252525" fill-opacity="1" font-family="Arial,Arial_MSFontService,sans-serif" font-style="normal" font-variant="normal" font-weight="400" font-stretch="normal" font-size="12" text-anchor="start" direction="ltr" writing-mode="lr-tb" unicode-bidi="normal" text-decoration="none" transform="matrix(3.4386 0 0 3.4321 2406.91 3754)">–3</text><path d="M2531.17 2960.18 2531.17 2970.48" stroke="#252525" stroke-width="3.4321" stroke-linecap="butt" stroke-linejoin="miter" stroke-miterlimit="10" stroke-opacity="1" fill="none" fill-rule="nonzero" transform="matrix(1.00189 0 0 1 -110.14 740.839)"/><text fill="#252525" fill-opacity="1" font-family="Arial,Arial_MSFontService,sans-serif" font-style="normal" font-variant="normal" font-weight="400" font-stretch="normal" font-size="12" text-anchor="start" direction="ltr" writing-mode="lr-tb" unicode-bidi="normal" text-decoration="none" transform="matrix(3.4386 0 0 3.4321 2596.03 3754)">–2</text><path d="M2719.94 2960.18 2719.94 2970.48" stroke="#252525" stroke-width="3.4321" stroke-linecap="butt" stroke-linejoin="miter" stroke-miterlimit="10" stroke-opacity="1" fill="none" fill-rule="nonzero" transform="matrix(1.00189 0 0 1 -110.14 740.839)"/><path d="M3087.17 3526.48 3097.47 3526.48" stroke="#252525" stroke-width="3.4321" stroke-linecap="butt" stroke-linejoin="miter" stroke-miterlimit="10" stroke-opacity="1" fill="none" fill-rule="nonzero" transform="matrix(1.00189 0 0 1 -110.14 740.839)"/><path d="M3087.17 3337.72 3097.47 3337.72" stroke="#252525" stroke-width="3.4321" stroke-linecap="butt" stroke-linejoin="miter" stroke-miterlimit="10" stroke-opacity="1" fill="none" fill-rule="nonzero" transform="matrix(1.00189 0 0 1 -110.14 740.839)"/><path d="M3087.17 3148.95 3097.47 3148.95" stroke="#252525" stroke-width="3.4321" stroke-linecap="butt" stroke-linejoin="miter" stroke-miterlimit="10" stroke-opacity="1" fill="none" fill-rule="nonzero" transform="matrix(1.00189 0 0 1 -110.14 740.839)"/><path d="M3087.17 2771.42 3097.47 2771.42" stroke="#252525" stroke-width="3.4321" stroke-linecap="butt" stroke-linejoin="miter" stroke-miterlimit="10" stroke-opacity="1" fill="none" fill-rule="nonzero" transform="matrix(1.00189 0 0 1 -110.14 740.839)"/><path d="M3087.17 2582.65 3097.47 2582.65" stroke="#252525" stroke-width="3.4321" stroke-linecap="butt" stroke-linejoin="miter" stroke-miterlimit="10" stroke-opacity="1" fill="none" fill-rule="nonzero" transform="matrix(1.00189 0 0 1 -110.14 740.839)"/><path d="M3087.17 2393.89 3097.47 2393.89" stroke="#252525" stroke-width="3.4321" stroke-linecap="butt" stroke-linejoin="miter" stroke-miterlimit="10" stroke-opacity="1" fill="none" fill-rule="nonzero" transform="matrix(1.00189 0 0 1 -110.14 740.839)"/><path d="M3087.17 2205.12 3097.47 2205.12" stroke="#252525" stroke-width="3.4321" stroke-linecap="butt" stroke-linejoin="miter" stroke-miterlimit="10" stroke-opacity="1" fill="none" fill-rule="nonzero" transform="matrix(1.00189 0 0 1 -110.14 740.839)"/><path d="M3087.17 2016.36 3097.47 2016.36" stroke="#252525" stroke-width="3.4321" stroke-linecap="butt" stroke-linejoin="miter" stroke-miterlimit="10" stroke-opacity="1" fill="none" fill-rule="nonzero" transform="matrix(1.00189 0 0 1 -110.14 740.839)"/><path d="M3087.17 1827.59 3097.47 1827.59" stroke="#252525" stroke-width="3.4321" stroke-linecap="butt" stroke-linejoin="miter" stroke-miterlimit="10" stroke-opacity="1" fill="none" fill-rule="nonzero" transform="matrix(1.00189 0 0 1 -110.14 740.839)"/><path d="M3087.17 1638.83 3097.47 1638.83" stroke="#252525" stroke-width="3.4321" stroke-linecap="butt" stroke-linejoin="miter" stroke-miterlimit="10" stroke-opacity="1" fill="none" fill-rule="nonzero" transform="matrix(1.00189 0 0 1 -110.14 740.839)"/><path d="M3087.17 1450.06 3097.47 1450.06" stroke="#252525" stroke-width="3.4321" stroke-linecap="butt" stroke-linejoin="miter" stroke-miterlimit="10" stroke-opacity="1" fill="none" fill-rule="nonzero" transform="matrix(1.00189 0 0 1 -110.14 740.839)"/><path d="M3087.17 1261.3 3097.47 1261.3" stroke="#252525" stroke-width="3.4321" stroke-linecap="butt" stroke-linejoin="miter" stroke-miterlimit="10" stroke-opacity="1" fill="none" fill-rule="nonzero" transform="matrix(1.00189 0 0 1 -110.14 740.839)"/><path d="M3087.17 1072.53 3097.47 1072.53" stroke="#252525" stroke-width="3.4321" stroke-linecap="butt" stroke-linejoin="miter" stroke-miterlimit="10" stroke-opacity="1" fill="none" fill-rule="nonzero" transform="matrix(1.00189 0 0 1 -110.14 740.839)"/><path d="M3087.17 883.765 3097.47 883.765" stroke="#252525" stroke-width="3.4321" stroke-linecap="butt" stroke-linejoin="miter" stroke-miterlimit="10" stroke-opacity="1" fill="none" fill-rule="nonzero" transform="matrix(1.00189 0 0 1 -110.14 740.839)"/><path d="M3087.17 695 3097.47 695" stroke="#252525" stroke-width="3.4321" stroke-linecap="butt" stroke-linejoin="miter" stroke-miterlimit="10" stroke-opacity="1" fill="none" fill-rule="nonzero" transform="matrix(1.00189 0 0 1 -110.14 740.839)"/><path d="M3087.17 506.234 3097.47 506.234" stroke="#252525" stroke-width="3.4321" stroke-linecap="butt" stroke-linejoin="miter" stroke-miterlimit="10" stroke-opacity="1" fill="none" fill-rule="nonzero" transform="matrix(1.00189 0 0 1 -110.14 740.839)"/><path d="M3087.17 317.469 3097.47 317.469" stroke="#252525" stroke-width="3.4321" stroke-linecap="butt" stroke-linejoin="miter" stroke-miterlimit="10" stroke-opacity="1" fill="none" fill-rule="nonzero" transform="matrix(1.00189 0 0 1 -110.14 740.839)"/><path d="M3087.17 128.704 3097.47 128.704" stroke="#252525" stroke-width="3.4321" stroke-linecap="butt" stroke-linejoin="miter" stroke-miterlimit="10" stroke-opacity="1" fill="none" fill-rule="nonzero" transform="matrix(1.00189 0 0 1 -110.14 740.839)"/><text fill="#252525" fill-opacity="1" font-family="Arial,Arial_MSFontService,sans-serif" font-style="normal" font-variant="normal" font-weight="400" font-stretch="normal" font-size="12" text-anchor="start" direction="ltr" writing-mode="lr-tb" unicode-bidi="normal" text-decoration="none" transform="matrix(3.4386 0 0 3.4321 2723.26 4283)">–3</text><text fill="#252525" fill-opacity="1" font-family="Arial,Arial_MSFontService,sans-serif" font-style="normal" font-variant="normal" font-weight="400" font-stretch="normal" font-size="12" text-anchor="start" direction="ltr" writing-mode="lr-tb" unicode-bidi="normal" text-decoration="none" transform="matrix(3.4386 0 0 3.4321 2723.26 4094)">–2</text><text fill="#252525" fill-opacity="1" font-family="Arial,Arial_MSFontService,sans-serif" font-style="normal" font-variant="normal" font-weight="400" font-stretch="normal" font-size="12" text-anchor="start" direction="ltr" writing-mode="lr-tb" unicode-bidi="normal" text-decoration="none" transform="matrix(3.4386 0 0 3.4321 2723.26 3905)">–1</text><text fill="#252525" fill-opacity="1" font-family="Arial,Arial_MSFontService,sans-serif" font-style="normal" font-variant="normal" font-weight="400" font-stretch="normal" font-size="12" text-anchor="start" direction="ltr" writing-mode="lr-tb" unicode-bidi="normal" text-decoration="none" transform="matrix(3.4386 0 0 3.4321 2743.89 3528)">1</text><text fill="#252525" fill-opacity="1" font-family="Arial,Arial_MSFontService,sans-serif" font-style="normal" font-variant="normal" font-weight="400" font-stretch="normal" font-size="12" text-anchor="start" direction="ltr" writing-mode="lr-tb" unicode-bidi="normal" text-decoration="none" transform="matrix(3.4386 0 0 3.4321 2743.89 3339)">2</text><text fill="#252525" fill-opacity="1" font-family="Arial,Arial_MSFontService,sans-serif" font-style="normal" font-variant="normal" font-weight="400" font-stretch="normal" font-size="12" text-anchor="start" direction="ltr" writing-mode="lr-tb" unicode-bidi="normal" text-decoration="none" transform="matrix(3.4386 0 0 3.4321 2743.89 3150)">3</text><text fill="#252525" fill-opacity="1" font-family="Arial,Arial_MSFontService,sans-serif" font-style="normal" font-variant="normal" font-weight="400" font-stretch="normal" font-size="12" text-anchor="start" direction="ltr" writing-mode="lr-tb" unicode-bidi="normal" text-decoration="none" transform="matrix(3.4386 0 0 3.4321 2743.89 2961)">4</text><text fill="#252525" fill-opacity="1" font-family="Arial,Arial_MSFontService,sans-serif" font-style="normal" font-variant="normal" font-weight="400" font-stretch="normal" font-size="12" text-anchor="start" direction="ltr" writing-mode="lr-tb" unicode-bidi="normal" text-decoration="none" transform="matrix(3.4386 0 0 3.4321 2743.89 2773)">5</text><text fill="#252525" fill-opacity="1" font-family="Arial,Arial_MSFontService,sans-serif" font-style="normal" font-variant="normal" font-weight="400" font-stretch="normal" font-size="12" text-anchor="start" direction="ltr" writing-mode="lr-tb" unicode-bidi="normal" text-decoration="none" transform="matrix(3.4386 0 0 3.4321 2743.89 2584)">6</text><text fill="#252525" fill-opacity="1" font-family="Arial,Arial_MSFontService,sans-serif" font-style="normal" font-variant="normal" font-weight="400" font-stretch="normal" font-size="12" text-anchor="start" direction="ltr" writing-mode="lr-tb" unicode-bidi="normal" text-decoration="none" transform="matrix(3.4386 0 0 3.4321 2743.89 2395)">7</text><text fill="#252525" fill-opacity="1" font-family="Arial,Arial_MSFontService,sans-serif" font-style="normal" font-variant="normal" font-weight="400" font-stretch="normal" font-size="12" text-anchor="start" direction="ltr" writing-mode="lr-tb" unicode-bidi="normal" text-decoration="none" transform="matrix(3.4386 0 0 3.4321 2743.89 2206)">8</text><text fill="#252525" fill-opacity="1" font-family="Arial,Arial_MSFontService,sans-serif" font-style="normal" font-variant="normal" font-weight="400" font-stretch="normal" font-size="12" text-anchor="start" direction="ltr" writing-mode="lr-tb" unicode-bidi="normal" text-decoration="none" transform="matrix(3.4386 0 0 3.4321 2743.89 2018)">9</text><text fill="#252525" fill-opacity="1" font-family="Arial,Arial_MSFontService,sans-serif" font-style="normal" font-variant="normal" font-weight="400" font-stretch="normal" font-size="12" text-anchor="start" direction="ltr" writing-mode="lr-tb" unicode-bidi="normal" text-decoration="none" transform="matrix(3.4386 0 0 3.4321 2723.26 1829)">10</text><text fill="#252525" fill-opacity="1" font-family="Arial,Arial_MSFontService,sans-serif" font-style="normal" font-variant="normal" font-weight="400" font-stretch="normal" font-size="12" text-anchor="start" direction="ltr" writing-mode="lr-tb" unicode-bidi="normal" text-decoration="none" transform="matrix(3.4386 0 0 3.4321 2726.7 1640)">11</text><text fill="#252525" fill-opacity="1" font-family="Arial,Arial_MSFontService,sans-serif" font-style="normal" font-variant="normal" font-weight="400" font-stretch="normal" font-size="12" text-anchor="start" direction="ltr" writing-mode="lr-tb" unicode-bidi="normal" text-decoration="none" transform="matrix(3.4386 0 0 3.4321 2723.26 1451)">12</text><text fill="#252525" fill-opacity="1" font-family="Arial,Arial_MSFontService,sans-serif" font-style="normal" font-variant="normal" font-weight="400" font-stretch="normal" font-size="12" text-anchor="start" direction="ltr" writing-mode="lr-tb" unicode-bidi="normal" text-decoration="none" transform="matrix(3.4386 0 0 3.4321 2723.26 1263)">13</text><text fill="#252525" fill-opacity="1" font-family="Arial,Arial_MSFontService,sans-serif" font-style="normal" font-variant="normal" font-weight="400" font-stretch="normal" font-size="12" text-anchor="start" direction="ltr" writing-mode="lr-tb" unicode-bidi="normal" text-decoration="none" transform="matrix(3.4386 0 0 3.4321 2723.26 1074)">14</text><text fill="#252525" fill-opacity="1" font-family="Arial,Arial_MSFontService,sans-serif" font-style="normal" font-variant="normal" font-weight="400" font-stretch="normal" font-size="12" text-anchor="start" direction="ltr" writing-mode="lr-tb" unicode-bidi="normal" text-decoration="none" transform="matrix(3.4386 0 0 3.4321 2723.26 885)">15</text><path d="M745.369 1654.39C887.639 1653.52 1001.93 1481.44 1000.65 1270.03 999.37 1058.62 882.999 887.936 740.729 888.798 598.46 889.66 484.166 1061.74 485.447 1273.15 486.728 1484.57 603.1 1655.25 745.369 1654.39Z" stroke="#0000FF" stroke-width="8.58025" stroke-linecap="round" stroke-linejoin="round" stroke-miterlimit="10" stroke-opacity="1" fill="none" fill-rule="nonzero" transform="matrix(1.00189 0 0 1 -110.14 740.839)"/><path d="M1709.79 1650.95C1852.06 1650.09 1966.35 1478.01 1965.07 1266.6 1963.79 1055.19 1847.42 884.504 1705.15 885.366 1562.88 886.228 1448.59 1058.31 1449.87 1269.72 1451.15 1481.13 1567.52 1651.82 1709.79 1650.95Z" stroke="#0000FF" stroke-width="8.58025" stroke-linecap="round" stroke-linejoin="round" stroke-miterlimit="10" stroke-opacity="1" fill="none" fill-rule="nonzero" transform="matrix(1.00189 0 0 1 -110.14 740.839)"/><path d="M1631.58 1161.53 1631.58 1161.53C1631.84 1162.16 1631.97 1162.83 1631.96 1163.5 1631.97 1162.8 1631.83 1162.14 1631.58 1161.53ZM1631.96 1163.51C1631.96 1164.18 1631.83 1164.85 1631.56 1165.47 1631.82 1164.87 1631.96 1164.21 1631.96 1163.51ZM792.814 1154.9C789.981 1154.9 787.678 1157.19 787.667 1160.03 787.655 1162.87 789.95 1165.19 792.794 1165.2L1601.05 1168.52 1601.1 1158.23 792.836 1154.9C792.829 1154.9 792.821 1154.9 792.814 1154.9Z" fill="#000000" fill-rule="nonzero" fill-opacity="1" transform="matrix(1.00189 0 0 1 -110.14 740.839)"/><path d="M1606.31 1137.66C1605.65 1137.66 1604.99 1137.78 1604.36 1138.04 1602.43 1138.83 1601.17 1140.7 1601.16 1142.78L1600.99 1183.97C1600.98 1186.05 1602.23 1187.93 1604.15 1188.74 1604.79 1189.01 1605.47 1189.14 1606.14 1189.14 1607.47 1189.14 1608.78 1188.62 1609.76 1187.64L1630.44 1167.14C1632.46 1165.13 1632.47 1161.87 1630.47 1159.86L1609.96 1139.18C1608.98 1138.18 1607.65 1137.66 1606.31 1137.66Z" fill="#000000" fill-rule="nonzero" fill-opacity="1" transform="matrix(1.00189 0 0 1 -110.14 740.839)"/><path d="M1638.44 1322.84C1638.7 1323.47 1638.83 1324.14 1638.83 1324.81L1638.83 1324.81C1638.83 1324.11 1638.69 1323.45 1638.44 1322.84ZM1638.83 1324.82C1638.82 1325.49 1638.69 1326.16 1638.43 1326.78 1638.68 1326.18 1638.82 1325.52 1638.83 1324.82ZM799.678 1316.21C796.845 1316.21 794.542 1318.5 794.531 1321.34 794.519 1324.18 796.815 1326.49 799.658 1326.51L1607.92 1329.83 1607.96 1319.54 799.7 1316.21C799.693 1316.21 799.686 1316.21 799.678 1316.21Z" fill="#000000" fill-rule="nonzero" fill-opacity="1" transform="matrix(1.00189 0 0 1 -110.14 740.839)"/><path d="M1613.17 1298.96C1612.51 1298.96 1611.85 1299.09 1611.22 1299.35 1609.29 1300.14 1608.03 1302.01 1608.02 1304.09L1607.85 1345.28C1607.84 1347.36 1609.09 1349.24 1611.01 1350.05 1611.65 1350.32 1612.33 1350.45 1613 1350.45 1614.33 1350.45 1615.64 1349.93 1616.63 1348.95L1637.3 1328.45C1639.32 1326.44 1639.34 1323.18 1637.33 1321.16L1616.83 1300.49C1615.84 1299.49 1614.52 1298.96 1613.17 1298.96Z" fill="#000000" fill-rule="nonzero" fill-opacity="1" transform="matrix(1.00189 0 0 1 -110.14 740.839)"/><path d="M1638.44 1525.33C1638.7 1525.96 1638.83 1526.63 1638.83 1527.3L1638.83 1527.3C1638.83 1526.61 1638.69 1525.94 1638.44 1525.33ZM1638.83 1527.32C1638.82 1527.98 1638.69 1528.65 1638.43 1529.27 1638.68 1528.67 1638.82 1528.01 1638.83 1527.32ZM799.678 1518.7C796.845 1518.7 794.542 1520.99 794.531 1523.83 794.519 1526.67 796.815 1528.99 799.658 1529L1607.92 1532.33 1607.96 1522.03 799.7 1518.7C799.693 1518.7 799.686 1518.7 799.678 1518.7Z" fill="#000000" fill-rule="nonzero" fill-opacity="1" transform="matrix(1.00189 0 0 1 -110.14 740.839)"/><path d="M1613.17 1501.46C1612.51 1501.46 1611.85 1501.58 1611.22 1501.84 1609.29 1502.63 1608.03 1504.5 1608.02 1506.59L1607.85 1547.77C1607.84 1549.85 1609.09 1551.73 1611.01 1552.54 1611.65 1552.81 1612.33 1552.94 1613 1552.94 1614.33 1552.94 1615.64 1552.42 1616.63 1551.45L1637.3 1530.94C1639.32 1528.94 1639.34 1525.68 1637.33 1523.66L1616.83 1502.98C1615.84 1501.99 1614.52 1501.46 1613.17 1501.46Z" fill="#000000" fill-rule="nonzero" fill-opacity="1" transform="matrix(1.00189 0 0 1 -110.14 740.839)"/><path d="M1635.01 962.469C1635.27 963.099 1635.4 963.77 1635.39 964.441L1635.39 964.441C1635.4 963.743 1635.26 963.077 1635.01 962.469ZM1635.39 964.451C1635.39 965.118 1635.26 965.785 1635 966.41 1635.25 965.807 1635.39 965.146 1635.39 964.451ZM796.246 955.839C793.413 955.839 791.11 958.13 791.099 960.966 791.087 963.81 793.382 966.124 796.226 966.136L1604.49 969.462 1604.53 959.166 796.268 955.839C796.261 955.839 796.254 955.839 796.246 955.839Z" fill="#000000" fill-rule="nonzero" fill-opacity="1" transform="matrix(1.00189 0 0 1 -110.14 740.839)"/><path d="M1609.74 938.594C1609.08 938.594 1608.42 938.72 1607.79 938.978 1605.86 939.767 1604.6 941.639 1604.59 943.721L1604.42 984.906C1604.41 986.988 1605.66 988.871 1607.58 989.675 1608.22 989.945 1608.9 990.076 1609.57 990.076 1610.9 990.076 1612.21 989.558 1613.19 988.583L1633.87 968.075C1635.89 966.073 1635.9 962.813 1633.9 960.794L1613.39 940.117C1612.41 939.123 1611.08 938.594 1609.74 938.594Z" fill="#000000" fill-rule="nonzero" fill-opacity="1" transform="matrix(1.00189 0 0 1 -110.14 740.839)"/><path d="M25.2259-54.9136 25.2259-6.77839C25.2259-5.06235 25.5691-3.97551 26.2556-3.5179 27.228-2.94588 29.5446-2.65988 33.2056-2.65988L35.9512-2.65988 35.9512 0C33.9492-0.171605 29.3158-0.257407 22.0512-0.257407 14.7866-0.257407 10.1533-0.171605 8.15123 0L8.15123-2.65988 10.8969-2.65988C15.3014-2.65988 17.8183-3.17469 18.4475-4.20432L18.5333-4.29012C18.7621-4.74774 18.8765-5.57716 18.8765-6.77839L18.8765-51.2241C15.9021-49.7368 12.1553-48.9932 7.63642-48.9932L7.63642-51.6531C14.5006-51.6531 19.706-53.4835 23.2525-57.1444 24.3393-57.1444 24.9685-56.9442 25.1401-56.5438L25.1401-56.458C25.1973-56.2864 25.2259-55.7716 25.2259-54.9136Z" fill="#000000" fill-rule="nonzero" fill-opacity="1" transform="matrix(1.00189 0 0 1 608.526 1739.92)"/><path d="M38.5253-14.9296 38.5253-14.9296 36.1228 0 4.29012 0C4.29012-1.43004 4.46173-2.34527 4.80494-2.74568L5.23395-3.17469 21.708-21.5364C27.7142-28.2862 30.7173-34.607 30.7173-40.4988 30.7173-45.5897 29.1728-49.4508 26.0839-52.0821L25.9981-52.1679 25.9123-52.1679C24.0819-53.7123 21.851-54.4846 19.2198-54.4846 15.1012-54.4846 11.8121-52.7113 9.35247-49.1648 8.66605-48.1352 8.09403-46.9911 7.63642-45.7327 7.80802-45.7899 8.17983-45.8185 8.75185-45.8185 11.0399-45.8185 12.4986-44.7889 13.1278-42.7296L13.1278-42.6438C13.2422-42.2434 13.2994-41.8144 13.2994-41.3568 13.2994-39.0687 12.2126-37.6101 10.0389-36.9809 9.58127-36.8665 9.18086-36.8093 8.83765-36.8093 6.72119-36.8093 5.31975-37.6959 4.63333-39.4691 4.40453-40.0984 4.29012-40.8134 4.29012-41.6142 4.29012-46.0187 5.97757-49.794 9.35247-52.9401 12.3842-55.743 16.0451-57.1444 20.3352-57.1444 26.6274-57.1444 31.5181-55.028 35.0074-50.7951 37.0095-48.3354 38.1535-45.4181 38.4395-42.0432 38.4967-41.5284 38.5253-41.0136 38.5253-40.4988 38.5253-36.323 36.9523-32.3475 33.8062-28.5722 32.1473-26.6274 29.5732-24.0533 26.0839-20.85L20.85-16.2167 19.992-15.4444 10.8969-6.60679 26.3414-6.60679C31.3751-6.60679 34.0922-6.8356 34.4926-7.29321 35.0646-8.09403 35.6938-10.6395 36.3802-14.9296L38.5253-14.9296Z" fill="#000000" fill-rule="nonzero" fill-opacity="1" transform="matrix(1.00189 0 0 1 611.965 1918.39)"/><path d="M24.8827-30.2025 24.8827-30.2025C30.6029-29.0584 34.7214-26.2556 37.2383-21.7938 38.5539-19.563 39.2117-17.1891 39.2117-14.6722 39.2117-9.81008 37.2097-5.72016 33.2056-2.40247 29.7163 0.457613 25.6263 1.88765 20.9358 1.88765 15.2728 1.88765 10.7253 0.200206 7.29321-3.17469 4.83354-5.57716 3.6037-8.38004 3.6037-11.5833 3.6037-14.2718 4.80494-15.8735 7.20741-16.3883 7.60782-16.5027 8.00823-16.5599 8.40864-16.5599 10.5823-16.5599 12.0409-15.6446 12.7846-13.8142 13.0134-13.0706 13.1564-12.3842 13.2136-11.7549 13.2136-9.46687 12.1839-7.97963 10.1247-7.29321 9.32387-7.0072 8.46584-6.9214 7.55062-7.0358 9.66708-3.4893 13.328-1.37284 18.5333-0.68642 19.277-0.572016 19.992-0.514815 20.6784-0.514815 24.3393-0.514815 27.0278-2.31667 28.7438-5.92037 29.8307-8.20844 30.3741-11.1257 30.3741-14.6722 30.3741-22.28 28.086-26.8562 23.5099-28.4006 22.4802-28.7438 21.3648-28.9154 20.1636-28.9154L16.3883-28.9154C15.1298-28.9154 14.4434-29.23 14.329-29.8593 14.329-30.4313 14.758-30.7745 15.616-30.8889 16.4741-30.8889 17.5895-30.9747 18.9623-31.1463 21.8796-31.2607 24.1677-32.3761 25.8265-34.4926L25.8265-34.5784 25.9123-34.6642 25.9981-34.75 26.0839-34.75 26.5988-35.608C28.2004-38.2965 29.0012-41.557 29.0012-45.3895 29.0012-50.7093 26.942-53.8267 22.8235-54.742 22.137-54.9136 21.4506-54.9994 20.7642-54.9994 16.7601-54.9994 13.4996-53.8553 10.9827-51.5673 10.3535-50.9953 9.81008-50.366 9.35247-49.6796 12.899-49.6796 14.6722-48.2496 14.6722-45.3895 14.6722-43.3302 13.7856-41.9574 12.0123-41.271 11.4975-41.0994 10.9255-41.0136 10.2963-41.0136 8.06543-41.0136 6.66399-42.0146 6.09197-44.0167L6.09197-44.1025C5.97757-44.5601 5.92037-45.0177 5.92037-45.4753 5.92037-49.3078 7.80802-52.3681 11.5833-54.6562 14.329-56.315 17.5037-57.1444 21.1074-57.1444 26.3128-57.1444 30.5171-55.6 33.7204-52.5111L33.892-52.3395C35.894-50.2802 36.8951-47.935 36.8951-45.3037 36.8951-40.556 34.8644-36.5804 30.8031-33.3772 29.0298-32.0043 27.0564-30.9461 24.8827-30.2025Z" fill="#000000" fill-rule="nonzero" fill-opacity="1" transform="matrix(1.00189 0 0 1 622.281 2096.86)"/><path d="M2.40247-14.1574 2.40247-16.8173 28.7438-57.0586C29.2014-57.7451 29.7735-58.0883 30.4599-58.0883 31.2607-58.0883 31.7183-57.7737 31.8327-57.1444L31.8327-55.8574 31.8327-16.8173 40.413-16.8173 40.413-14.1574 31.8327-14.1574 31.8327-6.69259C31.8327-4.91934 32.1759-3.83251 32.8623-3.4321 33.6632-2.91728 35.4936-2.65988 38.3537-2.65988L40.1556-2.65988 40.1556 0C37.8103-0.171605 33.9206-0.257407 28.4864-0.257407 23.1095-0.257407 19.2484-0.171605 16.9031 0L16.9031-2.65988 18.7049-2.65988C22.2514-2.65988 24.3107-3.14609 24.8827-4.11852 25.1115-4.51893 25.2259-5.37695 25.2259-6.69259L25.2259-14.1574 2.40247-14.1574M25.7407-16.8173 25.7407-48.8216 4.80494-16.8173 25.7407-16.8173Z" fill="#000000" fill-rule="nonzero" fill-opacity="1" transform="matrix(1.00189 0 0 1 625.719 2282.19)"/><path d="M25.2259-54.9136 25.2259-6.77839C25.2259-5.06235 25.5691-3.97551 26.2556-3.5179 27.228-2.94588 29.5446-2.65988 33.2056-2.65988L35.9512-2.65988 35.9512 0C33.9492-0.171605 29.3158-0.257407 22.0512-0.257407 14.7866-0.257407 10.1533-0.171605 8.15123 0L8.15123-2.65988 10.8969-2.65988C15.3014-2.65988 17.8183-3.17469 18.4475-4.20432L18.5333-4.29012C18.7621-4.74774 18.8765-5.57716 18.8765-6.77839L18.8765-51.2241C15.9021-49.7368 12.1553-48.9932 7.63642-48.9932L7.63642-51.6531C14.5006-51.6531 19.706-53.4835 23.2525-57.1444 24.3393-57.1444 24.9685-56.9442 25.1401-56.5438L25.1401-56.458C25.1973-56.2864 25.2259-55.7716 25.2259-54.9136Z" fill="#000000" fill-rule="nonzero" fill-opacity="1" transform="matrix(1.00189 0 0 1 1561.02 1739.92)"/><path d="M39.4691-27.4568C39.4691-19.1053 38.4109-12.6416 36.2944-8.06543 32.9195-1.65885 27.943 1.65885 21.3648 1.88765 16.1595 1.88765 11.9837-0.171605 8.83765-4.29012 8.20844-5.03374 7.66502-5.86317 7.20741-6.77839 4.63333-11.5261 3.3463-18.4189 3.3463-27.4568 3.3463-35.8654 4.40453-42.3578 6.52099-46.9339 9.38107-53.3405 14.0144-56.744 20.421-57.1444L21.4506-57.1444C26.5416-57.1444 30.6887-55.1138 33.892-51.0525L33.892-50.9667C34.6928-49.937 35.4078-48.793 36.037-47.5346 38.3251-42.6724 39.4691-35.9798 39.4691-27.4568M21.3648 0C24.9685 0 27.7428-1.74465 29.6877-5.23395 30.4885-6.77839 31.0605-8.60885 31.4037-10.7253 32.0329-14.3862 32.3475-20.3066 32.3475-28.4864 32.3475-36.4374 32.0615-42.0146 31.4895-45.2179 30.4599-50.6521 27.8286-53.9125 23.5957-54.9994 22.8521-55.171 22.1084-55.2568 21.3648-55.2568 17.3607-55.2568 14.4434-53.2547 12.613-49.2506 11.9837-47.8778 11.4975-46.2189 11.1543-44.2741 10.6967-41.1852 10.4679-35.9226 10.4679-28.4864 10.4679-19.849 10.7825-13.8142 11.4117-10.3821 12.4414-4.89074 14.9582-1.54444 18.9623-0.34321 19.7632-0.114403 20.564 0 21.3648 0Z" fill="#000000" fill-rule="nonzero" fill-opacity="1" transform="matrix(1.00189 0 0 1 1604 1739.92)"/><path d="M38.5253-14.9296 38.5253-14.9296 36.1228 0 4.29012 0C4.29012-1.43004 4.46173-2.34527 4.80494-2.74568L5.23395-3.17469 21.708-21.5364C27.7142-28.2862 30.7173-34.607 30.7173-40.4988 30.7173-45.5897 29.1728-49.4508 26.0839-52.0821L25.9981-52.1679 25.9123-52.1679C24.0819-53.7123 21.851-54.4846 19.2198-54.4846 15.1012-54.4846 11.8121-52.7113 9.35247-49.1648 8.66605-48.1352 8.09403-46.9911 7.63642-45.7327 7.80802-45.7899 8.17983-45.8185 8.75185-45.8185 11.0399-45.8185 12.4986-44.7889 13.1278-42.7296L13.1278-42.6438C13.2422-42.2434 13.2994-41.8144 13.2994-41.3568 13.2994-39.0687 12.2126-37.6101 10.0389-36.9809 9.58127-36.8665 9.18086-36.8093 8.83765-36.8093 6.72119-36.8093 5.31975-37.6959 4.63333-39.4691 4.40453-40.0984 4.29012-40.8134 4.29012-41.6142 4.29012-46.0187 5.97757-49.794 9.35247-52.9401 12.3842-55.743 16.0451-57.1444 20.3352-57.1444 26.6274-57.1444 31.5181-55.028 35.0074-50.7951 37.0095-48.3354 38.1535-45.4181 38.4395-42.0432 38.4967-41.5284 38.5253-41.0136 38.5253-40.4988 38.5253-36.323 36.9523-32.3475 33.8062-28.5722 32.1473-26.6274 29.5732-24.0533 26.0839-20.85L20.85-16.2167 19.992-15.4444 10.8969-6.60679 26.3414-6.60679C31.3751-6.60679 34.0922-6.8356 34.4926-7.29321 35.0646-8.09403 35.6938-10.6395 36.3802-14.9296L38.5253-14.9296Z" fill="#000000" fill-rule="nonzero" fill-opacity="1" transform="matrix(1.00189 0 0 1 1554.14 1925.26)"/><path d="M39.4691-27.4568C39.4691-19.1053 38.4109-12.6416 36.2944-8.06543 32.9195-1.65885 27.943 1.65885 21.3648 1.88765 16.1595 1.88765 11.9837-0.171605 8.83765-4.29012 8.20844-5.03374 7.66502-5.86317 7.20741-6.77839 4.63333-11.5261 3.3463-18.4189 3.3463-27.4568 3.3463-35.8654 4.40453-42.3578 6.52099-46.9339 9.38107-53.3405 14.0144-56.744 20.421-57.1444L21.4506-57.1444C26.5416-57.1444 30.6887-55.1138 33.892-51.0525L33.892-50.9667C34.6928-49.937 35.4078-48.793 36.037-47.5346 38.3251-42.6724 39.4691-35.9798 39.4691-27.4568M21.3648 0C24.9685 0 27.7428-1.74465 29.6877-5.23395 30.4885-6.77839 31.0605-8.60885 31.4037-10.7253 32.0329-14.3862 32.3475-20.3066 32.3475-28.4864 32.3475-36.4374 32.0615-42.0146 31.4895-45.2179 30.4599-50.6521 27.8286-53.9125 23.5957-54.9994 22.8521-55.171 22.1084-55.2568 21.3648-55.2568 17.3607-55.2568 14.4434-53.2547 12.613-49.2506 11.9837-47.8778 11.4975-46.2189 11.1543-44.2741 10.6967-41.1852 10.4679-35.9226 10.4679-28.4864 10.4679-19.849 10.7825-13.8142 11.4117-10.3821 12.4414-4.89074 14.9582-1.54444 18.9623-0.34321 19.7632-0.114403 20.564 0 21.3648 0Z" fill="#000000" fill-rule="nonzero" fill-opacity="1" transform="matrix(1.00189 0 0 1 1597.12 1925.26)"/><path d="M24.8827-30.2025 24.8827-30.2025C30.6029-29.0584 34.7214-26.2556 37.2383-21.7938 38.5539-19.563 39.2117-17.1891 39.2117-14.6722 39.2117-9.81008 37.2097-5.72016 33.2056-2.40247 29.7163 0.457613 25.6263 1.88765 20.9358 1.88765 15.2728 1.88765 10.7253 0.200206 7.29321-3.17469 4.83354-5.57716 3.6037-8.38004 3.6037-11.5833 3.6037-14.2718 4.80494-15.8735 7.20741-16.3883 7.60782-16.5027 8.00823-16.5599 8.40864-16.5599 10.5823-16.5599 12.0409-15.6446 12.7846-13.8142 13.0134-13.0706 13.1564-12.3842 13.2136-11.7549 13.2136-9.46687 12.1839-7.97963 10.1247-7.29321 9.32387-7.0072 8.46584-6.9214 7.55062-7.0358 9.66708-3.4893 13.328-1.37284 18.5333-0.68642 19.277-0.572016 19.992-0.514815 20.6784-0.514815 24.3393-0.514815 27.0278-2.31667 28.7438-5.92037 29.8307-8.20844 30.3741-11.1257 30.3741-14.6722 30.3741-22.28 28.086-26.8562 23.5099-28.4006 22.4802-28.7438 21.3648-28.9154 20.1636-28.9154L16.3883-28.9154C15.1298-28.9154 14.4434-29.23 14.329-29.8593 14.329-30.4313 14.758-30.7745 15.616-30.8889 16.4741-30.8889 17.5895-30.9747 18.9623-31.1463 21.8796-31.2607 24.1677-32.3761 25.8265-34.4926L25.8265-34.5784 25.9123-34.6642 25.9981-34.75 26.0839-34.75 26.5988-35.608C28.2004-38.2965 29.0012-41.557 29.0012-45.3895 29.0012-50.7093 26.942-53.8267 22.8235-54.742 22.137-54.9136 21.4506-54.9994 20.7642-54.9994 16.7601-54.9994 13.4996-53.8553 10.9827-51.5673 10.3535-50.9953 9.81008-50.366 9.35247-49.6796 12.899-49.6796 14.6722-48.2496 14.6722-45.3895 14.6722-43.3302 13.7856-41.9574 12.0123-41.271 11.4975-41.0994 10.9255-41.0136 10.2963-41.0136 8.06543-41.0136 6.66399-42.0146 6.09197-44.0167L6.09197-44.1025C5.97757-44.5601 5.92037-45.0177 5.92037-45.4753 5.92037-49.3078 7.80802-52.3681 11.5833-54.6562 14.329-56.315 17.5037-57.1444 21.1074-57.1444 26.3128-57.1444 30.5171-55.6 33.7204-52.5111L33.892-52.3395C35.894-50.2802 36.8951-47.935 36.8951-45.3037 36.8951-40.556 34.8644-36.5804 30.8031-33.3772 29.0298-32.0043 27.0564-30.9461 24.8827-30.2025Z" fill="#000000" fill-rule="nonzero" fill-opacity="1" transform="matrix(1.00189 0 0 1 1564.46 2103.73)"/><path d="M39.4691-27.4568C39.4691-19.1053 38.4109-12.6416 36.2944-8.06543 32.9195-1.65885 27.943 1.65885 21.3648 1.88765 16.1595 1.88765 11.9837-0.171605 8.83765-4.29012 8.20844-5.03374 7.66502-5.86317 7.20741-6.77839 4.63333-11.5261 3.3463-18.4189 3.3463-27.4568 3.3463-35.8654 4.40453-42.3578 6.52099-46.9339 9.38107-53.3405 14.0144-56.744 20.421-57.1444L21.4506-57.1444C26.5416-57.1444 30.6887-55.1138 33.892-51.0525L33.892-50.9667C34.6928-49.937 35.4078-48.793 36.037-47.5346 38.3251-42.6724 39.4691-35.9798 39.4691-27.4568M21.3648 0C24.9685 0 27.7428-1.74465 29.6877-5.23395 30.4885-6.77839 31.0605-8.60885 31.4037-10.7253 32.0329-14.3862 32.3475-20.3066 32.3475-28.4864 32.3475-36.4374 32.0615-42.0146 31.4895-45.2179 30.4599-50.6521 27.8286-53.9125 23.5957-54.9994 22.8521-55.171 22.1084-55.2568 21.3648-55.2568 17.3607-55.2568 14.4434-53.2547 12.613-49.2506 11.9837-47.8778 11.4975-46.2189 11.1543-44.2741 10.6967-41.1852 10.4679-35.9226 10.4679-28.4864 10.4679-19.849 10.7825-13.8142 11.4117-10.3821 12.4414-4.89074 14.9582-1.54444 18.9623-0.34321 19.7632-0.114403 20.564 0 21.3648 0Z" fill="#000000" fill-rule="nonzero" fill-opacity="1" transform="matrix(1.00189 0 0 1 1607.44 2103.73)"/><path d="M2.40247-14.1574 2.40247-16.8173 28.7438-57.0586C29.2014-57.7451 29.7735-58.0883 30.4599-58.0883 31.2607-58.0883 31.7183-57.7737 31.8327-57.1444L31.8327-55.8574 31.8327-16.8173 40.413-16.8173 40.413-14.1574 31.8327-14.1574 31.8327-6.69259C31.8327-4.91934 32.1759-3.83251 32.8623-3.4321 33.6632-2.91728 35.4936-2.65988 38.3537-2.65988L40.1556-2.65988 40.1556 0C37.8103-0.171605 33.9206-0.257407 28.4864-0.257407 23.1095-0.257407 19.2484-0.171605 16.9031 0L16.9031-2.65988 18.7049-2.65988C22.2514-2.65988 24.3107-3.14609 24.8827-4.11852 25.1115-4.51893 25.2259-5.37695 25.2259-6.69259L25.2259-14.1574 2.40247-14.1574M25.7407-16.8173 25.7407-48.8216 4.80494-16.8173 25.7407-16.8173Z" fill="#000000" fill-rule="nonzero" fill-opacity="1" transform="matrix(1.00189 0 0 1 1561.02 2285.63)"/><path d="M39.4691-27.4568C39.4691-19.1053 38.4109-12.6416 36.2944-8.06543 32.9195-1.65885 27.943 1.65885 21.3648 1.88765 16.1595 1.88765 11.9837-0.171605 8.83765-4.29012 8.20844-5.03374 7.66502-5.86317 7.20741-6.77839 4.63333-11.5261 3.3463-18.4189 3.3463-27.4568 3.3463-35.8654 4.40453-42.3578 6.52099-46.9339 9.38107-53.3405 14.0144-56.744 20.421-57.1444L21.4506-57.1444C26.5416-57.1444 30.6887-55.1138 33.892-51.0525L33.892-50.9667C34.6928-49.937 35.4078-48.793 36.037-47.5346 38.3251-42.6724 39.4691-35.9798 39.4691-27.4568M21.3648 0C24.9685 0 27.7428-1.74465 29.6877-5.23395 30.4885-6.77839 31.0605-8.60885 31.4037-10.7253 32.0329-14.3862 32.3475-20.3066 32.3475-28.4864 32.3475-36.4374 32.0615-42.0146 31.4895-45.2179 30.4599-50.6521 27.8286-53.9125 23.5957-54.9994 22.8521-55.171 22.1084-55.2568 21.3648-55.2568 17.3607-55.2568 14.4434-53.2547 12.613-49.2506 11.9837-47.8778 11.4975-46.2189 11.1543-44.2741 10.6967-41.1852 10.4679-35.9226 10.4679-28.4864 10.4679-19.849 10.7825-13.8142 11.4117-10.3821 12.4414-4.89074 14.9582-1.54444 18.9623-0.34321 19.7632-0.114403 20.564 0 21.3648 0Z" fill="#000000" fill-rule="nonzero" fill-opacity="1" transform="matrix(1.00189 0 0 1 1604 2285.63)"/></g></g></g></g><text fill="#000000" fill-opacity="1" font-family="TH SarabunPSK,TH SarabunPSK_MSFontService,sans-serif" font-style="normal" font-variant="normal" font-weight="700" font-stretch="normal" font-size="92" text-anchor="start" direction="ltr" writing-mode="lr-tb" unicode-bidi="normal" text-decoration="none" transform="matrix(1 0 0 1 353.375 1526)">จำนวนลูกชิ้นปิ้ง (ไม้)</text><text fill="#000000" fill-opacity="1" font-family="TH SarabunPSK,TH SarabunPSK_MSFontService,sans-serif" font-style="normal" font-variant="normal" font-weight="700" font-stretch="normal" font-size="92" text-anchor="start" direction="ltr" writing-mode="lr-tb" unicode-bidi="normal" text-decoration="none" transform="matrix(1 0 0 1 1389.71 1526)">ราคาขาย (บาท)</text></g></g></svg>